<?xml version="1.0" encoding="UTF-8" standalone="no"?>
<!DOCTYPE svg PUBLIC "-//W3C//DTD SVG 1.1//EN"
 "http://www.w3.org/Graphics/SVG/1.1/DTD/svg11.dtd">
<!-- Generated by graphviz version 3.0.0 (20220226.1711)
 -->
<!-- Title: controllers_diagram Pages: 1 -->
<svg width="1299pt" height="1312pt"
 viewBox="0.00 0.00 1299.00 1312.00" xmlns="http://www.w3.org/2000/svg" xmlns:xlink="http://www.w3.org/1999/xlink">
<g id="graph0" class="graph" transform="scale(1 1) rotate(0) translate(4 1308)">
<title>controllers_diagram</title>
<polygon fill="transparent" stroke="transparent" points="-4,4 -4,-1308 1295,-1308 1295,4 -4,4"/>
<!-- _diagram_info -->
<g id="node1" class="node">
<title>_diagram_info</title>
<text text-anchor="start" x="608" y="-143.6" font-family="Times,serif" font-size="13.00">Controllers diagram</text>
<text text-anchor="start" x="608" y="-129.6" font-family="Times,serif" font-size="13.00">Date: Jun 26 2022 &#45; 10:36</text>
<text text-anchor="start" x="608" y="-115.6" font-family="Times,serif" font-size="13.00">Migration version: 20220625005826</text>
<text text-anchor="start" x="608" y="-101.6" font-family="Times,serif" font-size="13.00">Generated by RailRoady 1.6.0</text>
<text text-anchor="start" x="608" y="-87.6" font-family="Times,serif" font-size="13.00">http://railroady.prestonlee.com</text>
</g>
<!-- AnnouncementsController -->
<g id="node2" class="node">
<title>AnnouncementsController</title>
<path fill="none" stroke="black" d="M712,-480.5C712,-480.5 849,-480.5 849,-480.5 855,-480.5 861,-486.5 861,-492.5 861,-492.5 861,-696.5 861,-696.5 861,-702.5 855,-708.5 849,-708.5 849,-708.5 712,-708.5 712,-708.5 706,-708.5 700,-702.5 700,-696.5 700,-696.5 700,-492.5 700,-492.5 700,-486.5 706,-480.5 712,-480.5"/>
<text text-anchor="middle" x="780.5" y="-693.3" font-family="Times,serif" font-size="14.00">AnnouncementsController</text>
<polyline fill="none" stroke="black" points="700,-685.5 861,-685.5 "/>
<text text-anchor="start" x="708" y="-670.3" font-family="Times,serif" font-size="14.00">create</text>
<text text-anchor="start" x="708" y="-655.3" font-family="Times,serif" font-size="14.00">destroy</text>
<text text-anchor="start" x="708" y="-640.3" font-family="Times,serif" font-size="14.00">edit</text>
<text text-anchor="start" x="708" y="-625.3" font-family="Times,serif" font-size="14.00">index</text>
<text text-anchor="start" x="708" y="-610.3" font-family="Times,serif" font-size="14.00">new</text>
<text text-anchor="start" x="708" y="-595.3" font-family="Times,serif" font-size="14.00">show</text>
<text text-anchor="start" x="708" y="-580.3" font-family="Times,serif" font-size="14.00">update</text>
<polyline fill="none" stroke="black" points="700,-572.5 861,-572.5 "/>
<polyline fill="none" stroke="black" points="700,-548.5 861,-548.5 "/>
<text text-anchor="start" x="708" y="-533.3" font-family="Times,serif" font-size="14.00">_layout</text>
<text text-anchor="start" x="708" y="-518.3" font-family="Times,serif" font-size="14.00">_layout_from_proc</text>
<text text-anchor="start" x="708" y="-503.3" font-family="Times,serif" font-size="14.00">announcement_params</text>
<text text-anchor="start" x="708" y="-488.3" font-family="Times,serif" font-size="14.00">set_announcement</text>
</g>
<!-- ApplicationController -->
<g id="node3" class="node">
<title>ApplicationController</title>
<path fill="none" stroke="black" d="M332,-520.5C332,-520.5 494,-520.5 494,-520.5 500,-520.5 506,-526.5 506,-532.5 506,-532.5 506,-707.5 506,-707.5 506,-713.5 500,-719.5 494,-719.5 494,-719.5 332,-719.5 332,-719.5 326,-719.5 320,-713.5 320,-707.5 320,-707.5 320,-532.5 320,-532.5 320,-526.5 326,-520.5 332,-520.5"/>
<text text-anchor="middle" x="413" y="-704.3" font-family="Times,serif" font-size="14.00">ApplicationController</text>
<polyline fill="none" stroke="black" points="320,-696.5 506,-696.5 "/>
<polyline fill="none" stroke="black" points="320,-672.5 506,-672.5 "/>
<polyline fill="none" stroke="black" points="320,-648.5 506,-648.5 "/>
<text text-anchor="start" x="328" y="-633.3" font-family="Times,serif" font-size="14.00">track_action</text>
<text text-anchor="start" x="328" y="-618.3" font-family="Times,serif" font-size="14.00">_layout_from_proc</text>
<text text-anchor="start" x="328" y="-603.3" font-family="Times,serif" font-size="14.00">authenticate_user_from_token!</text>
<text text-anchor="start" x="328" y="-588.3" font-family="Times,serif" font-size="14.00">ensure_frame_response</text>
<text text-anchor="start" x="328" y="-573.3" font-family="Times,serif" font-size="14.00">set_current_user</text>
<text text-anchor="start" x="328" y="-558.3" font-family="Times,serif" font-size="14.00">storable_location?</text>
<text text-anchor="start" x="328" y="-543.3" font-family="Times,serif" font-size="14.00">store_user_location!</text>
<text text-anchor="start" x="328" y="-528.3" font-family="Times,serif" font-size="14.00">_layout</text>
</g>
<!-- AuthorsController -->
<g id="node4" class="node">
<title>AuthorsController</title>
<path fill="none" stroke="black" d="M452,-160.5C452,-160.5 550,-160.5 550,-160.5 556,-160.5 562,-166.5 562,-172.5 562,-172.5 562,-376.5 562,-376.5 562,-382.5 556,-388.5 550,-388.5 550,-388.5 452,-388.5 452,-388.5 446,-388.5 440,-382.5 440,-376.5 440,-376.5 440,-172.5 440,-172.5 440,-166.5 446,-160.5 452,-160.5"/>
<text text-anchor="middle" x="501" y="-373.3" font-family="Times,serif" font-size="14.00">AuthorsController</text>
<polyline fill="none" stroke="black" points="440,-365.5 562,-365.5 "/>
<text text-anchor="start" x="448" y="-350.3" font-family="Times,serif" font-size="14.00">create</text>
<text text-anchor="start" x="448" y="-335.3" font-family="Times,serif" font-size="14.00">destroy</text>
<text text-anchor="start" x="448" y="-320.3" font-family="Times,serif" font-size="14.00">edit</text>
<text text-anchor="start" x="448" y="-305.3" font-family="Times,serif" font-size="14.00">index</text>
<text text-anchor="start" x="448" y="-290.3" font-family="Times,serif" font-size="14.00">new</text>
<text text-anchor="start" x="448" y="-275.3" font-family="Times,serif" font-size="14.00">show</text>
<text text-anchor="start" x="448" y="-260.3" font-family="Times,serif" font-size="14.00">update</text>
<polyline fill="none" stroke="black" points="440,-252.5 562,-252.5 "/>
<polyline fill="none" stroke="black" points="440,-228.5 562,-228.5 "/>
<text text-anchor="start" x="448" y="-213.3" font-family="Times,serif" font-size="14.00">_layout</text>
<text text-anchor="start" x="448" y="-198.3" font-family="Times,serif" font-size="14.00">_layout_from_proc</text>
<text text-anchor="start" x="448" y="-183.3" font-family="Times,serif" font-size="14.00">author_params</text>
<text text-anchor="start" x="448" y="-168.3" font-family="Times,serif" font-size="14.00">set_author</text>
</g>
<!-- BookLinksController -->
<g id="node5" class="node">
<title>BookLinksController</title>
<path fill="none" stroke="black" d="M272,-240.5C272,-240.5 380,-240.5 380,-240.5 386,-240.5 392,-246.5 392,-252.5 392,-252.5 392,-471.5 392,-471.5 392,-477.5 386,-483.5 380,-483.5 380,-483.5 272,-483.5 272,-483.5 266,-483.5 260,-477.5 260,-471.5 260,-471.5 260,-252.5 260,-252.5 260,-246.5 266,-240.5 272,-240.5"/>
<text text-anchor="middle" x="326" y="-468.3" font-family="Times,serif" font-size="14.00">BookLinksController</text>
<polyline fill="none" stroke="black" points="260,-460.5 392,-460.5 "/>
<text text-anchor="start" x="268" y="-445.3" font-family="Times,serif" font-size="14.00">create</text>
<text text-anchor="start" x="268" y="-430.3" font-family="Times,serif" font-size="14.00">destroy</text>
<text text-anchor="start" x="268" y="-415.3" font-family="Times,serif" font-size="14.00">edit</text>
<text text-anchor="start" x="268" y="-400.3" font-family="Times,serif" font-size="14.00">index</text>
<text text-anchor="start" x="268" y="-385.3" font-family="Times,serif" font-size="14.00">new</text>
<text text-anchor="start" x="268" y="-370.3" font-family="Times,serif" font-size="14.00">show</text>
<text text-anchor="start" x="268" y="-355.3" font-family="Times,serif" font-size="14.00">update</text>
<polyline fill="none" stroke="black" points="260,-347.5 392,-347.5 "/>
<polyline fill="none" stroke="black" points="260,-323.5 392,-323.5 "/>
<text text-anchor="start" x="268" y="-308.3" font-family="Times,serif" font-size="14.00">_layout</text>
<text text-anchor="start" x="268" y="-293.3" font-family="Times,serif" font-size="14.00">_layout_from_proc</text>
<text text-anchor="start" x="268" y="-278.3" font-family="Times,serif" font-size="14.00">link_params</text>
<text text-anchor="start" x="268" y="-263.3" font-family="Times,serif" font-size="14.00">set_book</text>
<text text-anchor="start" x="268" y="-248.3" font-family="Times,serif" font-size="14.00">set_link</text>
</g>
<!-- BooksController -->
<g id="node6" class="node">
<title>BooksController</title>
<path fill="none" stroke="black" d="M552,-420.5C552,-420.5 650,-420.5 650,-420.5 656,-420.5 662,-426.5 662,-432.5 662,-432.5 662,-711.5 662,-711.5 662,-717.5 656,-723.5 650,-723.5 650,-723.5 552,-723.5 552,-723.5 546,-723.5 540,-717.5 540,-711.5 540,-711.5 540,-432.5 540,-432.5 540,-426.5 546,-420.5 552,-420.5"/>
<text text-anchor="middle" x="601" y="-708.3" font-family="Times,serif" font-size="14.00">BooksController</text>
<polyline fill="none" stroke="black" points="540,-700.5 662,-700.5 "/>
<text text-anchor="start" x="548" y="-685.3" font-family="Times,serif" font-size="14.00">update</text>
<text text-anchor="start" x="548" y="-670.3" font-family="Times,serif" font-size="14.00">create</text>
<text text-anchor="start" x="548" y="-655.3" font-family="Times,serif" font-size="14.00">destroy</text>
<text text-anchor="start" x="548" y="-640.3" font-family="Times,serif" font-size="14.00">edit</text>
<text text-anchor="start" x="548" y="-625.3" font-family="Times,serif" font-size="14.00">index</text>
<text text-anchor="start" x="548" y="-610.3" font-family="Times,serif" font-size="14.00">new</text>
<text text-anchor="start" x="548" y="-595.3" font-family="Times,serif" font-size="14.00">release</text>
<text text-anchor="start" x="548" y="-580.3" font-family="Times,serif" font-size="14.00">show</text>
<text text-anchor="start" x="548" y="-565.3" font-family="Times,serif" font-size="14.00">admin</text>
<polyline fill="none" stroke="black" points="540,-557.5 662,-557.5 "/>
<polyline fill="none" stroke="black" points="540,-533.5 662,-533.5 "/>
<text text-anchor="start" x="548" y="-518.3" font-family="Times,serif" font-size="14.00">_layout</text>
<text text-anchor="start" x="548" y="-503.3" font-family="Times,serif" font-size="14.00">_layout_from_proc</text>
<text text-anchor="start" x="548" y="-488.3" font-family="Times,serif" font-size="14.00">book_params</text>
<text text-anchor="start" x="548" y="-473.3" font-family="Times,serif" font-size="14.00">get_cover_bgcolor</text>
<text text-anchor="start" x="548" y="-458.3" font-family="Times,serif" font-size="14.00">get_series</text>
<text text-anchor="start" x="548" y="-443.3" font-family="Times,serif" font-size="14.00">set_book</text>
<text text-anchor="start" x="548" y="-428.3" font-family="Times,serif" font-size="14.00">track_action</text>
</g>
<!-- CommentsController -->
<g id="node7" class="node">
<title>CommentsController</title>
<path fill="none" stroke="black" d="M712,-200.5C712,-200.5 820,-200.5 820,-200.5 826,-200.5 832,-206.5 832,-212.5 832,-212.5 832,-431.5 832,-431.5 832,-437.5 826,-443.5 820,-443.5 820,-443.5 712,-443.5 712,-443.5 706,-443.5 700,-437.5 700,-431.5 700,-431.5 700,-212.5 700,-212.5 700,-206.5 706,-200.5 712,-200.5"/>
<text text-anchor="middle" x="766" y="-428.3" font-family="Times,serif" font-size="14.00">CommentsController</text>
<polyline fill="none" stroke="black" points="700,-420.5 832,-420.5 "/>
<text text-anchor="start" x="708" y="-405.3" font-family="Times,serif" font-size="14.00">create</text>
<text text-anchor="start" x="708" y="-390.3" font-family="Times,serif" font-size="14.00">destroy</text>
<text text-anchor="start" x="708" y="-375.3" font-family="Times,serif" font-size="14.00">edit</text>
<text text-anchor="start" x="708" y="-360.3" font-family="Times,serif" font-size="14.00">index</text>
<text text-anchor="start" x="708" y="-345.3" font-family="Times,serif" font-size="14.00">new</text>
<text text-anchor="start" x="708" y="-330.3" font-family="Times,serif" font-size="14.00">show</text>
<text text-anchor="start" x="708" y="-315.3" font-family="Times,serif" font-size="14.00">update</text>
<polyline fill="none" stroke="black" points="700,-307.5 832,-307.5 "/>
<polyline fill="none" stroke="black" points="700,-283.5 832,-283.5 "/>
<text text-anchor="start" x="708" y="-268.3" font-family="Times,serif" font-size="14.00">_layout</text>
<text text-anchor="start" x="708" y="-253.3" font-family="Times,serif" font-size="14.00">_layout_from_proc</text>
<text text-anchor="start" x="708" y="-238.3" font-family="Times,serif" font-size="14.00">comment_params</text>
<text text-anchor="start" x="708" y="-223.3" font-family="Times,serif" font-size="14.00">set_comment</text>
<text text-anchor="start" x="708" y="-208.3" font-family="Times,serif" font-size="14.00">set_parent</text>
</g>
<!-- DashboardController -->
<g id="node8" class="node">
<title>DashboardController</title>
<path fill="none" stroke="black" d="M1172,-20.5C1172,-20.5 1279,-20.5 1279,-20.5 1285,-20.5 1291,-26.5 1291,-32.5 1291,-32.5 1291,-146.5 1291,-146.5 1291,-152.5 1285,-158.5 1279,-158.5 1279,-158.5 1172,-158.5 1172,-158.5 1166,-158.5 1160,-152.5 1160,-146.5 1160,-146.5 1160,-32.5 1160,-32.5 1160,-26.5 1166,-20.5 1172,-20.5"/>
<text text-anchor="middle" x="1225.5" y="-143.3" font-family="Times,serif" font-size="14.00">DashboardController</text>
<polyline fill="none" stroke="black" points="1160,-135.5 1291,-135.5 "/>
<text text-anchor="start" x="1168" y="-120.3" font-family="Times,serif" font-size="14.00">admin</text>
<text text-anchor="start" x="1168" y="-105.3" font-family="Times,serif" font-size="14.00">index</text>
<text text-anchor="start" x="1168" y="-90.3" font-family="Times,serif" font-size="14.00">subscribers</text>
<polyline fill="none" stroke="black" points="1160,-82.5 1291,-82.5 "/>
<polyline fill="none" stroke="black" points="1160,-58.5 1291,-58.5 "/>
<text text-anchor="start" x="1168" y="-43.3" font-family="Times,serif" font-size="14.00">_layout</text>
<text text-anchor="start" x="1168" y="-28.3" font-family="Times,serif" font-size="14.00">_layout_from_proc</text>
</g>
<!-- Devise::Passwordless::MagicLinksController -->
<g id="node9" class="node">
<title>Devise::Passwordless::MagicLinksController</title>
<path fill="none" stroke="black" d="M932,-860.5C932,-860.5 1171,-860.5 1171,-860.5 1177,-860.5 1183,-866.5 1183,-872.5 1183,-872.5 1183,-985.5 1183,-985.5 1183,-991.5 1177,-997.5 1171,-997.5 1171,-997.5 932,-997.5 932,-997.5 926,-997.5 920,-991.5 920,-985.5 920,-985.5 920,-872.5 920,-872.5 920,-866.5 926,-860.5 932,-860.5"/>
<text text-anchor="middle" x="1051.5" y="-982.3" font-family="Times,serif" font-size="14.00">Devise::Passwordless::MagicLinksController</text>
<polyline fill="none" stroke="black" points="920,-974.5 1183,-974.5 "/>
<text text-anchor="start" x="928" y="-959.3" font-family="Times,serif" font-size="14.00">show</text>
<polyline fill="none" stroke="black" points="920,-951.5 1183,-951.5 "/>
<text text-anchor="start" x="928" y="-936.3" font-family="Times,serif" font-size="14.00">auth_options</text>
<text text-anchor="start" x="928" y="-921.3" font-family="Times,serif" font-size="14.00">translation_scope</text>
<polyline fill="none" stroke="black" points="920,-913.5 1183,-913.5 "/>
<text text-anchor="start" x="928" y="-898.3" font-family="Times,serif" font-size="14.00">_layout</text>
<text text-anchor="start" x="928" y="-883.3" font-family="Times,serif" font-size="14.00">_layout_from_proc</text>
<text text-anchor="start" x="928" y="-868.3" font-family="Times,serif" font-size="14.00">create_params</text>
</g>
<!-- Devise::Passwordless::SessionsController -->
<g id="node10" class="node">
<title>Devise::Passwordless::SessionsController</title>
<path fill="none" stroke="black" d="M892,-120.5C892,-120.5 1111,-120.5 1111,-120.5 1117,-120.5 1123,-126.5 1123,-132.5 1123,-132.5 1123,-230.5 1123,-230.5 1123,-236.5 1117,-242.5 1111,-242.5 1111,-242.5 892,-242.5 892,-242.5 886,-242.5 880,-236.5 880,-230.5 880,-230.5 880,-132.5 880,-132.5 880,-126.5 886,-120.5 892,-120.5"/>
<text text-anchor="middle" x="1001.5" y="-227.3" font-family="Times,serif" font-size="14.00">Devise::Passwordless::SessionsController</text>
<polyline fill="none" stroke="black" points="880,-219.5 1123,-219.5 "/>
<text text-anchor="start" x="888" y="-204.3" font-family="Times,serif" font-size="14.00">create</text>
<polyline fill="none" stroke="black" points="880,-196.5 1123,-196.5 "/>
<text text-anchor="start" x="888" y="-181.3" font-family="Times,serif" font-size="14.00">translation_scope</text>
<polyline fill="none" stroke="black" points="880,-173.5 1123,-173.5 "/>
<text text-anchor="start" x="888" y="-158.3" font-family="Times,serif" font-size="14.00">_layout</text>
<text text-anchor="start" x="888" y="-143.3" font-family="Times,serif" font-size="14.00">_layout_from_proc</text>
<text text-anchor="start" x="888" y="-128.3" font-family="Times,serif" font-size="14.00">create_params</text>
</g>
<!-- ErrorsController -->
<g id="node11" class="node">
<title>ErrorsController</title>
<path fill="none" stroke="black" d="M12,-580.5C12,-580.5 110,-580.5 110,-580.5 116,-580.5 122,-586.5 122,-592.5 122,-592.5 122,-691.5 122,-691.5 122,-697.5 116,-703.5 110,-703.5 110,-703.5 12,-703.5 12,-703.5 6,-703.5 0,-697.5 0,-691.5 0,-691.5 0,-592.5 0,-592.5 0,-586.5 6,-580.5 12,-580.5"/>
<text text-anchor="middle" x="61" y="-688.3" font-family="Times,serif" font-size="14.00">ErrorsController</text>
<polyline fill="none" stroke="black" points="0,-680.5 122,-680.5 "/>
<text text-anchor="start" x="8" y="-665.3" font-family="Times,serif" font-size="14.00">index</text>
<text text-anchor="start" x="8" y="-650.3" font-family="Times,serif" font-size="14.00">not_found</text>
<polyline fill="none" stroke="black" points="0,-642.5 122,-642.5 "/>
<polyline fill="none" stroke="black" points="0,-618.5 122,-618.5 "/>
<text text-anchor="start" x="8" y="-603.3" font-family="Times,serif" font-size="14.00">_layout</text>
<text text-anchor="start" x="8" y="-588.3" font-family="Times,serif" font-size="14.00">_layout_from_proc</text>
</g>
<!-- LandingController -->
<g id="node12" class="node">
<title>LandingController</title>
<path fill="none" stroke="black" d="M352,-0.5C352,-0.5 450,-0.5 450,-0.5 456,-0.5 462,-6.5 462,-12.5 462,-12.5 462,-111.5 462,-111.5 462,-117.5 456,-123.5 450,-123.5 450,-123.5 352,-123.5 352,-123.5 346,-123.5 340,-117.5 340,-111.5 340,-111.5 340,-12.5 340,-12.5 340,-6.5 346,-0.5 352,-0.5"/>
<text text-anchor="middle" x="401" y="-108.3" font-family="Times,serif" font-size="14.00">LandingController</text>
<polyline fill="none" stroke="black" points="340,-100.5 462,-100.5 "/>
<text text-anchor="start" x="348" y="-85.3" font-family="Times,serif" font-size="14.00">index</text>
<text text-anchor="start" x="348" y="-70.3" font-family="Times,serif" font-size="14.00">show</text>
<polyline fill="none" stroke="black" points="340,-62.5 462,-62.5 "/>
<polyline fill="none" stroke="black" points="340,-38.5 462,-38.5 "/>
<text text-anchor="start" x="348" y="-23.3" font-family="Times,serif" font-size="14.00">_layout</text>
<text text-anchor="start" x="348" y="-8.3" font-family="Times,serif" font-size="14.00">_layout_from_proc</text>
</g>
<!-- LinksController -->
<g id="node13" class="node">
<title>LinksController</title>
<path fill="none" stroke="black" d="M172,-580.5C172,-580.5 270,-580.5 270,-580.5 276,-580.5 282,-586.5 282,-592.5 282,-592.5 282,-796.5 282,-796.5 282,-802.5 276,-808.5 270,-808.5 270,-808.5 172,-808.5 172,-808.5 166,-808.5 160,-802.5 160,-796.5 160,-796.5 160,-592.5 160,-592.5 160,-586.5 166,-580.5 172,-580.5"/>
<text text-anchor="middle" x="221" y="-793.3" font-family="Times,serif" font-size="14.00">LinksController</text>
<polyline fill="none" stroke="black" points="160,-785.5 282,-785.5 "/>
<text text-anchor="start" x="168" y="-770.3" font-family="Times,serif" font-size="14.00">create</text>
<text text-anchor="start" x="168" y="-755.3" font-family="Times,serif" font-size="14.00">destroy</text>
<text text-anchor="start" x="168" y="-740.3" font-family="Times,serif" font-size="14.00">edit</text>
<text text-anchor="start" x="168" y="-725.3" font-family="Times,serif" font-size="14.00">index</text>
<text text-anchor="start" x="168" y="-710.3" font-family="Times,serif" font-size="14.00">new</text>
<text text-anchor="start" x="168" y="-695.3" font-family="Times,serif" font-size="14.00">show</text>
<text text-anchor="start" x="168" y="-680.3" font-family="Times,serif" font-size="14.00">update</text>
<polyline fill="none" stroke="black" points="160,-672.5 282,-672.5 "/>
<polyline fill="none" stroke="black" points="160,-648.5 282,-648.5 "/>
<text text-anchor="start" x="168" y="-633.3" font-family="Times,serif" font-size="14.00">_layout</text>
<text text-anchor="start" x="168" y="-618.3" font-family="Times,serif" font-size="14.00">_layout_from_proc</text>
<text text-anchor="start" x="168" y="-603.3" font-family="Times,serif" font-size="14.00">link_params</text>
<text text-anchor="start" x="168" y="-588.3" font-family="Times,serif" font-size="14.00">set_link</text>
</g>
<!-- PagesController -->
<g id="node14" class="node">
<title>PagesController</title>
<path fill="none" stroke="black" d="M172,-1020.5C172,-1020.5 270,-1020.5 270,-1020.5 276,-1020.5 282,-1026.5 282,-1032.5 282,-1032.5 282,-1236.5 282,-1236.5 282,-1242.5 276,-1248.5 270,-1248.5 270,-1248.5 172,-1248.5 172,-1248.5 166,-1248.5 160,-1242.5 160,-1236.5 160,-1236.5 160,-1032.5 160,-1032.5 160,-1026.5 166,-1020.5 172,-1020.5"/>
<text text-anchor="middle" x="221" y="-1233.3" font-family="Times,serif" font-size="14.00">PagesController</text>
<polyline fill="none" stroke="black" points="160,-1225.5 282,-1225.5 "/>
<text text-anchor="start" x="168" y="-1210.3" font-family="Times,serif" font-size="14.00">create</text>
<text text-anchor="start" x="168" y="-1195.3" font-family="Times,serif" font-size="14.00">destroy</text>
<text text-anchor="start" x="168" y="-1180.3" font-family="Times,serif" font-size="14.00">edit</text>
<text text-anchor="start" x="168" y="-1165.3" font-family="Times,serif" font-size="14.00">index</text>
<text text-anchor="start" x="168" y="-1150.3" font-family="Times,serif" font-size="14.00">new</text>
<text text-anchor="start" x="168" y="-1135.3" font-family="Times,serif" font-size="14.00">show</text>
<text text-anchor="start" x="168" y="-1120.3" font-family="Times,serif" font-size="14.00">update</text>
<polyline fill="none" stroke="black" points="160,-1112.5 282,-1112.5 "/>
<polyline fill="none" stroke="black" points="160,-1088.5 282,-1088.5 "/>
<text text-anchor="start" x="168" y="-1073.3" font-family="Times,serif" font-size="14.00">_layout</text>
<text text-anchor="start" x="168" y="-1058.3" font-family="Times,serif" font-size="14.00">_layout_from_proc</text>
<text text-anchor="start" x="168" y="-1043.3" font-family="Times,serif" font-size="14.00">page_params</text>
<text text-anchor="start" x="168" y="-1028.3" font-family="Times,serif" font-size="14.00">set_page</text>
</g>
<!-- PostsController -->
<g id="node15" class="node">
<title>PostsController</title>
<path fill="none" stroke="black" d="M772,-740.5C772,-740.5 870,-740.5 870,-740.5 876,-740.5 882,-746.5 882,-752.5 882,-752.5 882,-1001.5 882,-1001.5 882,-1007.5 876,-1013.5 870,-1013.5 870,-1013.5 772,-1013.5 772,-1013.5 766,-1013.5 760,-1007.5 760,-1001.5 760,-1001.5 760,-752.5 760,-752.5 760,-746.5 766,-740.5 772,-740.5"/>
<text text-anchor="middle" x="821" y="-998.3" font-family="Times,serif" font-size="14.00">PostsController</text>
<polyline fill="none" stroke="black" points="760,-990.5 882,-990.5 "/>
<text text-anchor="start" x="768" y="-975.3" font-family="Times,serif" font-size="14.00">update</text>
<text text-anchor="start" x="768" y="-960.3" font-family="Times,serif" font-size="14.00">broadcast</text>
<text text-anchor="start" x="768" y="-945.3" font-family="Times,serif" font-size="14.00">create</text>
<text text-anchor="start" x="768" y="-930.3" font-family="Times,serif" font-size="14.00">destroy</text>
<text text-anchor="start" x="768" y="-915.3" font-family="Times,serif" font-size="14.00">edit</text>
<text text-anchor="start" x="768" y="-900.3" font-family="Times,serif" font-size="14.00">index</text>
<text text-anchor="start" x="768" y="-885.3" font-family="Times,serif" font-size="14.00">new</text>
<text text-anchor="start" x="768" y="-870.3" font-family="Times,serif" font-size="14.00">publish</text>
<text text-anchor="start" x="768" y="-855.3" font-family="Times,serif" font-size="14.00">show</text>
<text text-anchor="start" x="768" y="-840.3" font-family="Times,serif" font-size="14.00">admin</text>
<polyline fill="none" stroke="black" points="760,-832.5 882,-832.5 "/>
<polyline fill="none" stroke="black" points="760,-808.5 882,-808.5 "/>
<text text-anchor="start" x="768" y="-793.3" font-family="Times,serif" font-size="14.00">_layout</text>
<text text-anchor="start" x="768" y="-778.3" font-family="Times,serif" font-size="14.00">_layout_from_proc</text>
<text text-anchor="start" x="768" y="-763.3" font-family="Times,serif" font-size="14.00">post_params</text>
<text text-anchor="start" x="768" y="-748.3" font-family="Times,serif" font-size="14.00">set_post</text>
</g>
<!-- PraisesController -->
<g id="node16" class="node">
<title>PraisesController</title>
<path fill="none" stroke="black" d="M1072,-1040.5C1072,-1040.5 1170,-1040.5 1170,-1040.5 1176,-1040.5 1182,-1046.5 1182,-1052.5 1182,-1052.5 1182,-1271.5 1182,-1271.5 1182,-1277.5 1176,-1283.5 1170,-1283.5 1170,-1283.5 1072,-1283.5 1072,-1283.5 1066,-1283.5 1060,-1277.5 1060,-1271.5 1060,-1271.5 1060,-1052.5 1060,-1052.5 1060,-1046.5 1066,-1040.5 1072,-1040.5"/>
<text text-anchor="middle" x="1121" y="-1268.3" font-family="Times,serif" font-size="14.00">PraisesController</text>
<polyline fill="none" stroke="black" points="1060,-1260.5 1182,-1260.5 "/>
<text text-anchor="start" x="1068" y="-1245.3" font-family="Times,serif" font-size="14.00">create</text>
<text text-anchor="start" x="1068" y="-1230.3" font-family="Times,serif" font-size="14.00">destroy</text>
<text text-anchor="start" x="1068" y="-1215.3" font-family="Times,serif" font-size="14.00">edit</text>
<text text-anchor="start" x="1068" y="-1200.3" font-family="Times,serif" font-size="14.00">index</text>
<text text-anchor="start" x="1068" y="-1185.3" font-family="Times,serif" font-size="14.00">new</text>
<text text-anchor="start" x="1068" y="-1170.3" font-family="Times,serif" font-size="14.00">show</text>
<text text-anchor="start" x="1068" y="-1155.3" font-family="Times,serif" font-size="14.00">update</text>
<polyline fill="none" stroke="black" points="1060,-1147.5 1182,-1147.5 "/>
<polyline fill="none" stroke="black" points="1060,-1123.5 1182,-1123.5 "/>
<text text-anchor="start" x="1068" y="-1108.3" font-family="Times,serif" font-size="14.00">_layout</text>
<text text-anchor="start" x="1068" y="-1093.3" font-family="Times,serif" font-size="14.00">_layout_from_proc</text>
<text text-anchor="start" x="1068" y="-1078.3" font-family="Times,serif" font-size="14.00">praise_params</text>
<text text-anchor="start" x="1068" y="-1063.3" font-family="Times,serif" font-size="14.00">set_book</text>
<text text-anchor="start" x="1068" y="-1048.3" font-family="Times,serif" font-size="14.00">set_praise</text>
</g>
<!-- SeriesController -->
<g id="node17" class="node">
<title>SeriesController</title>
<path fill="none" stroke="black" d="M1092,-280.5C1092,-280.5 1190,-280.5 1190,-280.5 1196,-280.5 1202,-286.5 1202,-292.5 1202,-292.5 1202,-496.5 1202,-496.5 1202,-502.5 1196,-508.5 1190,-508.5 1190,-508.5 1092,-508.5 1092,-508.5 1086,-508.5 1080,-502.5 1080,-496.5 1080,-496.5 1080,-292.5 1080,-292.5 1080,-286.5 1086,-280.5 1092,-280.5"/>
<text text-anchor="middle" x="1141" y="-493.3" font-family="Times,serif" font-size="14.00">SeriesController</text>
<polyline fill="none" stroke="black" points="1080,-485.5 1202,-485.5 "/>
<text text-anchor="start" x="1088" y="-470.3" font-family="Times,serif" font-size="14.00">create</text>
<text text-anchor="start" x="1088" y="-455.3" font-family="Times,serif" font-size="14.00">destroy</text>
<text text-anchor="start" x="1088" y="-440.3" font-family="Times,serif" font-size="14.00">edit</text>
<text text-anchor="start" x="1088" y="-425.3" font-family="Times,serif" font-size="14.00">index</text>
<text text-anchor="start" x="1088" y="-410.3" font-family="Times,serif" font-size="14.00">new</text>
<text text-anchor="start" x="1088" y="-395.3" font-family="Times,serif" font-size="14.00">show</text>
<text text-anchor="start" x="1088" y="-380.3" font-family="Times,serif" font-size="14.00">update</text>
<polyline fill="none" stroke="black" points="1080,-372.5 1202,-372.5 "/>
<polyline fill="none" stroke="black" points="1080,-348.5 1202,-348.5 "/>
<text text-anchor="start" x="1088" y="-333.3" font-family="Times,serif" font-size="14.00">_layout</text>
<text text-anchor="start" x="1088" y="-318.3" font-family="Times,serif" font-size="14.00">_layout_from_proc</text>
<text text-anchor="start" x="1088" y="-303.3" font-family="Times,serif" font-size="14.00">series_params</text>
<text text-anchor="start" x="1088" y="-288.3" font-family="Times,serif" font-size="14.00">set_series</text>
</g>
<!-- SubscriptionsController -->
<g id="node18" class="node">
<title>SubscriptionsController</title>
<path fill="none" stroke="black" d="M1092,-540.5C1092,-540.5 1214,-540.5 1214,-540.5 1220,-540.5 1226,-546.5 1226,-552.5 1226,-552.5 1226,-726.5 1226,-726.5 1226,-732.5 1220,-738.5 1214,-738.5 1214,-738.5 1092,-738.5 1092,-738.5 1086,-738.5 1080,-732.5 1080,-726.5 1080,-726.5 1080,-552.5 1080,-552.5 1080,-546.5 1086,-540.5 1092,-540.5"/>
<text text-anchor="middle" x="1153" y="-723.3" font-family="Times,serif" font-size="14.00">SubscriptionsController</text>
<polyline fill="none" stroke="black" points="1080,-715.5 1226,-715.5 "/>
<text text-anchor="start" x="1088" y="-700.3" font-family="Times,serif" font-size="14.00">index</text>
<text text-anchor="start" x="1088" y="-685.3" font-family="Times,serif" font-size="14.00">subscribers</text>
<text text-anchor="start" x="1088" y="-670.3" font-family="Times,serif" font-size="14.00">unsub_books</text>
<text text-anchor="start" x="1088" y="-655.3" font-family="Times,serif" font-size="14.00">unsub_posts</text>
<text text-anchor="start" x="1088" y="-640.3" font-family="Times,serif" font-size="14.00">update</text>
<polyline fill="none" stroke="black" points="1080,-632.5 1226,-632.5 "/>
<polyline fill="none" stroke="black" points="1080,-608.5 1226,-608.5 "/>
<text text-anchor="start" x="1088" y="-593.3" font-family="Times,serif" font-size="14.00">_layout</text>
<text text-anchor="start" x="1088" y="-578.3" font-family="Times,serif" font-size="14.00">_layout_from_proc</text>
<text text-anchor="start" x="1088" y="-563.3" font-family="Times,serif" font-size="14.00">set_subscription</text>
<text text-anchor="start" x="1088" y="-548.3" font-family="Times,serif" font-size="14.00">subscription_params</text>
</g>
<!-- TodolistsController -->
<g id="node19" class="node">
<title>TodolistsController</title>
<path fill="none" stroke="black" d="M612,-960.5C612,-960.5 710,-960.5 710,-960.5 716,-960.5 722,-966.5 722,-972.5 722,-972.5 722,-1191.5 722,-1191.5 722,-1197.5 716,-1203.5 710,-1203.5 710,-1203.5 612,-1203.5 612,-1203.5 606,-1203.5 600,-1197.5 600,-1191.5 600,-1191.5 600,-972.5 600,-972.5 600,-966.5 606,-960.5 612,-960.5"/>
<text text-anchor="middle" x="661" y="-1188.3" font-family="Times,serif" font-size="14.00">TodolistsController</text>
<polyline fill="none" stroke="black" points="600,-1180.5 722,-1180.5 "/>
<text text-anchor="start" x="608" y="-1165.3" font-family="Times,serif" font-size="14.00">create</text>
<text text-anchor="start" x="608" y="-1150.3" font-family="Times,serif" font-size="14.00">destroy</text>
<text text-anchor="start" x="608" y="-1135.3" font-family="Times,serif" font-size="14.00">edit</text>
<text text-anchor="start" x="608" y="-1120.3" font-family="Times,serif" font-size="14.00">index</text>
<text text-anchor="start" x="608" y="-1105.3" font-family="Times,serif" font-size="14.00">new</text>
<text text-anchor="start" x="608" y="-1090.3" font-family="Times,serif" font-size="14.00">show</text>
<text text-anchor="start" x="608" y="-1075.3" font-family="Times,serif" font-size="14.00">update</text>
<polyline fill="none" stroke="black" points="600,-1067.5 722,-1067.5 "/>
<polyline fill="none" stroke="black" points="600,-1043.5 722,-1043.5 "/>
<text text-anchor="start" x="608" y="-1028.3" font-family="Times,serif" font-size="14.00">_layout</text>
<text text-anchor="start" x="608" y="-1013.3" font-family="Times,serif" font-size="14.00">_layout_from_proc</text>
<text text-anchor="start" x="608" y="-998.3" font-family="Times,serif" font-size="14.00">set_parent</text>
<text text-anchor="start" x="608" y="-983.3" font-family="Times,serif" font-size="14.00">set_todolist</text>
<text text-anchor="start" x="608" y="-968.3" font-family="Times,serif" font-size="14.00">todolist_params</text>
</g>
<!-- TodosController -->
<g id="node20" class="node">
<title>TodosController</title>
<path fill="none" stroke="black" d="M932,-540.5C932,-540.5 1030,-540.5 1030,-540.5 1036,-540.5 1042,-546.5 1042,-552.5 1042,-552.5 1042,-801.5 1042,-801.5 1042,-807.5 1036,-813.5 1030,-813.5 1030,-813.5 932,-813.5 932,-813.5 926,-813.5 920,-807.5 920,-801.5 920,-801.5 920,-552.5 920,-552.5 920,-546.5 926,-540.5 932,-540.5"/>
<text text-anchor="middle" x="981" y="-798.3" font-family="Times,serif" font-size="14.00">TodosController</text>
<polyline fill="none" stroke="black" points="920,-790.5 1042,-790.5 "/>
<text text-anchor="start" x="928" y="-775.3" font-family="Times,serif" font-size="14.00">update</text>
<text text-anchor="start" x="928" y="-760.3" font-family="Times,serif" font-size="14.00">create</text>
<text text-anchor="start" x="928" y="-745.3" font-family="Times,serif" font-size="14.00">destroy</text>
<text text-anchor="start" x="928" y="-730.3" font-family="Times,serif" font-size="14.00">edit</text>
<text text-anchor="start" x="928" y="-715.3" font-family="Times,serif" font-size="14.00">index</text>
<text text-anchor="start" x="928" y="-700.3" font-family="Times,serif" font-size="14.00">new</text>
<text text-anchor="start" x="928" y="-685.3" font-family="Times,serif" font-size="14.00">show</text>
<text text-anchor="start" x="928" y="-670.3" font-family="Times,serif" font-size="14.00">toolbar</text>
<text text-anchor="start" x="928" y="-655.3" font-family="Times,serif" font-size="14.00">complete</text>
<polyline fill="none" stroke="black" points="920,-647.5 1042,-647.5 "/>
<polyline fill="none" stroke="black" points="920,-623.5 1042,-623.5 "/>
<text text-anchor="start" x="928" y="-608.3" font-family="Times,serif" font-size="14.00">_layout</text>
<text text-anchor="start" x="928" y="-593.3" font-family="Times,serif" font-size="14.00">_layout_from_proc</text>
<text text-anchor="start" x="928" y="-578.3" font-family="Times,serif" font-size="14.00">set_todo</text>
<text text-anchor="start" x="928" y="-563.3" font-family="Times,serif" font-size="14.00">set_todolist</text>
<text text-anchor="start" x="928" y="-548.3" font-family="Times,serif" font-size="14.00">todo_params</text>
</g>
<!-- Users::ConfirmationsController -->
<g id="node21" class="node">
<title>Users::ConfirmationsController</title>
<path fill="none" stroke="black" d="M132,-100.5C132,-100.5 297,-100.5 297,-100.5 303,-100.5 309,-106.5 309,-112.5 309,-112.5 309,-195.5 309,-195.5 309,-201.5 303,-207.5 297,-207.5 297,-207.5 132,-207.5 132,-207.5 126,-207.5 120,-201.5 120,-195.5 120,-195.5 120,-112.5 120,-112.5 120,-106.5 126,-100.5 132,-100.5"/>
<text text-anchor="middle" x="214.5" y="-192.3" font-family="Times,serif" font-size="14.00">Users::ConfirmationsController</text>
<polyline fill="none" stroke="black" points="120,-184.5 309,-184.5 "/>
<text text-anchor="start" x="128" y="-169.3" font-family="Times,serif" font-size="14.00">show</text>
<polyline fill="none" stroke="black" points="120,-161.5 309,-161.5 "/>
<text text-anchor="start" x="128" y="-146.3" font-family="Times,serif" font-size="14.00">after_confirmation_path_for</text>
<polyline fill="none" stroke="black" points="120,-138.5 309,-138.5 "/>
<text text-anchor="start" x="128" y="-123.3" font-family="Times,serif" font-size="14.00">_layout</text>
<text text-anchor="start" x="128" y="-108.3" font-family="Times,serif" font-size="14.00">_layout_from_proc</text>
</g>
<!-- Users::OmniauthCallbacksController -->
<g id="node22" class="node">
<title>Users::OmniauthCallbacksController</title>
<path fill="none" stroke="black" d="M812,-1060.5C812,-1060.5 1006,-1060.5 1006,-1060.5 1012,-1060.5 1018,-1066.5 1018,-1072.5 1018,-1072.5 1018,-1157.5 1018,-1157.5 1018,-1163.5 1012,-1169.5 1006,-1169.5 1006,-1169.5 812,-1169.5 812,-1169.5 806,-1169.5 800,-1163.5 800,-1157.5 800,-1157.5 800,-1072.5 800,-1072.5 800,-1066.5 806,-1060.5 812,-1060.5"/>
<text text-anchor="middle" x="909" y="-1154.3" font-family="Times,serif" font-size="14.00">Users::OmniauthCallbacksController</text>
<polyline fill="none" stroke="black" points="800,-1146.5 1018,-1146.5 "/>
<polyline fill="none" stroke="black" points="800,-1122.5 1018,-1122.5 "/>
<polyline fill="none" stroke="black" points="800,-1098.5 1018,-1098.5 "/>
<text text-anchor="start" x="808" y="-1083.3" font-family="Times,serif" font-size="14.00">_layout</text>
<text text-anchor="start" x="808" y="-1068.3" font-family="Times,serif" font-size="14.00">_layout_from_proc</text>
</g>
<!-- Users::PasswordsController -->
<g id="node23" class="node">
<title>Users::PasswordsController</title>
<path fill="none" stroke="black" d="M132,-880.5C132,-880.5 275,-880.5 275,-880.5 281,-880.5 287,-886.5 287,-892.5 287,-892.5 287,-977.5 287,-977.5 287,-983.5 281,-989.5 275,-989.5 275,-989.5 132,-989.5 132,-989.5 126,-989.5 120,-983.5 120,-977.5 120,-977.5 120,-892.5 120,-892.5 120,-886.5 126,-880.5 132,-880.5"/>
<text text-anchor="middle" x="203.5" y="-974.3" font-family="Times,serif" font-size="14.00">Users::PasswordsController</text>
<polyline fill="none" stroke="black" points="120,-966.5 287,-966.5 "/>
<polyline fill="none" stroke="black" points="120,-942.5 287,-942.5 "/>
<polyline fill="none" stroke="black" points="120,-918.5 287,-918.5 "/>
<text text-anchor="start" x="128" y="-903.3" font-family="Times,serif" font-size="14.00">_layout</text>
<text text-anchor="start" x="128" y="-888.3" font-family="Times,serif" font-size="14.00">_layout_from_proc</text>
</g>
<!-- Users::RegistrationsController -->
<g id="node24" class="node">
<title>Users::RegistrationsController</title>
<path fill="none" stroke="black" d="M532,-760.5C532,-760.5 714,-760.5 714,-760.5 720,-760.5 726,-766.5 726,-772.5 726,-772.5 726,-915.5 726,-915.5 726,-921.5 720,-927.5 714,-927.5 714,-927.5 532,-927.5 532,-927.5 526,-927.5 520,-921.5 520,-915.5 520,-915.5 520,-772.5 520,-772.5 520,-766.5 526,-760.5 532,-760.5"/>
<text text-anchor="middle" x="623" y="-912.3" font-family="Times,serif" font-size="14.00">Users::RegistrationsController</text>
<polyline fill="none" stroke="black" points="520,-904.5 726,-904.5 "/>
<text text-anchor="start" x="528" y="-889.3" font-family="Times,serif" font-size="14.00">create</text>
<polyline fill="none" stroke="black" points="520,-881.5 726,-881.5 "/>
<text text-anchor="start" x="528" y="-866.3" font-family="Times,serif" font-size="14.00">after_inactive_sign_up_path_for</text>
<text text-anchor="start" x="528" y="-851.3" font-family="Times,serif" font-size="14.00">after_sign_up_path_for</text>
<text text-anchor="start" x="528" y="-836.3" font-family="Times,serif" font-size="14.00">configure_account_update_params</text>
<text text-anchor="start" x="528" y="-821.3" font-family="Times,serif" font-size="14.00">set_store_location_for</text>
<text text-anchor="start" x="528" y="-806.3" font-family="Times,serif" font-size="14.00">update_resource</text>
<polyline fill="none" stroke="black" points="520,-798.5 726,-798.5 "/>
<text text-anchor="start" x="528" y="-783.3" font-family="Times,serif" font-size="14.00">_layout</text>
<text text-anchor="start" x="528" y="-768.3" font-family="Times,serif" font-size="14.00">_layout_from_proc</text>
</g>
<!-- Users::SessionsController -->
<g id="node25" class="node">
<title>Users::SessionsController</title>
<path fill="none" stroke="black" d="M72,-380.5C72,-380.5 205,-380.5 205,-380.5 211,-380.5 217,-386.5 217,-392.5 217,-392.5 217,-535.5 217,-535.5 217,-541.5 211,-547.5 205,-547.5 205,-547.5 72,-547.5 72,-547.5 66,-547.5 60,-541.5 60,-535.5 60,-535.5 60,-392.5 60,-392.5 60,-386.5 66,-380.5 72,-380.5"/>
<text text-anchor="middle" x="138.5" y="-532.3" font-family="Times,serif" font-size="14.00">Users::SessionsController</text>
<polyline fill="none" stroke="black" points="60,-524.5 217,-524.5 "/>
<text text-anchor="start" x="68" y="-509.3" font-family="Times,serif" font-size="14.00">authenticate_token</text>
<text text-anchor="start" x="68" y="-494.3" font-family="Times,serif" font-size="14.00">destroy</text>
<text text-anchor="start" x="68" y="-479.3" font-family="Times,serif" font-size="14.00">email_confirmed</text>
<text text-anchor="start" x="68" y="-464.3" font-family="Times,serif" font-size="14.00">new</text>
<polyline fill="none" stroke="black" points="60,-456.5 217,-456.5 "/>
<text text-anchor="start" x="68" y="-441.3" font-family="Times,serif" font-size="14.00">delete_pre_signin_cookie</text>
<text text-anchor="start" x="68" y="-426.3" font-family="Times,serif" font-size="14.00">pre_signin_url</text>
<polyline fill="none" stroke="black" points="60,-418.5 217,-418.5 "/>
<text text-anchor="start" x="68" y="-403.3" font-family="Times,serif" font-size="14.00">_layout</text>
<text text-anchor="start" x="68" y="-388.3" font-family="Times,serif" font-size="14.00">_layout_from_proc</text>
</g>
<!-- Users::UnlocksController -->
<g id="node26" class="node">
<title>Users::UnlocksController</title>
<path fill="none" stroke="black" d="M72,-240.5C72,-240.5 203,-240.5 203,-240.5 209,-240.5 215,-246.5 215,-252.5 215,-252.5 215,-337.5 215,-337.5 215,-343.5 209,-349.5 203,-349.5 203,-349.5 72,-349.5 72,-349.5 66,-349.5 60,-343.5 60,-337.5 60,-337.5 60,-252.5 60,-252.5 60,-246.5 66,-240.5 72,-240.5"/>
<text text-anchor="middle" x="137.5" y="-334.3" font-family="Times,serif" font-size="14.00">Users::UnlocksController</text>
<polyline fill="none" stroke="black" points="60,-326.5 215,-326.5 "/>
<polyline fill="none" stroke="black" points="60,-302.5 215,-302.5 "/>
<polyline fill="none" stroke="black" points="60,-278.5 215,-278.5 "/>
<text text-anchor="start" x="68" y="-263.3" font-family="Times,serif" font-size="14.00">_layout</text>
<text text-anchor="start" x="68" y="-248.3" font-family="Times,serif" font-size="14.00">_layout_from_proc</text>
</g>
<!-- UsersController -->
<g id="node27" class="node">
<title>UsersController</title>
<path fill="none" stroke="black" d="M452,-1140.5C452,-1140.5 550,-1140.5 550,-1140.5 556,-1140.5 562,-1146.5 562,-1152.5 562,-1152.5 562,-1266.5 562,-1266.5 562,-1272.5 556,-1278.5 550,-1278.5 550,-1278.5 452,-1278.5 452,-1278.5 446,-1278.5 440,-1272.5 440,-1266.5 440,-1266.5 440,-1152.5 440,-1152.5 440,-1146.5 446,-1140.5 452,-1140.5"/>
<text text-anchor="middle" x="501" y="-1263.3" font-family="Times,serif" font-size="14.00">UsersController</text>
<polyline fill="none" stroke="black" points="440,-1255.5 562,-1255.5 "/>
<text text-anchor="start" x="448" y="-1240.3" font-family="Times,serif" font-size="14.00">all</text>
<text text-anchor="start" x="448" y="-1225.3" font-family="Times,serif" font-size="14.00">me</text>
<text text-anchor="start" x="448" y="-1210.3" font-family="Times,serif" font-size="14.00">show</text>
<polyline fill="none" stroke="black" points="440,-1202.5 562,-1202.5 "/>
<polyline fill="none" stroke="black" points="440,-1178.5 562,-1178.5 "/>
<text text-anchor="start" x="448" y="-1163.3" font-family="Times,serif" font-size="14.00">_layout</text>
<text text-anchor="start" x="448" y="-1148.3" font-family="Times,serif" font-size="14.00">_layout_from_proc</text>
</g>
<!-- WritingEntriesController -->
<g id="node28" class="node">
<title>WritingEntriesController</title>
<path fill="none" stroke="black" d="M332,-860.5C332,-860.5 460,-860.5 460,-860.5 466,-860.5 472,-866.5 472,-872.5 472,-872.5 472,-1091.5 472,-1091.5 472,-1097.5 466,-1103.5 460,-1103.5 460,-1103.5 332,-1103.5 332,-1103.5 326,-1103.5 320,-1097.5 320,-1091.5 320,-1091.5 320,-872.5 320,-872.5 320,-866.5 326,-860.5 332,-860.5"/>
<text text-anchor="middle" x="396" y="-1088.3" font-family="Times,serif" font-size="14.00">WritingEntriesController</text>
<polyline fill="none" stroke="black" points="320,-1080.5 472,-1080.5 "/>
<text text-anchor="start" x="328" y="-1065.3" font-family="Times,serif" font-size="14.00">create</text>
<text text-anchor="start" x="328" y="-1050.3" font-family="Times,serif" font-size="14.00">destroy</text>
<text text-anchor="start" x="328" y="-1035.3" font-family="Times,serif" font-size="14.00">edit</text>
<text text-anchor="start" x="328" y="-1020.3" font-family="Times,serif" font-size="14.00">index</text>
<text text-anchor="start" x="328" y="-1005.3" font-family="Times,serif" font-size="14.00">new</text>
<text text-anchor="start" x="328" y="-990.3" font-family="Times,serif" font-size="14.00">show</text>
<text text-anchor="start" x="328" y="-975.3" font-family="Times,serif" font-size="14.00">update</text>
<polyline fill="none" stroke="black" points="320,-967.5 472,-967.5 "/>
<polyline fill="none" stroke="black" points="320,-943.5 472,-943.5 "/>
<text text-anchor="start" x="328" y="-928.3" font-family="Times,serif" font-size="14.00">_layout</text>
<text text-anchor="start" x="328" y="-913.3" font-family="Times,serif" font-size="14.00">_layout_from_proc</text>
<text text-anchor="start" x="328" y="-898.3" font-family="Times,serif" font-size="14.00">set_writing_entry</text>
<text text-anchor="start" x="328" y="-883.3" font-family="Times,serif" font-size="14.00">set_writing_goal</text>
<text text-anchor="start" x="328" y="-868.3" font-family="Times,serif" font-size="14.00">writing_entry_params</text>
</g>
<!-- WritingGoalsController -->
<g id="node29" class="node">
<title>WritingGoalsController</title>
<path fill="none" stroke="black" d="M912,-280.5C912,-280.5 1034,-280.5 1034,-280.5 1040,-280.5 1046,-286.5 1046,-292.5 1046,-292.5 1046,-496.5 1046,-496.5 1046,-502.5 1040,-508.5 1034,-508.5 1034,-508.5 912,-508.5 912,-508.5 906,-508.5 900,-502.5 900,-496.5 900,-496.5 900,-292.5 900,-292.5 900,-286.5 906,-280.5 912,-280.5"/>
<text text-anchor="middle" x="973" y="-493.3" font-family="Times,serif" font-size="14.00">WritingGoalsController</text>
<polyline fill="none" stroke="black" points="900,-485.5 1046,-485.5 "/>
<text text-anchor="start" x="908" y="-470.3" font-family="Times,serif" font-size="14.00">create</text>
<text text-anchor="start" x="908" y="-455.3" font-family="Times,serif" font-size="14.00">destroy</text>
<text text-anchor="start" x="908" y="-440.3" font-family="Times,serif" font-size="14.00">edit</text>
<text text-anchor="start" x="908" y="-425.3" font-family="Times,serif" font-size="14.00">index</text>
<text text-anchor="start" x="908" y="-410.3" font-family="Times,serif" font-size="14.00">new</text>
<text text-anchor="start" x="908" y="-395.3" font-family="Times,serif" font-size="14.00">show</text>
<text text-anchor="start" x="908" y="-380.3" font-family="Times,serif" font-size="14.00">update</text>
<polyline fill="none" stroke="black" points="900,-372.5 1046,-372.5 "/>
<polyline fill="none" stroke="black" points="900,-348.5 1046,-348.5 "/>
<text text-anchor="start" x="908" y="-333.3" font-family="Times,serif" font-size="14.00">_layout</text>
<text text-anchor="start" x="908" y="-318.3" font-family="Times,serif" font-size="14.00">_layout_from_proc</text>
<text text-anchor="start" x="908" y="-303.3" font-family="Times,serif" font-size="14.00">set_writing_goal</text>
<text text-anchor="start" x="908" y="-288.3" font-family="Times,serif" font-size="14.00">writing_goal_params</text>
</g>
<!-- XmlController -->
<g id="node30" class="node">
<title>XmlController</title>
<path fill="none" stroke="black" d="M12,-1180.5C12,-1180.5 110,-1180.5 110,-1180.5 116,-1180.5 122,-1186.5 122,-1192.5 122,-1192.5 122,-1291.5 122,-1291.5 122,-1297.5 116,-1303.5 110,-1303.5 110,-1303.5 12,-1303.5 12,-1303.5 6,-1303.5 0,-1297.5 0,-1291.5 0,-1291.5 0,-1192.5 0,-1192.5 0,-1186.5 6,-1180.5 12,-1180.5"/>
<text text-anchor="middle" x="61" y="-1288.3" font-family="Times,serif" font-size="14.00">XmlController</text>
<polyline fill="none" stroke="black" points="0,-1280.5 122,-1280.5 "/>
<text text-anchor="start" x="8" y="-1265.3" font-family="Times,serif" font-size="14.00">atom</text>
<text text-anchor="start" x="8" y="-1250.3" font-family="Times,serif" font-size="14.00">sitemap</text>
<polyline fill="none" stroke="black" points="0,-1242.5 122,-1242.5 "/>
<polyline fill="none" stroke="black" points="0,-1218.5 122,-1218.5 "/>
<text text-anchor="start" x="8" y="-1203.3" font-family="Times,serif" font-size="14.00">_layout</text>
<text text-anchor="start" x="8" y="-1188.3" font-family="Times,serif" font-size="14.00">_layout_from_proc</text>
</g>
</g>
</svg>
