<?xml version="1.0" encoding="UTF-8" standalone="no"?>
<!DOCTYPE svg PUBLIC "-//W3C//DTD SVG 1.1//EN"
 "http://www.w3.org/Graphics/SVG/1.1/DTD/svg11.dtd">
<!-- Generated by graphviz version 3.0.0 (20220226.1711)
 -->
<!-- Title: models_diagram Pages: 1 -->
<svg width="1725pt" height="848pt"
 viewBox="0.00 0.00 1725.00 848.00" xmlns="http://www.w3.org/2000/svg" xmlns:xlink="http://www.w3.org/1999/xlink">
<g id="graph0" class="graph" transform="scale(1 1) rotate(0) translate(4 844)">
<title>models_diagram</title>
<polygon fill="transparent" stroke="transparent" points="-4,4 -4,-844 1721,-844 1721,4 -4,4"/>
<!-- _diagram_info -->
<g id="node1" class="node">
<title>_diagram_info</title>
<text text-anchor="start" x="8" y="-825.6" font-family="Times,serif" font-size="13.00">Models diagram</text>
<text text-anchor="start" x="8" y="-811.6" font-family="Times,serif" font-size="13.00">Date: Jun 26 2022 &#45; 10:36</text>
<text text-anchor="start" x="8" y="-797.6" font-family="Times,serif" font-size="13.00">Migration version: 20220625005826</text>
<text text-anchor="start" x="8" y="-783.6" font-family="Times,serif" font-size="13.00">Generated by RailRoady 1.6.0</text>
<text text-anchor="start" x="8" y="-769.6" font-family="Times,serif" font-size="13.00">http://railroady.prestonlee.com</text>
</g>
<!-- Ability -->
<g id="node2" class="node">
<title>Ability</title>
<polygon fill="none" stroke="black" points="287.5,-819 232.5,-819 232.5,-783 287.5,-783 287.5,-819"/>
<text text-anchor="middle" x="260" y="-797.3" font-family="Times,serif" font-size="14.00">Ability</text>
</g>
<!-- Ahoy::Event -->
<g id="node3" class="node">
<title>Ahoy::Event</title>
<ellipse fill="none" stroke="black" cx="580" cy="-178" rx="55.79" ry="18"/>
<text text-anchor="middle" x="580" y="-174.3" font-family="Times,serif" font-size="14.00">Ahoy::Event</text>
</g>
<!-- Ahoy::Visit -->
<g id="node4" class="node">
<title>Ahoy::Visit</title>
<ellipse fill="none" stroke="black" cx="549" cy="-91" rx="51.99" ry="18"/>
<text text-anchor="middle" x="549" y="-87.3" font-family="Times,serif" font-size="14.00">Ahoy::Visit</text>
</g>
<!-- Ahoy::Event&#45;&gt;Ahoy::Visit -->
<g id="edge1" class="edge">
<title>Ahoy::Event&#45;&gt;Ahoy::Visit</title>
<path fill="none" stroke="#928f66" d="M579.92,-149.65C579.19,-142.12 577.74,-134.08 575,-127 573.64,-123.47 571.81,-119.99 569.77,-116.67"/>
<polygon fill="#928f66" stroke="#928f66" points="579.93,-149.83 576.03,-160.08 580.23,-154.82 580.52,-159.81 580.52,-159.81 580.52,-159.81 580.23,-154.82 585.02,-159.54 579.93,-149.83 579.93,-149.83"/>
<polygon fill="#928f66" stroke="#928f66" points="569.68,-116.55 567.67,-105.77 566.83,-112.44 563.97,-108.34 563.97,-108.34 563.97,-108.34 566.83,-112.44 560.28,-110.91 569.68,-116.55 569.68,-116.55"/>
</g>
<!-- Ahoy::User -->
<g id="node25" class="node">
<title>Ahoy::User</title>
<ellipse fill="none" stroke="black" cx="589" cy="-18" rx="51.99" ry="18"/>
<text text-anchor="middle" x="589" y="-14.3" font-family="Times,serif" font-size="14.00">Ahoy::User</text>
</g>
<!-- Ahoy::Event&#45;&gt;Ahoy::User -->
<g id="edge2" class="edge">
<title>Ahoy::Event&#45;&gt;Ahoy::User</title>
<path fill="none" stroke="#0486e8" d="M594.58,-150.86C600.64,-138.56 606.95,-123.45 610,-109 613.3,-93.34 612.95,-88.73 610,-73 608.27,-63.76 605,-54.07 601.55,-45.5"/>
<polygon fill="#0486e8" stroke="#0486e8" points="594.43,-151.17 585.85,-158 592.14,-155.61 589.85,-160.06 589.85,-160.06 589.85,-160.06 592.14,-155.61 593.85,-162.12 594.43,-151.17 594.43,-151.17"/>
<polygon fill="#0486e8" stroke="#0486e8" points="601.44,-45.22 601.64,-34.26 599.47,-40.62 597.5,-36.03 597.5,-36.03 597.5,-36.03 599.47,-40.62 593.36,-37.8 601.44,-45.22 601.44,-45.22"/>
</g>
<!-- Ahoy::Visit&#45;&gt;Ahoy::Event -->
<g id="edge3" class="edge">
<title>Ahoy::Visit&#45;&gt;Ahoy::Event</title>
<path fill="none" stroke="#fd495e" d="M535.37,-118.27C533.08,-126.13 532.44,-134.62 536,-142 538.33,-146.82 541.67,-151.18 545.5,-155.06"/>
<polygon fill="#fd495e" stroke="#fd495e" points="535.42,-118.13 543.18,-110.38 537.2,-113.46 538.97,-108.78 538.97,-108.78 538.97,-108.78 537.2,-113.46 534.76,-107.19 535.42,-118.13 535.42,-118.13"/>
<polygon fill="#fd495e" stroke="#fd495e" points="545.79,-155.32 550.34,-165.3 549.55,-158.62 553.31,-161.92 553.31,-161.92 553.31,-161.92 549.55,-158.62 556.27,-158.54 545.79,-155.32 545.79,-155.32"/>
<text text-anchor="middle" x="553.5" y="-130.8" font-family="Times,serif" font-size="14.00">events</text>
</g>
<!-- Ahoy::Visit&#45;&gt;Ahoy::User -->
<g id="edge4" class="edge">
<title>Ahoy::Visit&#45;&gt;Ahoy::User</title>
<path fill="none" stroke="#10fa00" d="M563.41,-64.43C567.03,-58.01 570.91,-51.11 574.53,-44.68"/>
<polygon fill="#10fa00" stroke="#10fa00" points="563.39,-64.46 554.56,-70.97 560.93,-68.82 558.48,-73.17 558.48,-73.17 558.48,-73.17 560.93,-68.82 562.4,-75.38 563.39,-64.46 563.39,-64.46"/>
<polygon fill="#10fa00" stroke="#10fa00" points="574.68,-44.42 583.51,-37.91 577.13,-40.06 579.59,-35.71 579.59,-35.71 579.59,-35.71 577.13,-40.06 575.67,-33.5 574.68,-44.42 574.68,-44.42"/>
</g>
<!-- Announcement -->
<g id="node5" class="node">
<title>Announcement</title>
<ellipse fill="none" stroke="black" cx="460" cy="-801" rx="64.99" ry="18"/>
<text text-anchor="middle" x="460" y="-797.3" font-family="Times,serif" font-size="14.00">Announcement</text>
</g>
<!-- ApplicationRecord -->
<g id="node6" class="node">
<title>ApplicationRecord</title>
<ellipse fill="none" stroke="black" cx="620" cy="-801" rx="77.19" ry="18"/>
<text text-anchor="middle" x="620" y="-797.3" font-family="Times,serif" font-size="14.00">ApplicationRecord</text>
</g>
<!-- Author -->
<g id="node7" class="node">
<title>Author</title>
<ellipse fill="none" stroke="black" cx="341" cy="-801" rx="36" ry="18"/>
<text text-anchor="middle" x="341" y="-797.3" font-family="Times,serif" font-size="14.00">Author</text>
</g>
<!-- Book -->
<g id="node8" class="node">
<title>Book</title>
<ellipse fill="none" stroke="black" cx="1006" cy="-707" rx="29.8" ry="18"/>
<text text-anchor="middle" x="1006" y="-703.3" font-family="Times,serif" font-size="14.00">Book</text>
</g>
<!-- Author&#45;&gt;Book -->
<g id="edge5" class="edge">
<title>Author&#45;&gt;Book</title>
<path fill="none" stroke="#6c0a3d" d="M362.38,-777.36C369.32,-771.35 377.45,-765.56 386,-762 491.44,-718.16 845.43,-709.9 965.65,-708.35"/>
<polygon fill="#6c0a3d" stroke="#6c0a3d" points="362.15,-777.57 351.76,-781.09 358.49,-780.98 354.82,-784.38 354.82,-784.38 354.82,-784.38 358.49,-780.98 357.89,-787.68 362.15,-777.57 362.15,-777.57"/>
<polygon fill="#6c0a3d" stroke="#6c0a3d" points="965.89,-708.35 975.94,-712.73 970.89,-708.29 975.89,-708.23 975.89,-708.23 975.89,-708.23 970.89,-708.29 975.83,-703.73 965.89,-708.35 965.89,-708.35"/>
</g>
<!-- User -->
<g id="node22" class="node">
<title>User</title>
<ellipse fill="none" stroke="black" cx="526" cy="-265" rx="27.1" ry="18"/>
<text text-anchor="middle" x="526" y="-261.3" font-family="Times,serif" font-size="14.00">User</text>
</g>
<!-- Author&#45;&gt;User -->
<g id="edge6" class="edge">
<title>Author&#45;&gt;User</title>
<path fill="none" stroke="#0d4d6d" d="M318.46,-777.83C311.66,-772.04 303.9,-766.25 296,-762 220.94,-721.64 112,-793.23 112,-708 112,-708 112,-708 112,-481.5 112,-340.09 284.64,-435.44 410,-370 448.73,-349.78 446.99,-329.62 480,-301 486.29,-295.55 493.34,-289.95 499.98,-284.88"/>
<polygon fill="#0d4d6d" stroke="#0d4d6d" points="318.5,-777.86 322.95,-787.88 322.22,-781.19 325.95,-784.52 325.95,-784.52 325.95,-784.52 322.22,-781.19 328.95,-781.17 318.5,-777.86 318.5,-777.86"/>
<polygon fill="#0d4d6d" stroke="#0d4d6d" points="500.11,-284.78 510.81,-282.38 504.11,-281.78 508.11,-278.78 508.11,-278.78 508.11,-278.78 504.11,-281.78 505.41,-275.18 500.11,-284.78 500.11,-284.78"/>
</g>
<!-- Episode -->
<g id="node12" class="node">
<title>Episode</title>
<ellipse fill="none" stroke="black" cx="550" cy="-634" rx="38.99" ry="18"/>
<text text-anchor="middle" x="550" y="-630.3" font-family="Times,serif" font-size="14.00">Episode</text>
</g>
<!-- Book&#45;&gt;Episode -->
<g id="edge13" class="edge">
<title>Book&#45;&gt;Episode</title>
<path fill="none" stroke="#0bb4c2" d="M967.53,-700.01C884.09,-687.02 686.74,-656.29 596.49,-642.24"/>
<polygon fill="#0bb4c2" stroke="#0bb4c2" points="967.59,-700.02 976.78,-706.01 972.53,-700.79 977.48,-701.56 977.48,-701.56 977.48,-701.56 972.53,-700.79 978.17,-697.11 967.59,-700.02 967.59,-700.02"/>
<polygon fill="#0bb4c2" stroke="#0bb4c2" points="596.43,-642.23 587.24,-636.24 591.49,-641.46 586.55,-640.69 586.55,-640.69 586.55,-640.69 591.49,-641.46 585.86,-645.14 596.43,-642.23 596.43,-642.23"/>
</g>
<!-- Link -->
<g id="node13" class="node">
<title>Link</title>
<ellipse fill="none" stroke="black" cx="736" cy="-634" rx="27.1" ry="18"/>
<text text-anchor="middle" x="736" y="-630.3" font-family="Times,serif" font-size="14.00">Link</text>
</g>
<!-- Book&#45;&gt;Link -->
<g id="edge17" class="edge">
<title>Book&#45;&gt;Link</title>
<path fill="none" stroke="#cc01f7" d="M969.29,-696.35C917.03,-682.6 821.86,-657.58 770.72,-644.13"/>
<polygon fill="#cc01f7" stroke="#cc01f7" points="969.45,-696.39 977.98,-703.28 974.29,-697.66 979.12,-698.93 979.12,-698.93 979.12,-698.93 974.29,-697.66 980.27,-694.58 969.45,-696.39 969.45,-696.39"/>
<polygon fill="#cc01f7" stroke="#cc01f7" points="770.47,-644.06 761.94,-637.17 765.64,-642.79 760.8,-641.52 760.8,-641.52 760.8,-641.52 765.64,-642.79 759.66,-645.87 770.47,-644.06 770.47,-644.06"/>
</g>
<!-- Praise -->
<g id="node16" class="node">
<title>Praise</title>
<ellipse fill="none" stroke="black" cx="1397" cy="-580" rx="32.49" ry="18"/>
<text text-anchor="middle" x="1397" y="-576.3" font-family="Times,serif" font-size="14.00">Praise</text>
</g>
<!-- Book&#45;&gt;Praise -->
<g id="edge16" class="edge">
<title>Book&#45;&gt;Praise</title>
<path fill="none" stroke="#2a90df" d="M1046.13,-705.11C1119.62,-702.91 1272.52,-695.43 1319,-671 1346.74,-656.42 1368.97,-627.55 1382.5,-606.43"/>
<polygon fill="#2a90df" stroke="#2a90df" points="1045.88,-705.12 1035.76,-700.9 1040.89,-705.26 1035.89,-705.4 1035.89,-705.4 1035.89,-705.4 1040.89,-705.26 1036.01,-709.9 1045.88,-705.12 1045.88,-705.12"/>
<polygon fill="#2a90df" stroke="#2a90df" points="1382.67,-606.15 1391.75,-599.99 1385.3,-601.89 1387.92,-597.63 1387.92,-597.63 1387.92,-597.63 1385.3,-601.89 1384.09,-595.27 1382.67,-606.15 1382.67,-606.15"/>
</g>
<!-- Series -->
<g id="node18" class="node">
<title>Series</title>
<ellipse fill="none" stroke="black" cx="351" cy="-526" rx="32.49" ry="18"/>
<text text-anchor="middle" x="351" y="-522.3" font-family="Times,serif" font-size="14.00">Series</text>
</g>
<!-- Book&#45;&gt;Series -->
<g id="edge14" class="edge">
<title>Book&#45;&gt;Series</title>
<path fill="none" stroke="#a9d0e3" d="M966.23,-704.11C862.84,-698.81 587.65,-682.21 502,-652 445.97,-632.24 396.13,-581.3 370.1,-550.89"/>
<polygon fill="#a9d0e3" stroke="#a9d0e3" points="966.28,-704.11 976.04,-709.11 971.27,-704.36 976.26,-704.61 976.26,-704.61 976.26,-704.61 971.27,-704.36 976.49,-700.12 966.28,-704.11 966.28,-704.11"/>
<polygon fill="#a9d0e3" stroke="#a9d0e3" points="369.83,-550.57 366.85,-540.01 366.62,-546.73 363.4,-542.9 363.4,-542.9 363.4,-542.9 366.62,-546.73 359.96,-545.79 369.83,-550.57 369.83,-550.57"/>
</g>
<!-- WritingEntry -->
<g id="node23" class="node">
<title>WritingEntry</title>
<ellipse fill="none" stroke="black" cx="1006" cy="-634" rx="57.69" ry="18"/>
<text text-anchor="middle" x="1006" y="-630.3" font-family="Times,serif" font-size="14.00">WritingEntry</text>
</g>
<!-- Book&#45;&gt;WritingEntry -->
<g id="edge18" class="edge">
<title>Book&#45;&gt;WritingEntry</title>
<path fill="none" stroke="#42f548" d="M1006,-678.75C1006,-673.28 1006,-667.52 1006,-662.05"/>
<polygon fill="#42f548" stroke="#42f548" points="1006,-678.81 1001.5,-688.81 1006,-683.81 1006,-688.81 1006,-688.81 1006,-688.81 1006,-683.81 1010.5,-688.81 1006,-678.81 1006,-678.81"/>
<polygon fill="#42f548" stroke="#42f548" points="1006,-662.03 1010.5,-652.03 1006,-657.03 1006,-652.03 1006,-652.03 1006,-652.03 1006,-657.03 1001.5,-652.03 1006,-662.03 1006,-662.03"/>
</g>
<!-- WritingGoal -->
<g id="node24" class="node">
<title>WritingGoal</title>
<ellipse fill="none" stroke="black" cx="1092" cy="-526" rx="55.49" ry="18"/>
<text text-anchor="middle" x="1092" y="-522.3" font-family="Times,serif" font-size="14.00">WritingGoal</text>
</g>
<!-- Book&#45;&gt;WritingGoal -->
<g id="edge15" class="edge">
<title>Book&#45;&gt;WritingGoal</title>
<path fill="none" stroke="#ed2c55" d="M1036.28,-688.81C1049.68,-679.63 1064.33,-667.09 1073,-652 1090.4,-621.72 1093.51,-580.81 1093.37,-554.16"/>
<polygon fill="#ed2c55" stroke="#ed2c55" points="1036.13,-688.91 1025.29,-690.58 1031.93,-691.63 1027.74,-694.35 1027.74,-694.35 1027.74,-694.35 1031.93,-691.63 1030.19,-698.13 1036.13,-688.91 1036.13,-688.91"/>
<polygon fill="#ed2c55" stroke="#ed2c55" points="1093.37,-554.03 1097.66,-543.94 1093.27,-549.03 1093.16,-544.03 1093.16,-544.03 1093.16,-544.03 1093.27,-549.03 1088.66,-544.13 1093.37,-554.03 1093.37,-554.03"/>
</g>
<!-- ActionText::RichText -->
<g id="node26" class="node">
<title>ActionText::RichText</title>
<ellipse fill="none" stroke="black" cx="1161" cy="-265" rx="87.18" ry="18"/>
<text text-anchor="middle" x="1161" y="-261.3" font-family="Times,serif" font-size="14.00">ActionText::RichText</text>
</g>
<!-- Book&#45;&gt;ActionText::RichText -->
<g id="edge7" class="edge">
<title>Book&#45;&gt;ActionText::RichText</title>
<path fill="none" stroke="#f2b3b6" d="M1038.09,-691.01C1049.18,-685.31 1061.46,-678.39 1072,-671 1127.41,-632.15 1134.68,-608.23 1156,-544 1185.12,-456.29 1173.48,-344.29 1165.76,-293.38"/>
<polygon fill="#f2b3b6" stroke="#f2b3b6" points="1038.06,-691.03 1027.1,-691.47 1033.58,-693.26 1029.11,-695.5 1029.11,-695.5 1029.11,-695.5 1033.58,-693.26 1031.13,-699.52 1038.06,-691.03 1038.06,-691.03"/>
<polygon fill="#f2b3b6" stroke="#f2b3b6" points="1165.71,-293.07 1168.59,-282.49 1164.93,-288.13 1164.14,-283.2 1164.14,-283.2 1164.14,-283.2 1164.93,-288.13 1159.7,-283.9 1165.71,-293.07 1165.71,-293.07"/>
<text text-anchor="middle" x="1221" y="-478.8" font-family="Times,serif" font-size="14.00">rich_text_synopsis</text>
</g>
<!-- Book&#45;&gt;ActionText::RichText -->
<g id="edge8" class="edge">
<title>Book&#45;&gt;ActionText::RichText</title>
<path fill="none" stroke="#2dcc39" d="M1046.14,-704.81C1127.67,-701.29 1305,-687.59 1305,-635 1305,-635 1305,-635 1302,-481.5 1302,-480.25 1302.77,-301.99 1302,-301 1293.87,-290.6 1268.82,-282.86 1242.05,-277.34"/>
<polygon fill="#2dcc39" stroke="#2dcc39" points="1045.75,-704.82 1035.58,-700.73 1040.76,-705.02 1035.76,-705.22 1035.76,-705.22 1035.76,-705.22 1040.76,-705.02 1035.94,-709.72 1045.75,-704.82 1045.75,-704.82"/>
<polygon fill="#2dcc39" stroke="#2dcc39" points="1241.95,-277.32 1233,-270.98 1237.05,-276.36 1232.14,-275.4 1232.14,-275.4 1232.14,-275.4 1237.05,-276.36 1231.28,-279.82 1241.95,-277.32 1241.95,-277.32"/>
<text text-anchor="middle" x="1352.5" y="-478.8" font-family="Times,serif" font-size="14.00">rich_text_excerpt</text>
</g>
<!-- ActiveStorage::Attachment -->
<g id="node27" class="node">
<title>ActiveStorage::Attachment</title>
<ellipse fill="none" stroke="black" cx="281" cy="-178" rx="107.48" ry="18"/>
<text text-anchor="middle" x="281" y="-174.3" font-family="Times,serif" font-size="14.00">ActiveStorage::Attachment</text>
</g>
<!-- Book&#45;&gt;ActiveStorage::Attachment -->
<g id="edge9" class="edge">
<title>Book&#45;&gt;ActiveStorage::Attachment</title>
<path fill="none" stroke="#eca2e6" d="M966.09,-705.37C833.91,-703.1 411.18,-694.15 277,-671 222.55,-661.6 158,-690.26 158,-635 158,-635 158,-635 158,-264 158,-231.42 187.57,-210.35 217.71,-197.34"/>
<polygon fill="#eca2e6" stroke="#eca2e6" points="966.18,-705.38 976.1,-710.04 971.18,-705.46 976.18,-705.54 976.18,-705.54 976.18,-705.54 971.18,-705.46 976.26,-701.05 966.18,-705.38 966.18,-705.38"/>
<polygon fill="#eca2e6" stroke="#eca2e6" points="217.78,-197.32 228.74,-197.73 222.42,-195.44 227.05,-193.56 227.05,-193.56 227.05,-193.56 222.42,-195.44 225.36,-189.39 217.78,-197.32 217.78,-197.32"/>
<text text-anchor="middle" x="206.5" y="-435.3" font-family="Times,serif" font-size="14.00">cover_attachment</text>
</g>
<!-- Book&#45;&gt;ActiveStorage::Attachment -->
<g id="edge11" class="edge">
<title>Book&#45;&gt;ActiveStorage::Attachment</title>
<path fill="none" stroke="#8d12e1" d="M965.5,-706.26C814.23,-706.7 291,-703.29 291,-635 291,-635 291,-635 291,-481.5 291,-430.06 266.95,-420.96 260,-370 252.61,-315.84 251.84,-301.05 260,-247 262.1,-233.06 266.5,-218.05 270.73,-205.68"/>
<polygon fill="#8d12e1" stroke="#8d12e1" points="965.73,-706.26 975.75,-710.72 970.73,-706.24 975.73,-706.22 975.73,-706.22 975.73,-706.22 970.73,-706.24 975.72,-701.72 965.73,-706.26 965.73,-706.26"/>
<polygon fill="#8d12e1" stroke="#8d12e1" points="270.83,-205.41 278.43,-197.51 272.51,-200.7 274.19,-196 274.19,-196 274.19,-196 272.51,-200.7 269.95,-194.48 270.83,-205.41 270.83,-205.41"/>
<text text-anchor="middle" x="370" y="-435.3" font-family="Times,serif" font-size="14.00">hero_background_attachment</text>
</g>
<!-- ActiveStorage::Blob -->
<g id="node28" class="node">
<title>ActiveStorage::Blob</title>
<ellipse fill="none" stroke="black" cx="1156" cy="-178" rx="83.39" ry="18"/>
<text text-anchor="middle" x="1156" y="-174.3" font-family="Times,serif" font-size="14.00">ActiveStorage::Blob</text>
</g>
<!-- Book&#45;&gt;ActiveStorage::Blob -->
<g id="edge10" class="edge">
<title>Book&#45;&gt;ActiveStorage::Blob</title>
<path fill="none" stroke="#216f5d" d="M1046.08,-704.37C1162.75,-699.09 1494,-680.14 1494,-635 1494,-635 1494,-635 1494,-264 1494,-212.74 1345.94,-192.1 1245.81,-184"/>
<polygon fill="#216f5d" stroke="#216f5d" points="1045.78,-704.38 1035.59,-700.33 1040.79,-704.6 1035.79,-704.82 1035.79,-704.82 1035.79,-704.82 1040.79,-704.6 1035.99,-709.32 1045.78,-704.38 1045.78,-704.38"/>
<polygon fill="#216f5d" stroke="#216f5d" points="1245.64,-183.99 1236.02,-178.72 1240.66,-183.6 1235.67,-183.21 1235.67,-183.21 1235.67,-183.21 1240.66,-183.6 1235.32,-187.7 1245.64,-183.99 1245.64,-183.99"/>
<text text-anchor="middle" x="1524.5" y="-435.3" font-family="Times,serif" font-size="14.00">cover_blob</text>
</g>
<!-- Book&#45;&gt;ActiveStorage::Blob -->
<g id="edge12" class="edge">
<title>Book&#45;&gt;ActiveStorage::Blob</title>
<path fill="none" stroke="#26d131" d="M1045.89,-705.36C1177.71,-702.71 1591,-690.03 1591,-635 1591,-635 1591,-635 1591,-264 1591,-194.98 1377.39,-180.95 1249.55,-178.74"/>
<polygon fill="#26d131" stroke="#26d131" points="1045.81,-705.36 1035.73,-701.05 1040.81,-705.46 1035.81,-705.55 1035.81,-705.55 1035.81,-705.55 1040.81,-705.46 1035.9,-710.05 1045.81,-705.36 1045.81,-705.36"/>
<polygon fill="#26d131" stroke="#26d131" points="1249.36,-178.73 1239.43,-174.08 1244.36,-178.66 1239.36,-178.58 1239.36,-178.58 1239.36,-178.58 1244.36,-178.66 1239.29,-183.08 1249.36,-178.73 1249.36,-178.73"/>
<text text-anchor="middle" x="1654" y="-435.3" font-family="Times,serif" font-size="14.00">hero_background_blob</text>
</g>
<!-- Click -->
<g id="node9" class="node">
<title>Click</title>
<ellipse fill="none" stroke="black" cx="371" cy="-352" rx="29.8" ry="18"/>
<text text-anchor="middle" x="371" y="-348.3" font-family="Times,serif" font-size="14.00">Click</text>
</g>
<!-- Click&#45;&gt;User -->
<g id="edge19" class="edge">
<title>Click&#45;&gt;User</title>
<path fill="none" stroke="#fb418a" d="M390.92,-328.3C400.2,-318.82 411.87,-308.33 424,-301 430.1,-297.31 465.04,-285.63 492.35,-276.76"/>
<polygon fill="#fb418a" stroke="#fb418a" points="390.89,-328.34 380.75,-332.52 387.45,-331.97 384.02,-335.61 384.02,-335.61 384.02,-335.61 387.45,-331.97 387.3,-338.7 390.89,-328.34 390.89,-328.34"/>
<polygon fill="#fb418a" stroke="#fb418a" points="492.48,-276.72 503.38,-277.93 497.24,-275.18 502,-273.64 502,-273.64 502,-273.64 497.24,-275.18 500.61,-269.36 492.48,-276.72 492.48,-276.72"/>
</g>
<!-- Clickable -->
<g id="node29" class="node">
<title>Clickable</title>
<ellipse fill="none" stroke="black" cx="419" cy="-265" rx="44.39" ry="18"/>
<text text-anchor="middle" x="419" y="-261.3" font-family="Times,serif" font-size="14.00">Clickable</text>
</g>
<!-- Click&#45;&gt;Clickable -->
<g id="edge20" class="edge">
<title>Click&#45;&gt;Clickable</title>
<path fill="none" stroke="#773bad" d="M383.09,-325.37C387.02,-317.45 391.52,-308.77 396,-301 397.89,-297.72 399.96,-294.33 402.06,-291"/>
<polygon fill="#773bad" stroke="#773bad" points="383.01,-325.54 374.59,-332.56 380.82,-330.04 378.63,-334.53 378.63,-334.53 378.63,-334.53 380.82,-330.04 382.68,-336.5 383.01,-325.54 383.01,-325.54"/>
<polygon fill="#773bad" stroke="#773bad" points="402.15,-290.87 411.37,-284.93 404.87,-286.68 407.59,-282.48 407.59,-282.48 407.59,-282.48 404.87,-286.68 403.82,-280.03 402.15,-290.87 402.15,-290.87"/>
</g>
<!-- Comment -->
<g id="node10" class="node">
<title>Comment</title>
<ellipse fill="none" stroke="black" cx="943" cy="-352" rx="46.29" ry="18"/>
<text text-anchor="middle" x="943" y="-348.3" font-family="Times,serif" font-size="14.00">Comment</text>
</g>
<!-- Comment&#45;&gt;User -->
<g id="edge21" class="edge">
<title>Comment&#45;&gt;User</title>
<path fill="none" stroke="#7b5037" d="M899.05,-336.93C895.33,-335.89 891.61,-334.89 888,-334 826.07,-318.67 640.75,-285.92 562.02,-272.23"/>
<polygon fill="#7b5037" stroke="#7b5037" points="899.24,-336.99 907.58,-344.1 904.04,-338.38 908.84,-339.78 908.84,-339.78 908.84,-339.78 904.04,-338.38 910.1,-335.46 899.24,-336.99 899.24,-336.99"/>
<polygon fill="#7b5037" stroke="#7b5037" points="561.93,-272.21 552.85,-266.07 557.01,-271.36 552.08,-270.5 552.08,-270.5 552.08,-270.5 557.01,-271.36 551.31,-274.93 561.93,-272.21 561.93,-272.21"/>
</g>
<!-- Comment&#45;&gt;ActionText::RichText -->
<g id="edge22" class="edge">
<title>Comment&#45;&gt;ActionText::RichText</title>
<path fill="none" stroke="#4811bb" d="M959.27,-325.84C966.41,-316.69 975.56,-307.1 986,-301 1002.14,-291.56 1041.97,-283.24 1079.56,-277.09"/>
<polygon fill="#4811bb" stroke="#4811bb" points="959.2,-325.93 949.66,-331.35 956.24,-329.97 953.29,-334.01 953.29,-334.01 953.29,-334.01 956.24,-329.97 956.92,-336.66 959.2,-325.93 959.2,-325.93"/>
<polygon fill="#4811bb" stroke="#4811bb" points="1079.69,-277.07 1090.28,-279.93 1084.63,-276.28 1089.57,-275.49 1089.57,-275.49 1089.57,-275.49 1084.63,-276.28 1088.86,-271.04 1079.69,-277.07 1079.69,-277.07"/>
<text text-anchor="middle" x="1033.5" y="-304.8" font-family="Times,serif" font-size="14.00">rich_text_content</text>
</g>
<!-- Commentable -->
<g id="node30" class="node">
<title>Commentable</title>
<ellipse fill="none" stroke="black" cx="962" cy="-265" rx="61.19" ry="18"/>
<text text-anchor="middle" x="962" y="-261.3" font-family="Times,serif" font-size="14.00">Commentable</text>
</g>
<!-- Comment&#45;&gt;Commentable -->
<g id="edge23" class="edge">
<title>Comment&#45;&gt;Commentable</title>
<path fill="none" stroke="#9f5ca0" d="M949.09,-323.73C951.28,-313.96 953.74,-302.94 955.93,-293.17"/>
<polygon fill="#9f5ca0" stroke="#9f5ca0" points="949.03,-324.04 942.45,-332.82 947.94,-328.92 946.84,-333.8 946.84,-333.8 946.84,-333.8 947.94,-328.92 951.24,-334.78 949.03,-324.04 949.03,-324.04"/>
<polygon fill="#9f5ca0" stroke="#9f5ca0" points="955.98,-292.93 962.55,-284.16 957.07,-288.06 958.16,-283.18 958.16,-283.18 958.16,-283.18 957.07,-288.06 953.77,-282.19 955.98,-292.93 955.98,-292.93"/>
</g>
<!-- Current -->
<g id="node11" class="node">
<title>Current</title>
<polygon fill="none" stroke="black" points="773,-819 715,-819 715,-783 773,-783 773,-819"/>
<text text-anchor="middle" x="744" y="-797.3" font-family="Times,serif" font-size="14.00">Current</text>
</g>
<!-- Episode&#45;&gt;Series -->
<g id="edge24" class="edge">
<title>Episode&#45;&gt;Series</title>
<path fill="none" stroke="#0328e8" d="M516.21,-615C478.92,-595.14 419.35,-563.41 382.85,-543.97"/>
<polygon fill="#0328e8" stroke="#0328e8" points="516.37,-615.09 523.08,-623.76 520.79,-617.44 525.2,-619.79 525.2,-619.79 525.2,-619.79 520.79,-617.44 527.31,-615.82 516.37,-615.09 516.37,-615.09"/>
<polygon fill="#0328e8" stroke="#0328e8" points="382.48,-543.77 375.77,-535.09 378.06,-541.42 373.65,-539.07 373.65,-539.07 373.65,-539.07 378.06,-541.42 371.54,-543.04 382.48,-543.77 382.48,-543.77"/>
</g>
<!-- Linkable -->
<g id="node31" class="node">
<title>Linkable</title>
<ellipse fill="none" stroke="black" cx="901" cy="-526" rx="42.49" ry="18"/>
<text text-anchor="middle" x="901" y="-522.3" font-family="Times,serif" font-size="14.00">Linkable</text>
</g>
<!-- Link&#45;&gt;Linkable -->
<g id="edge25" class="edge">
<title>Link&#45;&gt;Linkable</title>
<path fill="none" stroke="#71659b" d="M770.18,-622.69C787.08,-616.79 807.37,-608.47 824,-598 844.84,-584.89 865.17,-565.78 879.71,-550.69"/>
<polygon fill="#71659b" stroke="#71659b" points="770.15,-622.7 759.24,-621.62 765.41,-624.29 760.67,-625.88 760.67,-625.88 760.67,-625.88 765.41,-624.29 762.1,-630.15 770.15,-622.7 770.15,-622.7"/>
<polygon fill="#71659b" stroke="#71659b" points="879.89,-550.5 890.03,-546.31 883.32,-546.86 886.75,-543.22 886.75,-543.22 886.75,-543.22 883.32,-546.86 883.48,-540.14 879.89,-550.5 879.89,-550.5"/>
</g>
<!-- ActsAsTaggableOn::Tagging -->
<g id="node32" class="node">
<title>ActsAsTaggableOn::Tagging</title>
<ellipse fill="none" stroke="black" cx="728" cy="-526" rx="113.18" ry="18"/>
<text text-anchor="middle" x="728" y="-522.3" font-family="Times,serif" font-size="14.00">ActsAsTaggableOn::Tagging</text>
</g>
<!-- Link&#45;&gt;ActsAsTaggableOn::Tagging -->
<g id="edge26" class="edge">
<title>Link&#45;&gt;ActsAsTaggableOn::Tagging</title>
<path fill="none" stroke="#184e7f" d="M711.34,-612.64C707.53,-608.24 704.15,-603.3 702,-598 695.98,-583.17 696.98,-577.19 702,-562 703.1,-558.66 704.66,-555.39 706.47,-552.26"/>
<polygon fill="#184e7f" stroke="#184e7f" points="711.5,-612.79 715.28,-623.08 715,-616.36 718.5,-619.93 718.5,-619.93 718.5,-619.93 715,-616.36 721.71,-616.78 711.5,-612.79 711.5,-612.79"/>
<polygon fill="#184e7f" stroke="#184e7f" points="706.51,-552.21 715.82,-546.41 709.29,-548.06 712.08,-543.91 712.08,-543.91 712.08,-543.91 709.29,-548.06 708.34,-541.4 706.51,-552.21 706.51,-552.21"/>
<text text-anchor="middle" x="725" y="-576.3" font-family="Times,serif" font-size="14.00">taggings</text>
</g>
<!-- Link&#45;&gt;ActsAsTaggableOn::Tagging -->
<g id="edge28" class="edge">
<title>Link&#45;&gt;ActsAsTaggableOn::Tagging</title>
<path fill="none" stroke="#92f44a" d="M746,-606.86C746.82,-603.9 747.51,-600.91 748,-598 750.63,-582.22 752.11,-577.46 748,-562 747.2,-558.99 746.07,-555.96 744.75,-553.02"/>
<polygon fill="#92f44a" stroke="#92f44a" points="745.94,-607.03 738.6,-615.18 744.42,-611.8 742.89,-616.56 742.89,-616.56 742.89,-616.56 744.42,-611.8 747.17,-617.93 745.94,-607.03 745.94,-607.03"/>
<polygon fill="#92f44a" stroke="#92f44a" points="744.69,-552.9 744.06,-541.95 742.38,-548.46 740.07,-544.03 740.07,-544.03 740.07,-544.03 742.38,-548.46 736.08,-546.1 744.69,-552.9 744.69,-552.9"/>
<text text-anchor="middle" x="785" y="-576.3" font-family="Times,serif" font-size="14.00">tag_taggings</text>
</g>
<!-- ActsAsTaggableOn::Tag -->
<g id="node33" class="node">
<title>ActsAsTaggableOn::Tag</title>
<ellipse fill="none" stroke="black" cx="499" cy="-526" rx="97.48" ry="18"/>
<text text-anchor="middle" x="499" y="-522.3" font-family="Times,serif" font-size="14.00">ActsAsTaggableOn::Tag</text>
</g>
<!-- Link&#45;&gt;ActsAsTaggableOn::Tag -->
<g id="edge27" class="edge">
<title>Link&#45;&gt;ActsAsTaggableOn::Tag</title>
<path fill="none" stroke="#b7e338" d="M702.5,-621.87C683.89,-615.41 660.43,-606.83 640,-598 604.74,-582.76 565.83,-562.92 537.83,-548.09"/>
<polygon fill="#b7e338" stroke="#b7e338" points="702.57,-621.89 710.57,-629.39 707.3,-623.51 712.03,-625.13 712.03,-625.13 712.03,-625.13 707.3,-623.51 713.49,-620.87 702.57,-621.89 702.57,-621.89"/>
<polygon fill="#b7e338" stroke="#b7e338" points="537.6,-547.97 530.89,-539.3 533.18,-545.62 528.77,-543.27 528.77,-543.27 528.77,-543.27 533.18,-545.62 526.66,-547.24 537.6,-547.97 537.6,-547.97"/>
<text text-anchor="middle" x="666.5" y="-576.3" font-family="Times,serif" font-size="14.00">base_tags</text>
</g>
<!-- Link&#45;&gt;ActsAsTaggableOn::Tag -->
<g id="edge29" class="edge">
<title>Link&#45;&gt;ActsAsTaggableOn::Tag</title>
<path fill="none" stroke="#3ec77b" d="M699.24,-628.08C646.38,-620.76 553.81,-606.9 541,-598 525.66,-587.34 515.05,-569.12 508.33,-553.8"/>
<polygon fill="#3ec77b" stroke="#3ec77b" points="699.34,-628.1 708.64,-633.92 704.3,-628.78 709.25,-629.46 709.25,-629.46 709.25,-629.46 704.3,-628.78 709.86,-625 699.34,-628.1 699.34,-628.1"/>
<polygon fill="#3ec77b" stroke="#3ec77b" points="508.22,-553.53 508.64,-542.57 506.34,-548.89 504.47,-544.26 504.47,-544.26 504.47,-544.26 506.34,-548.89 500.29,-545.95 508.22,-553.53 508.22,-553.53"/>
<text text-anchor="middle" x="552" y="-576.3" font-family="Times,serif" font-size="14.00">tags</text>
</g>
<!-- Page -->
<g id="node14" class="node">
<title>Page</title>
<ellipse fill="none" stroke="black" cx="1242" cy="-352" rx="27.9" ry="18"/>
<text text-anchor="middle" x="1242" y="-348.3" font-family="Times,serif" font-size="14.00">Page</text>
</g>
<!-- Page&#45;&gt;ActionText::RichText -->
<g id="edge30" class="edge">
<title>Page&#45;&gt;ActionText::RichText</title>
<path fill="none" stroke="#2b3e2d" d="M1220.1,-329.38C1215.73,-324.99 1211.19,-320.37 1207,-316 1199.08,-307.74 1190.56,-298.56 1183.03,-290.35"/>
<polygon fill="#2b3e2d" stroke="#2b3e2d" points="1220.14,-329.42 1224.04,-339.67 1223.68,-332.96 1227.22,-336.49 1227.22,-336.49 1227.22,-336.49 1223.68,-332.96 1230.4,-333.31 1220.14,-329.42 1220.14,-329.42"/>
<polygon fill="#2b3e2d" stroke="#2b3e2d" points="1182.9,-290.21 1179.49,-279.79 1179.53,-286.52 1176.16,-282.83 1176.16,-282.83 1176.16,-282.83 1179.53,-286.52 1172.84,-285.86 1182.9,-290.21 1182.9,-290.21"/>
<text text-anchor="middle" x="1254.5" y="-304.8" font-family="Times,serif" font-size="14.00">rich_text_content</text>
</g>
<!-- Post -->
<g id="node15" class="node">
<title>Post</title>
<ellipse fill="none" stroke="black" cx="852" cy="-352" rx="27" ry="18"/>
<text text-anchor="middle" x="852" y="-348.3" font-family="Times,serif" font-size="14.00">Post</text>
</g>
<!-- Post&#45;&gt;User -->
<g id="edge31" class="edge">
<title>Post&#45;&gt;User</title>
<path fill="none" stroke="#1155fd" d="M821.9,-335.86C819.93,-335.16 817.95,-334.53 816,-334 727.72,-310.1 698.11,-343.87 611,-316 604.84,-314.03 576.31,-296.95 553.99,-283.29"/>
<polygon fill="#1155fd" stroke="#1155fd" points="822.29,-336.02 829.83,-343.98 826.91,-337.92 831.54,-339.82 831.54,-339.82 831.54,-339.82 826.91,-337.92 833.25,-335.65 822.29,-336.02 822.29,-336.02"/>
<polygon fill="#1155fd" stroke="#1155fd" points="553.71,-283.12 547.54,-274.06 549.45,-280.51 545.18,-277.89 545.18,-277.89 545.18,-277.89 549.45,-280.51 542.83,-281.73 553.71,-283.12 553.71,-283.12"/>
</g>
<!-- Post&#45;&gt;ActionText::RichText -->
<g id="edge32" class="edge">
<title>Post&#45;&gt;ActionText::RichText</title>
<path fill="none" stroke="#f0afbd" d="M854.78,-324.14C857.02,-315.51 861,-306.72 868,-301 896.39,-277.8 995.6,-287.4 1032,-283 1047.55,-281.12 1064.13,-279.02 1080.05,-276.94"/>
<polygon fill="#f0afbd" stroke="#f0afbd" points="854.77,-324.18 848.44,-333.14 853.81,-329.09 852.86,-334 852.86,-334 852.86,-334 853.81,-329.09 857.27,-334.86 854.77,-324.18 854.77,-324.18"/>
<polygon fill="#f0afbd" stroke="#f0afbd" points="1080.49,-276.88 1090.99,-280.05 1085.44,-276.23 1090.4,-275.59 1090.4,-275.59 1090.4,-275.59 1085.44,-276.23 1089.82,-271.12 1080.49,-276.88 1080.49,-276.88"/>
<text text-anchor="middle" x="915.5" y="-304.8" font-family="Times,serif" font-size="14.00">rich_text_content</text>
</g>
<!-- Post&#45;&gt;ActiveStorage::Attachment -->
<g id="edge33" class="edge">
<title>Post&#45;&gt;ActiveStorage::Attachment</title>
<path fill="none" stroke="#5ca715" d="M821.51,-336.46C819.65,-335.62 817.8,-334.79 816,-334 761.07,-309.85 743.05,-312.85 691,-283 647.28,-257.92 647.78,-232.77 601,-214 600.67,-213.87 472.47,-199.87 378.45,-189.62"/>
<polygon fill="#5ca715" stroke="#5ca715" points="821.69,-336.55 828.88,-344.83 826.23,-338.64 830.77,-340.74 830.77,-340.74 830.77,-340.74 826.23,-338.64 832.65,-336.66 821.69,-336.55 821.69,-336.55"/>
<polygon fill="#5ca715" stroke="#5ca715" points="378.26,-189.6 368.81,-184.04 373.29,-189.06 368.32,-188.52 368.32,-188.52 368.32,-188.52 373.29,-189.06 367.83,-192.99 378.26,-189.6 378.26,-189.6"/>
<text text-anchor="middle" x="747" y="-261.3" font-family="Times,serif" font-size="14.00">images_attachments</text>
</g>
<!-- Post&#45;&gt;ActiveStorage::Blob -->
<g id="edge34" class="edge">
<title>Post&#45;&gt;ActiveStorage::Blob</title>
<path fill="none" stroke="#77c0a2" d="M832.31,-327.9C815.43,-305.19 796.67,-270.58 816,-247 847.1,-209.07 976.39,-191.87 1066.25,-184.39"/>
<polygon fill="#77c0a2" stroke="#77c0a2" points="832.45,-328.09 835.05,-338.74 835.53,-332.03 838.6,-335.98 838.6,-335.98 838.6,-335.98 835.53,-332.03 842.15,-333.21 832.45,-328.09 832.45,-328.09"/>
<polygon fill="#77c0a2" stroke="#77c0a2" points="1066.49,-184.37 1076.82,-188.05 1071.47,-183.96 1076.46,-183.56 1076.46,-183.56 1076.46,-183.56 1071.47,-183.96 1076.1,-179.08 1066.49,-184.37 1066.49,-184.37"/>
<text text-anchor="middle" x="854" y="-261.3" font-family="Times,serif" font-size="14.00">images_blobs</text>
</g>
<!-- Praise&#45;&gt;ActionText::RichText -->
<g id="edge35" class="edge">
<title>Praise&#45;&gt;ActionText::RichText</title>
<path fill="none" stroke="#b861b0" d="M1398.54,-551.81C1399.46,-534.19 1400.53,-510.74 1401,-490 1401.15,-483.34 1404.5,-480.67 1401,-475 1391.6,-459.78 1376.02,-471.09 1365,-457 1321.21,-401.04 1380.66,-350.83 1330,-301 1317.8,-289 1282.84,-280.74 1247.86,-275.27"/>
<polygon fill="#b861b0" stroke="#b861b0" points="1398.53,-551.96 1393.5,-561.7 1398.26,-556.95 1397.99,-561.95 1397.99,-561.95 1397.99,-561.95 1398.26,-556.95 1402.49,-562.19 1398.53,-551.96 1398.53,-551.96"/>
<polygon fill="#b861b0" stroke="#b861b0" points="1247.42,-275.21 1238.19,-269.28 1242.47,-274.47 1237.53,-273.73 1237.53,-273.73 1237.53,-273.73 1242.47,-274.47 1236.86,-278.18 1247.42,-275.21 1247.42,-275.21"/>
<text text-anchor="middle" x="1418.5" y="-435.3" font-family="Times,serif" font-size="14.00">rich_text_comment</text>
</g>
<!-- Role -->
<g id="node17" class="node">
<title>Role</title>
<ellipse fill="none" stroke="black" cx="296" cy="-352" rx="27.1" ry="18"/>
<text text-anchor="middle" x="296" y="-348.3" font-family="Times,serif" font-size="14.00">Role</text>
</g>
<!-- Role&#45;&gt;User -->
<g id="edge36" class="edge">
<title>Role&#45;&gt;User</title>
<path fill="none" stroke="#24a073" d="M325.32,-335.13C346.02,-324.4 374.65,-310.51 401,-301 431.62,-289.95 440.68,-291.89 472,-283 478.67,-281.11 485.76,-278.97 492.54,-276.86"/>
<polygon fill="#24a073" stroke="#24a073" points="325.26,-335.16 314.31,-335.82 320.83,-337.48 316.4,-339.81 316.4,-339.81 316.4,-339.81 320.83,-337.48 318.49,-343.79 325.26,-335.16 325.26,-335.16"/>
<polygon fill="#24a073" stroke="#24a073" points="492.63,-276.83 503.52,-278.12 497.39,-275.33 502.16,-273.82 502.16,-273.82 502.16,-273.82 497.39,-275.33 500.81,-269.53 492.63,-276.83 492.63,-276.83"/>
</g>
<!-- Resource -->
<g id="node34" class="node">
<title>Resource</title>
<ellipse fill="none" stroke="black" cx="313" cy="-265" rx="43.59" ry="18"/>
<text text-anchor="middle" x="313" y="-261.3" font-family="Times,serif" font-size="14.00">Resource</text>
</g>
<!-- Role&#45;&gt;Resource -->
<g id="edge37" class="edge">
<title>Role&#45;&gt;Resource</title>
<path fill="none" stroke="#a71543" d="M301.45,-323.73C303.41,-313.96 305.61,-302.94 307.57,-293.17"/>
<polygon fill="#a71543" stroke="#a71543" points="301.4,-323.99 295.03,-332.92 300.42,-328.9 299.44,-333.8 299.44,-333.8 299.44,-333.8 300.42,-328.9 303.85,-334.68 301.4,-323.99 301.4,-323.99"/>
<polygon fill="#a71543" stroke="#a71543" points="307.6,-292.98 313.98,-284.06 308.58,-288.08 309.56,-283.18 309.56,-283.18 309.56,-283.18 308.58,-288.08 305.15,-282.29 307.6,-292.98 307.6,-292.98"/>
</g>
<!-- Subscription -->
<g id="node19" class="node">
<title>Subscription</title>
<ellipse fill="none" stroke="black" cx="752" cy="-352" rx="55.49" ry="18"/>
<text text-anchor="middle" x="752" y="-348.3" font-family="Times,serif" font-size="14.00">Subscription</text>
</g>
<!-- Subscription&#45;&gt;User -->
<g id="edge38" class="edge">
<title>Subscription&#45;&gt;User</title>
<path fill="none" stroke="#cc8579" d="M701.55,-337.17C696.98,-336.05 692.41,-334.97 688,-334 643.05,-324.08 627.75,-335.39 586,-316 571.55,-309.29 557.73,-298.21 547,-288.18"/>
<polygon fill="#cc8579" stroke="#cc8579" points="701.8,-337.24 710.4,-344.05 706.65,-338.46 711.5,-339.69 711.5,-339.69 711.5,-339.69 706.65,-338.46 712.6,-335.32 701.8,-337.24 701.8,-337.24"/>
<polygon fill="#cc8579" stroke="#cc8579" points="546.93,-288.12 542.91,-277.92 543.35,-284.63 539.77,-281.14 539.77,-281.14 539.77,-281.14 543.35,-284.63 536.63,-284.37 546.93,-288.12 546.93,-288.12"/>
</g>
<!-- Todo -->
<g id="node20" class="node">
<title>Todo</title>
<ellipse fill="none" stroke="black" cx="990" cy="-526" rx="28.7" ry="18"/>
<text text-anchor="middle" x="990" y="-522.3" font-family="Times,serif" font-size="14.00">Todo</text>
</g>
<!-- Todolist -->
<g id="node21" class="node">
<title>Todolist</title>
<ellipse fill="none" stroke="black" cx="966" cy="-439" rx="39.79" ry="18"/>
<text text-anchor="middle" x="966" y="-435.3" font-family="Times,serif" font-size="14.00">Todolist</text>
</g>
<!-- Todo&#45;&gt;Todolist -->
<g id="edge41" class="edge">
<title>Todo&#45;&gt;Todolist</title>
<path fill="none" stroke="#5cc326" d="M982.51,-498.47C979.68,-488.44 976.45,-477.01 973.61,-466.94"/>
<polygon fill="#5cc326" stroke="#5cc326" points="982.54,-498.58 980.93,-509.43 983.9,-503.39 985.26,-508.21 985.26,-508.21 985.26,-508.21 983.9,-503.39 989.59,-506.98 982.54,-498.58 982.54,-498.58"/>
<polygon fill="#5cc326" stroke="#5cc326" points="973.53,-466.67 975.14,-455.83 972.17,-461.86 970.81,-457.05 970.81,-457.05 970.81,-457.05 972.17,-461.86 966.48,-458.27 973.53,-466.67 973.53,-466.67"/>
</g>
<!-- Todo&#45;&gt;User -->
<g id="edge39" class="edge">
<title>Todo&#45;&gt;User</title>
<path fill="none" stroke="#f70b7a" d="M959.44,-510.17C956.96,-509.32 954.46,-508.58 952,-508 906.97,-497.36 577.14,-511.17 536,-490 487.56,-465.07 460.98,-442.03 468,-388 473.15,-348.34 471.06,-335.67 491,-301 493.89,-295.97 497.69,-291.16 501.72,-286.8"/>
<polygon fill="#f70b7a" stroke="#f70b7a" points="959.48,-510.18 967.15,-518.02 964.14,-512 968.79,-513.83 968.79,-513.83 968.79,-513.83 964.14,-512 970.43,-509.64 959.48,-510.18 959.48,-510.18"/>
<polygon fill="#f70b7a" stroke="#f70b7a" points="501.98,-286.55 512.24,-282.69 505.52,-283.03 509.07,-279.5 509.07,-279.5 509.07,-279.5 505.52,-283.03 505.9,-276.31 501.98,-286.55 501.98,-286.55"/>
<text text-anchor="middle" x="498" y="-391.8" font-family="Times,serif" font-size="14.00">created_by</text>
</g>
<!-- Todo&#45;&gt;User -->
<g id="edge40" class="edge">
<title>Todo&#45;&gt;User</title>
<path fill="none" stroke="#40e4d9" d="M958.41,-510.4C956.26,-509.55 954.11,-508.74 952,-508 777.37,-446.66 689.1,-523.96 549,-403 518.14,-376.35 518.01,-325.15 521.48,-293.45"/>
<polygon fill="#40e4d9" stroke="#40e4d9" points="958.52,-510.44 966.01,-518.46 963.13,-512.37 967.75,-514.3 967.75,-514.3 967.75,-514.3 963.13,-512.37 969.48,-510.15 958.52,-510.44 958.52,-510.44"/>
<polygon fill="#40e4d9" stroke="#40e4d9" points="521.53,-293.04 527.27,-283.7 522.17,-288.08 522.81,-283.12 522.81,-283.12 522.81,-283.12 522.17,-288.08 518.35,-282.54 521.53,-293.04 521.53,-293.04"/>
<text text-anchor="middle" x="581" y="-391.8" font-family="Times,serif" font-size="14.00">assigned_to</text>
</g>
<!-- Todo&#45;&gt;ActionText::RichText -->
<g id="edge42" class="edge">
<title>Todo&#45;&gt;ActionText::RichText</title>
<path fill="none" stroke="#6aa091" d="M999.75,-498.65C1013.4,-463.14 1038.58,-402.68 1057,-388 1084.49,-366.1 1108.85,-394.55 1134,-370 1154.49,-350 1160.12,-316.6 1161.34,-293.05"/>
<polygon fill="#6aa091" stroke="#6aa091" points="999.61,-499.01 991.86,-506.77 997.84,-503.69 996.07,-508.36 996.07,-508.36 996.07,-508.36 997.84,-503.69 1000.27,-509.96 999.61,-499.01 999.61,-499.01"/>
<polygon fill="#6aa091" stroke="#6aa091" points="1161.34,-293.01 1166.12,-283.14 1161.48,-288.01 1161.62,-283.01 1161.62,-283.01 1161.62,-283.01 1161.48,-288.01 1157.13,-282.88 1161.34,-293.01 1161.34,-293.01"/>
<text text-anchor="middle" x="1114.5" y="-391.8" font-family="Times,serif" font-size="14.00">rich_text_description</text>
</g>
<!-- Todolist&#45;&gt;Comment -->
<g id="edge44" class="edge">
<title>Todolist&#45;&gt;Comment</title>
<path fill="none" stroke="#a220ed" d="M958.73,-411.13C956.04,-401.18 952.99,-389.91 950.29,-379.96"/>
<polygon fill="#a220ed" stroke="#a220ed" points="958.73,-411.15 957,-421.97 960.04,-415.97 961.35,-420.8 961.35,-420.8 961.35,-420.8 960.04,-415.97 965.69,-419.62 958.73,-411.15 958.73,-411.15"/>
<polygon fill="#a220ed" stroke="#a220ed" points="950.26,-379.83 951.99,-369 948.95,-375 947.65,-370.18 947.65,-370.18 947.65,-370.18 948.95,-375 943.3,-371.35 950.26,-379.83 950.26,-379.83"/>
</g>
<!-- Todolist&#45;&gt;User -->
<g id="edge43" class="edge">
<title>Todolist&#45;&gt;User</title>
<path fill="none" stroke="#6230e2" d="M917.99,-432.69C816.85,-421.11 588.94,-392.79 562,-370 539.61,-351.06 531.13,-317.44 527.92,-293.56"/>
<polygon fill="#6230e2" stroke="#6230e2" points="918.01,-432.69 927.44,-438.29 922.98,-433.26 927.95,-433.82 927.95,-433.82 927.95,-433.82 922.98,-433.26 928.46,-429.35 918.01,-432.69 918.01,-432.69"/>
<polygon fill="#6230e2" stroke="#6230e2" points="527.9,-293.3 531.27,-282.86 527.34,-288.33 526.79,-283.36 526.79,-283.36 526.79,-283.36 527.34,-288.33 522.32,-283.86 527.9,-293.3 527.9,-293.3"/>
</g>
<!-- Todolist&#45;&gt;ActionText::RichText -->
<g id="edge45" class="edge">
<title>Todolist&#45;&gt;ActionText::RichText</title>
<path fill="none" stroke="#530027" d="M978.8,-412.13C991.38,-388.99 1012.51,-355.51 1039,-334 1054.77,-321.2 1063,-325.41 1081,-316 1097.11,-307.58 1114.28,-297.06 1128.57,-287.85"/>
<polygon fill="#530027" stroke="#530027" points="978.76,-412.2 970.12,-418.95 976.43,-416.62 974.1,-421.05 974.1,-421.05 974.1,-421.05 976.43,-416.62 978.08,-423.15 978.76,-412.2 978.76,-412.2"/>
<polygon fill="#530027" stroke="#530027" points="1128.69,-287.78 1139.52,-286.08 1132.87,-285.05 1137.06,-282.32 1137.06,-282.32 1137.06,-282.32 1132.87,-285.05 1134.6,-278.55 1128.69,-287.78 1128.69,-287.78"/>
<text text-anchor="middle" x="1086.5" y="-348.3" font-family="Times,serif" font-size="14.00">rich_text_content</text>
</g>
<!-- Todolistable -->
<g id="node35" class="node">
<title>Todolistable</title>
<ellipse fill="none" stroke="black" cx="625" cy="-352" rx="53.89" ry="18"/>
<text text-anchor="middle" x="625" y="-348.3" font-family="Times,serif" font-size="14.00">Todolistable</text>
</g>
<!-- Todolist&#45;&gt;Todolistable -->
<g id="edge46" class="edge">
<title>Todolist&#45;&gt;Todolistable</title>
<path fill="none" stroke="#210902" d="M921.95,-427.56C867.06,-414.49 770.45,-391.2 688,-370 683.87,-368.94 679.58,-367.82 675.28,-366.68"/>
<polygon fill="#210902" stroke="#210902" points="921.97,-427.57 930.65,-434.26 926.83,-428.73 931.7,-429.89 931.7,-429.89 931.7,-429.89 926.83,-428.73 932.74,-425.51 921.97,-427.57 921.97,-427.57"/>
<polygon fill="#210902" stroke="#210902" points="674.96,-366.6 666.45,-359.68 670.12,-365.31 665.29,-364.02 665.29,-364.02 665.29,-364.02 670.12,-365.31 664.14,-368.37 674.96,-366.6 674.96,-366.6"/>
</g>
<!-- User&#45;&gt;Ahoy::Event -->
<g id="edge51" class="edge">
<title>User&#45;&gt;Ahoy::Event</title>
<path fill="none" stroke="#7f6f2b" d="M544.82,-240.68C547.66,-236.85 550.49,-232.87 553,-229 557.89,-221.47 562.72,-212.98 566.9,-205.16"/>
<polygon fill="#7f6f2b" stroke="#7f6f2b" points="544.74,-240.78 535.08,-245.98 541.7,-244.75 538.65,-248.71 538.65,-248.71 538.65,-248.71 541.7,-244.75 542.22,-251.45 544.74,-240.78 544.74,-240.78"/>
<polygon fill="#7f6f2b" stroke="#7f6f2b" points="567.03,-204.92 575.65,-198.14 569.34,-200.49 571.66,-196.06 571.66,-196.06 571.66,-196.06 569.34,-200.49 567.67,-193.97 567.03,-204.92 567.03,-204.92"/>
<text text-anchor="middle" x="579.5" y="-217.8" font-family="Times,serif" font-size="14.00">events</text>
</g>
<!-- User&#45;&gt;Ahoy::Visit -->
<g id="edge50" class="edge">
<title>User&#45;&gt;Ahoy::Visit</title>
<path fill="none" stroke="#7ebdaf" d="M561.17,-255.4C590.1,-246.17 628.87,-228.27 645,-196 652.16,-181.69 652.35,-174.21 645,-160 633.53,-137.82 611.11,-121.31 590.83,-110.12"/>
<polygon fill="#7ebdaf" stroke="#7ebdaf" points="560.98,-255.45 550.11,-254 556.19,-256.88 551.4,-258.31 551.4,-258.31 551.4,-258.31 556.19,-256.88 552.69,-262.62 560.98,-255.45 560.98,-255.45"/>
<polygon fill="#7ebdaf" stroke="#7ebdaf" points="590.57,-109.98 583.79,-101.36 586.14,-107.67 581.7,-105.35 581.7,-105.35 581.7,-105.35 586.14,-107.67 579.62,-109.34 590.57,-109.98 590.57,-109.98"/>
<text text-anchor="middle" x="664.5" y="-174.3" font-family="Times,serif" font-size="14.00">visits</text>
</g>
<!-- User&#45;&gt;ActiveStorage::Attachment -->
<g id="edge47" class="edge">
<title>User&#45;&gt;ActiveStorage::Attachment</title>
<path fill="none" stroke="#abf3d9" d="M492.64,-252.78C485.85,-250.7 478.73,-248.66 472,-247 428.59,-236.26 415.18,-243.86 373,-229 352.89,-221.91 331.9,-210.83 315.05,-200.89"/>
<polygon fill="#abf3d9" stroke="#abf3d9" points="492.72,-252.81 500.9,-260.11 497.49,-254.31 502.26,-255.82 502.26,-255.82 502.26,-255.82 497.49,-254.31 503.61,-251.53 492.72,-252.81 492.72,-252.81"/>
<polygon fill="#abf3d9" stroke="#abf3d9" points="314.71,-200.69 308.48,-191.67 310.43,-198.1 306.15,-195.52 306.15,-195.52 306.15,-195.52 310.43,-198.1 303.83,-199.38 314.71,-200.69 314.71,-200.69"/>
<text text-anchor="middle" x="423" y="-217.8" font-family="Times,serif" font-size="14.00">avatar_attachment</text>
</g>
<!-- User&#45;&gt;ActiveStorage::Blob -->
<g id="edge48" class="edge">
<title>User&#45;&gt;ActiveStorage::Blob</title>
<path fill="none" stroke="#f6a816" d="M561.99,-257.41C594.62,-251.14 643.9,-240.9 686,-229 705.48,-223.49 709.2,-218.19 729,-214 842.22,-190.02 975.54,-182.26 1062.71,-179.86"/>
<polygon fill="#f6a816" stroke="#f6a816" points="561.83,-257.44 551.17,-254.89 556.92,-258.38 552.01,-259.31 552.01,-259.31 552.01,-259.31 556.92,-258.38 552.85,-263.73 561.83,-257.44 561.83,-257.44"/>
<polygon fill="#f6a816" stroke="#f6a816" points="1062.85,-179.86 1072.96,-184.1 1067.85,-179.73 1072.84,-179.6 1072.84,-179.6 1072.84,-179.6 1067.85,-179.73 1072.73,-175.1 1062.85,-179.86 1062.85,-179.86"/>
<text text-anchor="middle" x="761" y="-217.8" font-family="Times,serif" font-size="14.00">avatar_blob</text>
</g>
<!-- todos -->
<g id="node36" class="node">
<title>todos</title>
<ellipse fill="none" stroke="black" cx="476" cy="-178" rx="29.8" ry="18"/>
<text text-anchor="middle" x="476" y="-174.3" font-family="Times,serif" font-size="14.00">todos</text>
</g>
<!-- User&#45;&gt;todos -->
<g id="edge49" class="edge">
<title>User&#45;&gt;todos</title>
<path fill="none" stroke="#68b464" d="M497.23,-246.48C491.3,-241.55 485.73,-235.68 482,-229 478.19,-222.18 476.31,-214.02 475.48,-206.3"/>
<polygon fill="#68b464" stroke="#68b464" points="497.41,-246.61 502.71,-256.21 501.41,-249.61 505.41,-252.61 505.41,-252.61 505.41,-252.61 501.41,-249.61 508.11,-249.01 497.41,-246.61 497.41,-246.61"/>
<polygon fill="#68b464" stroke="#68b464" points="475.47,-206.19 479.4,-195.95 475.19,-201.19 474.9,-196.2 474.9,-196.2 474.9,-196.2 475.19,-201.19 470.41,-196.46 475.47,-206.19 475.47,-206.19"/>
<text text-anchor="middle" x="517.5" y="-217.8" font-family="Times,serif" font-size="14.00">assigntments</text>
</g>
<!-- WritingEntry&#45;&gt;WritingGoal -->
<g id="edge52" class="edge">
<title>WritingEntry&#45;&gt;WritingGoal</title>
<path fill="none" stroke="#75cde6" d="M1025.92,-608.45C1039.75,-591.4 1058.12,-568.77 1071.97,-551.69"/>
<polygon fill="#75cde6" stroke="#75cde6" points="1025.74,-608.67 1015.94,-613.6 1022.59,-612.55 1019.44,-616.44 1019.44,-616.44 1019.44,-616.44 1022.59,-612.55 1022.93,-619.27 1025.74,-608.67 1025.74,-608.67"/>
<polygon fill="#75cde6" stroke="#75cde6" points="1072.07,-551.56 1081.87,-546.63 1075.22,-547.68 1078.37,-543.8 1078.37,-543.8 1078.37,-543.8 1075.22,-547.68 1074.88,-540.96 1072.07,-551.56 1072.07,-551.56"/>
</g>
<!-- WritingGoal&#45;&gt;Todolist -->
<g id="edge53" class="edge">
<title>WritingGoal&#45;&gt;Todolist</title>
<path fill="none" stroke="#e21469" d="M1060.53,-503.77C1040.71,-490.4 1015.27,-473.24 995.78,-460.09"/>
<polygon fill="#e21469" stroke="#e21469" points="1060.6,-503.82 1066.37,-513.14 1064.74,-506.61 1068.89,-509.41 1068.89,-509.41 1068.89,-509.41 1064.74,-506.61 1071.41,-505.68 1060.6,-503.82 1060.6,-503.82"/>
<polygon fill="#e21469" stroke="#e21469" points="995.58,-459.95 989.8,-450.63 991.43,-457.16 987.29,-454.36 987.29,-454.36 987.29,-454.36 991.43,-457.16 984.77,-458.09 995.58,-459.95 995.58,-459.95"/>
</g>
</g>
</svg>
