<?xml version="1.0" encoding="UTF-8" standalone="no"?>
<!DOCTYPE svg PUBLIC "-//W3C//DTD SVG 1.1//EN"
 "http://www.w3.org/Graphics/SVG/1.1/DTD/svg11.dtd">
<!-- Generated by graphviz version 3.0.0 (20220226.1711)
 -->
<!-- Title: models_diagram Pages: 1 -->
<svg width="2722pt" height="2626pt"
 viewBox="0.00 0.00 2722.00 2626.00" xmlns="http://www.w3.org/2000/svg" xmlns:xlink="http://www.w3.org/1999/xlink">
<g id="graph0" class="graph" transform="scale(1 1) rotate(0) translate(4 2622)">
<title>models_diagram</title>
<polygon fill="transparent" stroke="transparent" points="-4,4 -4,-2622 2718,-2622 2718,4 -4,4"/>
<!-- _diagram_info -->
<g id="node1" class="node">
<title>_diagram_info</title>
<text text-anchor="start" x="8" y="-2566.6" font-family="Times,serif" font-size="13.00">Models diagram</text>
<text text-anchor="start" x="8" y="-2552.6" font-family="Times,serif" font-size="13.00">Date: Jun 26 2022 &#45; 10:36</text>
<text text-anchor="start" x="8" y="-2538.6" font-family="Times,serif" font-size="13.00">Migration version: 20220625005826</text>
<text text-anchor="start" x="8" y="-2524.6" font-family="Times,serif" font-size="13.00">Generated by RailRoady 1.6.0</text>
<text text-anchor="start" x="8" y="-2510.6" font-family="Times,serif" font-size="13.00">http://railroady.prestonlee.com</text>
</g>
<!-- Ability -->
<g id="node2" class="node">
<title>Ability</title>
<polygon fill="none" stroke="black" points="232.5,-2519 232.5,-2565 287.5,-2565 287.5,-2519 232.5,-2519"/>
<text text-anchor="middle" x="260" y="-2549.8" font-family="Times,serif" font-size="14.00">Ability</text>
<polyline fill="none" stroke="black" points="232.5,-2542 287.5,-2542 "/>
<text text-anchor="middle" x="260" y="-2526.8" font-family="Times,serif" font-size="14.00"> </text>
</g>
<!-- Ahoy::Event -->
<g id="node3" class="node">
<title>Ahoy::Event</title>
<path fill="none" stroke="black" d="M823.5,-546.5C823.5,-546.5 1024.5,-546.5 1024.5,-546.5 1030.5,-546.5 1036.5,-552.5 1036.5,-558.5 1036.5,-558.5 1036.5,-655.5 1036.5,-655.5 1036.5,-661.5 1030.5,-667.5 1024.5,-667.5 1024.5,-667.5 823.5,-667.5 823.5,-667.5 817.5,-667.5 811.5,-661.5 811.5,-655.5 811.5,-655.5 811.5,-558.5 811.5,-558.5 811.5,-552.5 817.5,-546.5 823.5,-546.5"/>
<text text-anchor="middle" x="924" y="-652.3" font-family="Times,serif" font-size="14.00">Ahoy::Event</text>
<polyline fill="none" stroke="black" points="811.5,-644.5 1036.5,-644.5 "/>
<text text-anchor="start" x="819.5" y="-629.3" font-family="Times,serif" font-size="14.00">id :bigint</text>
<text text-anchor="start" x="819.5" y="-614.3" font-family="Times,serif" font-size="14.00">visit_id :bigint</text>
<text text-anchor="start" x="819.5" y="-599.3" font-family="Times,serif" font-size="14.00">user_id :bigint</text>
<text text-anchor="start" x="819.5" y="-584.3" font-family="Times,serif" font-size="14.00">name :character varying</text>
<text text-anchor="start" x="819.5" y="-569.3" font-family="Times,serif" font-size="14.00">properties :jsonb</text>
<text text-anchor="start" x="819.5" y="-554.3" font-family="Times,serif" font-size="14.00">time :timestamp(6) without time zone</text>
</g>
<!-- Ahoy::Visit -->
<g id="node4" class="node">
<title>Ahoy::Visit</title>
<path fill="none" stroke="black" d="M769.5,-73.5C769.5,-73.5 998.5,-73.5 998.5,-73.5 1004.5,-73.5 1010.5,-79.5 1010.5,-85.5 1010.5,-85.5 1010.5,-482.5 1010.5,-482.5 1010.5,-488.5 1004.5,-494.5 998.5,-494.5 998.5,-494.5 769.5,-494.5 769.5,-494.5 763.5,-494.5 757.5,-488.5 757.5,-482.5 757.5,-482.5 757.5,-85.5 757.5,-85.5 757.5,-79.5 763.5,-73.5 769.5,-73.5"/>
<text text-anchor="middle" x="884" y="-479.3" font-family="Times,serif" font-size="14.00">Ahoy::Visit</text>
<polyline fill="none" stroke="black" points="757.5,-471.5 1010.5,-471.5 "/>
<text text-anchor="start" x="765.5" y="-456.3" font-family="Times,serif" font-size="14.00">started_at :timestamp(6) without time zone</text>
<text text-anchor="start" x="765.5" y="-441.3" font-family="Times,serif" font-size="14.00">visit_token :character varying</text>
<text text-anchor="start" x="765.5" y="-426.3" font-family="Times,serif" font-size="14.00">visitor_token :character varying</text>
<text text-anchor="start" x="765.5" y="-411.3" font-family="Times,serif" font-size="14.00">user_id :bigint</text>
<text text-anchor="start" x="765.5" y="-396.3" font-family="Times,serif" font-size="14.00">ip :character varying</text>
<text text-anchor="start" x="765.5" y="-381.3" font-family="Times,serif" font-size="14.00">user_agent :text</text>
<text text-anchor="start" x="765.5" y="-366.3" font-family="Times,serif" font-size="14.00">referrer :text</text>
<text text-anchor="start" x="765.5" y="-351.3" font-family="Times,serif" font-size="14.00">referring_domain :character varying</text>
<text text-anchor="start" x="765.5" y="-336.3" font-family="Times,serif" font-size="14.00">landing_page :text</text>
<text text-anchor="start" x="765.5" y="-321.3" font-family="Times,serif" font-size="14.00">browser :character varying</text>
<text text-anchor="start" x="765.5" y="-306.3" font-family="Times,serif" font-size="14.00">os :character varying</text>
<text text-anchor="start" x="765.5" y="-291.3" font-family="Times,serif" font-size="14.00">device_type :character varying</text>
<text text-anchor="start" x="765.5" y="-276.3" font-family="Times,serif" font-size="14.00">country :character varying</text>
<text text-anchor="start" x="765.5" y="-261.3" font-family="Times,serif" font-size="14.00">region :character varying</text>
<text text-anchor="start" x="765.5" y="-246.3" font-family="Times,serif" font-size="14.00">city :character varying</text>
<text text-anchor="start" x="765.5" y="-231.3" font-family="Times,serif" font-size="14.00">latitude :double precision</text>
<text text-anchor="start" x="765.5" y="-216.3" font-family="Times,serif" font-size="14.00">longitude :double precision</text>
<text text-anchor="start" x="765.5" y="-201.3" font-family="Times,serif" font-size="14.00">utm_source :character varying</text>
<text text-anchor="start" x="765.5" y="-186.3" font-family="Times,serif" font-size="14.00">utm_medium :character varying</text>
<text text-anchor="start" x="765.5" y="-171.3" font-family="Times,serif" font-size="14.00">utm_term :character varying</text>
<text text-anchor="start" x="765.5" y="-156.3" font-family="Times,serif" font-size="14.00">utm_content :character varying</text>
<text text-anchor="start" x="765.5" y="-141.3" font-family="Times,serif" font-size="14.00">utm_campaign :character varying</text>
<text text-anchor="start" x="765.5" y="-126.3" font-family="Times,serif" font-size="14.00">app_version :character varying</text>
<text text-anchor="start" x="765.5" y="-111.3" font-family="Times,serif" font-size="14.00">os_version :character varying</text>
<text text-anchor="start" x="765.5" y="-96.3" font-family="Times,serif" font-size="14.00">platform :character varying</text>
<text text-anchor="start" x="765.5" y="-81.3" font-family="Times,serif" font-size="14.00">id :bigint</text>
</g>
<!-- Ahoy::Event&#45;&gt;Ahoy::Visit -->
<g id="edge1" class="edge">
<title>Ahoy::Event&#45;&gt;Ahoy::Visit</title>
<path fill="none" stroke="#47db12" d="M917.57,-536.45C916.75,-528.54 915.88,-520.59 915,-513 914.68,-510.26 914.36,-507.5 914.03,-504.72"/>
<polygon fill="#47db12" stroke="#47db12" points="917.57,-536.48 914.1,-546.88 918.07,-541.45 918.58,-546.43 918.58,-546.43 918.58,-546.43 918.07,-541.45 923.06,-545.97 917.57,-536.48 917.57,-536.48"/>
<polygon fill="#47db12" stroke="#47db12" points="914.01,-504.54 917.28,-494.08 913.41,-499.58 912.82,-494.61 912.82,-494.61 912.82,-494.61 913.41,-499.58 908.35,-495.15 914.01,-504.54 914.01,-504.54"/>
</g>
<!-- Ahoy::User -->
<g id="node25" class="node">
<title>Ahoy::User</title>
<ellipse fill="none" stroke="black" cx="994" cy="-18" rx="51.99" ry="18"/>
<text text-anchor="middle" x="994" y="-14.3" font-family="Times,serif" font-size="14.00">Ahoy::User</text>
</g>
<!-- Ahoy::Event&#45;&gt;Ahoy::User -->
<g id="edge2" class="edge">
<title>Ahoy::Event&#45;&gt;Ahoy::User</title>
<path fill="none" stroke="#30a0c5" d="M995.31,-538.24C1005.41,-524.94 1014.29,-510.32 1020,-495 1085.46,-319.24 1061.73,-255.85 1020,-73 1017.79,-63.32 1013.61,-53.34 1009.24,-44.65"/>
<polygon fill="#30a0c5" stroke="#30a0c5" points="995.1,-538.51 985.36,-543.55 991.99,-542.43 988.88,-546.35 988.88,-546.35 988.88,-546.35 991.99,-542.43 992.41,-549.14 995.1,-538.51 995.1,-538.51"/>
<polygon fill="#30a0c5" stroke="#30a0c5" points="1009.22,-44.6 1008.48,-33.66 1006.86,-40.19 1004.51,-35.78 1004.51,-35.78 1004.51,-35.78 1006.86,-40.19 1000.54,-37.9 1009.22,-44.6 1009.22,-44.6"/>
</g>
<!-- Ahoy::Visit&#45;&gt;Ahoy::Event -->
<g id="edge3" class="edge">
<title>Ahoy::Visit&#45;&gt;Ahoy::Event</title>
<path fill="none" stroke="#580a95" d="M870.6,-504.81C872.07,-512.68 873.86,-520.43 876,-528 876.84,-530.96 877.83,-533.93 878.93,-536.87"/>
<polygon fill="#580a95" stroke="#580a95" points="870.57,-504.64 873.33,-494.02 869.73,-499.71 868.89,-494.78 868.89,-494.78 868.89,-494.78 869.73,-499.71 864.46,-495.53 870.57,-504.64 870.57,-504.64"/>
<polygon fill="#580a95" stroke="#580a95" points="878.97,-536.97 878.7,-547.93 880.91,-541.58 882.85,-546.19 882.85,-546.19 882.85,-546.19 880.91,-541.58 887,-544.44 878.97,-536.97 878.97,-536.97"/>
<text text-anchor="middle" x="893.5" y="-516.8" font-family="Times,serif" font-size="14.00">events</text>
</g>
<!-- Ahoy::Visit&#45;&gt;Ahoy::User -->
<g id="edge4" class="edge">
<title>Ahoy::Visit&#45;&gt;Ahoy::User</title>
<path fill="none" stroke="#bc33a7" d="M975.3,-63.89C978.07,-57.23 980.62,-51.11 982.89,-45.67"/>
<polygon fill="#bc33a7" stroke="#bc33a7" points="975.19,-64.15 967.19,-71.65 973.26,-68.77 971.34,-73.38 971.34,-73.38 971.34,-73.38 973.26,-68.77 975.5,-75.11 975.19,-64.15 975.19,-64.15"/>
<polygon fill="#bc33a7" stroke="#bc33a7" points="983.03,-45.32 991.03,-37.82 984.96,-40.7 986.88,-36.09 986.88,-36.09 986.88,-36.09 984.96,-40.7 982.73,-34.36 983.03,-45.32 983.03,-45.32"/>
</g>
<!-- Announcement -->
<g id="node5" class="node">
<title>Announcement</title>
<path fill="none" stroke="black" d="M596.5,-2466.5C596.5,-2466.5 841.5,-2466.5 841.5,-2466.5 847.5,-2466.5 853.5,-2472.5 853.5,-2478.5 853.5,-2478.5 853.5,-2605.5 853.5,-2605.5 853.5,-2611.5 847.5,-2617.5 841.5,-2617.5 841.5,-2617.5 596.5,-2617.5 596.5,-2617.5 590.5,-2617.5 584.5,-2611.5 584.5,-2605.5 584.5,-2605.5 584.5,-2478.5 584.5,-2478.5 584.5,-2472.5 590.5,-2466.5 596.5,-2466.5"/>
<text text-anchor="middle" x="719" y="-2602.3" font-family="Times,serif" font-size="14.00">Announcement</text>
<polyline fill="none" stroke="black" points="584.5,-2594.5 853.5,-2594.5 "/>
<text text-anchor="start" x="592.5" y="-2579.3" font-family="Times,serif" font-size="14.00">updated_at :timestamp(6) without time zone</text>
<text text-anchor="start" x="592.5" y="-2564.3" font-family="Times,serif" font-size="14.00">title :character varying</text>
<text text-anchor="start" x="592.5" y="-2549.3" font-family="Times,serif" font-size="14.00">summary :text</text>
<text text-anchor="start" x="592.5" y="-2534.3" font-family="Times,serif" font-size="14.00">published_at :timestamp(6) without time zone</text>
<text text-anchor="start" x="592.5" y="-2519.3" font-family="Times,serif" font-size="14.00">announceable_id :character varying</text>
<text text-anchor="start" x="592.5" y="-2504.3" font-family="Times,serif" font-size="14.00">announceable_type :character varying</text>
<text text-anchor="start" x="592.5" y="-2489.3" font-family="Times,serif" font-size="14.00">created_at :timestamp(6) without time zone</text>
<text text-anchor="start" x="592.5" y="-2474.3" font-family="Times,serif" font-size="14.00">id :bigint</text>
</g>
<!-- ApplicationRecord -->
<g id="node6" class="node">
<title>ApplicationRecord</title>
<ellipse fill="none" stroke="black" cx="949" cy="-2542" rx="77.19" ry="18"/>
<text text-anchor="middle" x="949" y="-2538.3" font-family="Times,serif" font-size="14.00">ApplicationRecord</text>
</g>
<!-- Author -->
<g id="node7" class="node">
<title>Author</title>
<path fill="none" stroke="black" d="M318,-2481.5C318,-2481.5 554,-2481.5 554,-2481.5 560,-2481.5 566,-2487.5 566,-2493.5 566,-2493.5 566,-2590.5 566,-2590.5 566,-2596.5 560,-2602.5 554,-2602.5 554,-2602.5 318,-2602.5 318,-2602.5 312,-2602.5 306,-2596.5 306,-2590.5 306,-2590.5 306,-2493.5 306,-2493.5 306,-2487.5 312,-2481.5 318,-2481.5"/>
<text text-anchor="middle" x="436" y="-2587.3" font-family="Times,serif" font-size="14.00">Author</text>
<polyline fill="none" stroke="black" points="306,-2579.5 566,-2579.5 "/>
<text text-anchor="start" x="314" y="-2564.3" font-family="Times,serif" font-size="14.00">id :bigint</text>
<text text-anchor="start" x="314" y="-2549.3" font-family="Times,serif" font-size="14.00">book_id :bigint</text>
<text text-anchor="start" x="314" y="-2534.3" font-family="Times,serif" font-size="14.00">user_id :bigint</text>
<text text-anchor="start" x="314" y="-2519.3" font-family="Times,serif" font-size="14.00">summary :character varying</text>
<text text-anchor="start" x="314" y="-2504.3" font-family="Times,serif" font-size="14.00">created_at :timestamp(6) without time zone</text>
<text text-anchor="start" x="314" y="-2489.3" font-family="Times,serif" font-size="14.00">updated_at :timestamp(6) without time zone</text>
</g>
<!-- Book -->
<g id="node8" class="node">
<title>Book</title>
<path fill="none" stroke="black" d="M1562,-2232.5C1562,-2232.5 1798,-2232.5 1798,-2232.5 1804,-2232.5 1810,-2238.5 1810,-2244.5 1810,-2244.5 1810,-2416.5 1810,-2416.5 1810,-2422.5 1804,-2428.5 1798,-2428.5 1798,-2428.5 1562,-2428.5 1562,-2428.5 1556,-2428.5 1550,-2422.5 1550,-2416.5 1550,-2416.5 1550,-2244.5 1550,-2244.5 1550,-2238.5 1556,-2232.5 1562,-2232.5"/>
<text text-anchor="middle" x="1680" y="-2413.3" font-family="Times,serif" font-size="14.00">Book</text>
<polyline fill="none" stroke="black" points="1550,-2405.5 1810,-2405.5 "/>
<text text-anchor="start" x="1558" y="-2390.3" font-family="Times,serif" font-size="14.00">deleted_at :timestamp(6) without time zone</text>
<text text-anchor="start" x="1558" y="-2375.3" font-family="Times,serif" font-size="14.00">title :character varying</text>
<text text-anchor="start" x="1558" y="-2360.3" font-family="Times,serif" font-size="14.00">slug :character varying</text>
<text text-anchor="start" x="1558" y="-2345.3" font-family="Times,serif" font-size="14.00">is_featured :boolean</text>
<text text-anchor="start" x="1558" y="-2330.3" font-family="Times,serif" font-size="14.00">released_on :date</text>
<text text-anchor="start" x="1558" y="-2315.3" font-family="Times,serif" font-size="14.00">created_at :timestamp(6) without time zone</text>
<text text-anchor="start" x="1558" y="-2300.3" font-family="Times,serif" font-size="14.00">updated_at :timestamp(6) without time zone</text>
<text text-anchor="start" x="1558" y="-2285.3" font-family="Times,serif" font-size="14.00">cover_color :character varying</text>
<text text-anchor="start" x="1558" y="-2270.3" font-family="Times,serif" font-size="14.00">tagline :text</text>
<text text-anchor="start" x="1558" y="-2255.3" font-family="Times,serif" font-size="14.00">is_wip :boolean</text>
<text text-anchor="start" x="1558" y="-2240.3" font-family="Times,serif" font-size="14.00">id :bigint</text>
</g>
<!-- Author&#45;&gt;Book -->
<g id="edge5" class="edge">
<title>Author&#45;&gt;Book</title>
<path fill="none" stroke="#098bf3" d="M545.5,-2477.17C555.28,-2472.93 565.2,-2469.12 575,-2466 909.93,-2359.47 1326.65,-2336.42 1539.93,-2332"/>
<polygon fill="#098bf3" stroke="#098bf3" points="545.29,-2477.27 534.33,-2477.25 540.73,-2479.31 536.17,-2481.36 536.17,-2481.36 536.17,-2481.36 540.73,-2479.31 538.01,-2485.46 545.29,-2477.27 545.29,-2477.27"/>
<polygon fill="#098bf3" stroke="#098bf3" points="1539.93,-2332 1550.02,-2336.31 1544.93,-2331.9 1549.93,-2331.81 1549.93,-2331.81 1549.93,-2331.81 1544.93,-2331.9 1549.84,-2327.31 1539.93,-2332 1539.93,-2332"/>
</g>
<!-- User -->
<g id="node22" class="node">
<title>User</title>
<path fill="none" stroke="black" d="M618,-719.5C618,-719.5 970,-719.5 970,-719.5 976,-719.5 982,-725.5 982,-731.5 982,-731.5 982,-1098.5 982,-1098.5 982,-1104.5 976,-1110.5 970,-1110.5 970,-1110.5 618,-1110.5 618,-1110.5 612,-1110.5 606,-1104.5 606,-1098.5 606,-1098.5 606,-731.5 606,-731.5 606,-725.5 612,-719.5 618,-719.5"/>
<text text-anchor="middle" x="794" y="-1095.3" font-family="Times,serif" font-size="14.00">User</text>
<polyline fill="none" stroke="black" points="606,-1087.5 982,-1087.5 "/>
<text text-anchor="start" x="614" y="-1072.3" font-family="Times,serif" font-size="14.00">name :character varying</text>
<text text-anchor="start" x="614" y="-1057.3" font-family="Times,serif" font-size="14.00">email :character varying</text>
<text text-anchor="start" x="614" y="-1042.3" font-family="Times,serif" font-size="14.00">encrypted_password :character varying</text>
<text text-anchor="start" x="614" y="-1027.3" font-family="Times,serif" font-size="14.00">reset_password_token :character varying</text>
<text text-anchor="start" x="614" y="-1012.3" font-family="Times,serif" font-size="14.00">reset_password_sent_at :timestamp(6) without time zone</text>
<text text-anchor="start" x="614" y="-997.3" font-family="Times,serif" font-size="14.00">remember_created_at :timestamp(6) without time zone</text>
<text text-anchor="start" x="614" y="-982.3" font-family="Times,serif" font-size="14.00">sign_in_count :integer</text>
<text text-anchor="start" x="614" y="-967.3" font-family="Times,serif" font-size="14.00">current_sign_in_at :timestamp(6) without time zone</text>
<text text-anchor="start" x="614" y="-952.3" font-family="Times,serif" font-size="14.00">last_sign_in_at :timestamp(6) without time zone</text>
<text text-anchor="start" x="614" y="-937.3" font-family="Times,serif" font-size="14.00">current_sign_in_ip :character varying</text>
<text text-anchor="start" x="614" y="-922.3" font-family="Times,serif" font-size="14.00">last_sign_in_ip :character varying</text>
<text text-anchor="start" x="614" y="-907.3" font-family="Times,serif" font-size="14.00">confirmation_token :character varying</text>
<text text-anchor="start" x="614" y="-892.3" font-family="Times,serif" font-size="14.00">confirmed_at :timestamp(6) without time zone</text>
<text text-anchor="start" x="614" y="-877.3" font-family="Times,serif" font-size="14.00">confirmation_sent_at :timestamp(6) without time zone</text>
<text text-anchor="start" x="614" y="-862.3" font-family="Times,serif" font-size="14.00">unconfirmed_email :character varying</text>
<text text-anchor="start" x="614" y="-847.3" font-family="Times,serif" font-size="14.00">failed_attempts :integer</text>
<text text-anchor="start" x="614" y="-832.3" font-family="Times,serif" font-size="14.00">unlock_token :character varying</text>
<text text-anchor="start" x="614" y="-817.3" font-family="Times,serif" font-size="14.00">locked_at :timestamp(6) without time zone</text>
<text text-anchor="start" x="614" y="-802.3" font-family="Times,serif" font-size="14.00">created_at :timestamp(6) without time zone</text>
<text text-anchor="start" x="614" y="-787.3" font-family="Times,serif" font-size="14.00">updated_at :timestamp(6) without time zone</text>
<text text-anchor="start" x="614" y="-772.3" font-family="Times,serif" font-size="14.00">slug :character varying</text>
<text text-anchor="start" x="614" y="-757.3" font-family="Times,serif" font-size="14.00">authentication_token :character varying</text>
<text text-anchor="start" x="614" y="-742.3" font-family="Times,serif" font-size="14.00">authentication_token_expires_at :timestamp(6) without time zone</text>
<text text-anchor="start" x="614" y="-727.3" font-family="Times,serif" font-size="14.00">id :bigint</text>
</g>
<!-- Author&#45;&gt;User -->
<g id="edge6" class="edge">
<title>Author&#45;&gt;User</title>
<path fill="none" stroke="#0c4d4d" d="M316.88,-2476.69C309.84,-2473.04 302.84,-2469.45 296,-2466 171.7,-2403.21 13,-2470.76 13,-2331.5 13,-2331.5 13,-2331.5 13,-1646.5 13,-1567.33 -20.5,-1524.42 37,-1470 139.82,-1372.69 569.55,-1516.69 672,-1419 713.67,-1379.26 691.46,-1217.96 705,-1162 708.32,-1148.28 712.15,-1134.27 716.3,-1120.23"/>
<polygon fill="#0c4d4d" stroke="#0c4d4d" points="316.96,-2476.73 323.75,-2485.33 321.39,-2479.03 325.83,-2481.34 325.83,-2481.34 325.83,-2481.34 321.39,-2479.03 327.91,-2477.35 316.96,-2476.73 316.96,-2476.73"/>
<polygon fill="#0c4d4d" stroke="#0c4d4d" points="716.35,-1120.09 723.54,-1111.82 717.79,-1115.3 719.24,-1110.52 719.24,-1110.52 719.24,-1110.52 717.79,-1115.3 714.93,-1109.22 716.35,-1120.09 716.35,-1120.09"/>
</g>
<!-- Episode -->
<g id="node12" class="node">
<title>Episode</title>
<path fill="none" stroke="black" d="M829,-2036C829,-2036 1065,-2036 1065,-2036 1071,-2036 1077,-2042 1077,-2048 1077,-2048 1077,-2145 1077,-2145 1077,-2151 1071,-2157 1065,-2157 1065,-2157 829,-2157 829,-2157 823,-2157 817,-2151 817,-2145 817,-2145 817,-2048 817,-2048 817,-2042 823,-2036 829,-2036"/>
<text text-anchor="middle" x="947" y="-2141.8" font-family="Times,serif" font-size="14.00">Episode</text>
<polyline fill="none" stroke="black" points="817,-2134 1077,-2134 "/>
<text text-anchor="start" x="825" y="-2118.8" font-family="Times,serif" font-size="14.00">id :bigint</text>
<text text-anchor="start" x="825" y="-2103.8" font-family="Times,serif" font-size="14.00">book_id :bigint</text>
<text text-anchor="start" x="825" y="-2088.8" font-family="Times,serif" font-size="14.00">series_id :bigint</text>
<text text-anchor="start" x="825" y="-2073.8" font-family="Times,serif" font-size="14.00">order :integer</text>
<text text-anchor="start" x="825" y="-2058.8" font-family="Times,serif" font-size="14.00">created_at :timestamp(6) without time zone</text>
<text text-anchor="start" x="825" y="-2043.8" font-family="Times,serif" font-size="14.00">updated_at :timestamp(6) without time zone</text>
</g>
<!-- Book&#45;&gt;Episode -->
<g id="edge13" class="edge">
<title>Book&#45;&gt;Episode</title>
<path fill="none" stroke="#796645" d="M1539.88,-2308.45C1422.66,-2288 1252.53,-2251.64 1112,-2195 1089.62,-2185.98 1066.68,-2174.25 1045.3,-2162.07"/>
<polygon fill="#796645" stroke="#796645" points="1540.14,-2308.49 1549.23,-2314.63 1545.07,-2309.34 1549.99,-2310.19 1549.99,-2310.19 1549.99,-2310.19 1545.07,-2309.34 1550.76,-2305.76 1540.14,-2308.49 1540.14,-2308.49"/>
<polygon fill="#796645" stroke="#796645" points="1045.21,-2162.01 1038.8,-2153.11 1040.88,-2159.51 1036.55,-2157.01 1036.55,-2157.01 1036.55,-2157.01 1040.88,-2159.51 1034.3,-2160.91 1045.21,-2162.01 1045.21,-2162.01"/>
</g>
<!-- Link -->
<g id="node13" class="node">
<title>Link</title>
<path fill="none" stroke="black" d="M1133,-1998.5C1133,-1998.5 1369,-1998.5 1369,-1998.5 1375,-1998.5 1381,-2004.5 1381,-2010.5 1381,-2010.5 1381,-2182.5 1381,-2182.5 1381,-2188.5 1375,-2194.5 1369,-2194.5 1369,-2194.5 1133,-2194.5 1133,-2194.5 1127,-2194.5 1121,-2188.5 1121,-2182.5 1121,-2182.5 1121,-2010.5 1121,-2010.5 1121,-2004.5 1127,-1998.5 1133,-1998.5"/>
<text text-anchor="middle" x="1251" y="-2179.3" font-family="Times,serif" font-size="14.00">Link</text>
<polyline fill="none" stroke="black" points="1121,-2171.5 1381,-2171.5 "/>
<text text-anchor="start" x="1129" y="-2156.3" font-family="Times,serif" font-size="14.00">deleted_at :timestamp(6) without time zone</text>
<text text-anchor="start" x="1129" y="-2141.3" font-family="Times,serif" font-size="14.00">slug :character varying</text>
<text text-anchor="start" x="1129" y="-2126.3" font-family="Times,serif" font-size="14.00">url :character varying</text>
<text text-anchor="start" x="1129" y="-2111.3" font-family="Times,serif" font-size="14.00">clicked :integer</text>
<text text-anchor="start" x="1129" y="-2096.3" font-family="Times,serif" font-size="14.00">comment :text</text>
<text text-anchor="start" x="1129" y="-2081.3" font-family="Times,serif" font-size="14.00">created_at :timestamp(6) without time zone</text>
<text text-anchor="start" x="1129" y="-2066.3" font-family="Times,serif" font-size="14.00">updated_at :timestamp(6) without time zone</text>
<text text-anchor="start" x="1129" y="-2051.3" font-family="Times,serif" font-size="14.00">linkable_id :integer</text>
<text text-anchor="start" x="1129" y="-2036.3" font-family="Times,serif" font-size="14.00">linkable_type :character varying</text>
<text text-anchor="start" x="1129" y="-2021.3" font-family="Times,serif" font-size="14.00">css :character varying</text>
<text text-anchor="start" x="1129" y="-2006.3" font-family="Times,serif" font-size="14.00">id :bigint</text>
</g>
<!-- Book&#45;&gt;Link -->
<g id="edge17" class="edge">
<title>Book&#45;&gt;Link</title>
<path fill="none" stroke="#74c619" d="M1540.98,-2254.32C1492.6,-2228.16 1438.35,-2198.82 1389.97,-2172.65"/>
<polygon fill="#74c619" stroke="#74c619" points="1541.03,-2254.35 1547.69,-2263.06 1545.43,-2256.73 1549.83,-2259.11 1549.83,-2259.11 1549.83,-2259.11 1545.43,-2256.73 1551.97,-2255.15 1541.03,-2254.35 1541.03,-2254.35"/>
<polygon fill="#74c619" stroke="#74c619" points="1389.8,-2172.56 1383.15,-2163.85 1385.41,-2170.19 1381.01,-2167.81 1381.01,-2167.81 1381.01,-2167.81 1385.41,-2170.19 1378.87,-2171.77 1389.8,-2172.56 1389.8,-2172.56"/>
</g>
<!-- Praise -->
<g id="node16" class="node">
<title>Praise</title>
<path fill="none" stroke="black" d="M2228,-1873.5C2228,-1873.5 2464,-1873.5 2464,-1873.5 2470,-1873.5 2476,-1879.5 2476,-1885.5 2476,-1885.5 2476,-1967.5 2476,-1967.5 2476,-1973.5 2470,-1979.5 2464,-1979.5 2464,-1979.5 2228,-1979.5 2228,-1979.5 2222,-1979.5 2216,-1973.5 2216,-1967.5 2216,-1967.5 2216,-1885.5 2216,-1885.5 2216,-1879.5 2222,-1873.5 2228,-1873.5"/>
<text text-anchor="middle" x="2346" y="-1964.3" font-family="Times,serif" font-size="14.00">Praise</text>
<polyline fill="none" stroke="black" points="2216,-1956.5 2476,-1956.5 "/>
<text text-anchor="start" x="2224" y="-1941.3" font-family="Times,serif" font-size="14.00">id :bigint</text>
<text text-anchor="start" x="2224" y="-1926.3" font-family="Times,serif" font-size="14.00">book_id :bigint</text>
<text text-anchor="start" x="2224" y="-1911.3" font-family="Times,serif" font-size="14.00">created_at :timestamp(6) without time zone</text>
<text text-anchor="start" x="2224" y="-1896.3" font-family="Times,serif" font-size="14.00">updated_at :timestamp(6) without time zone</text>
<text text-anchor="start" x="2224" y="-1881.3" font-family="Times,serif" font-size="14.00">deleted_at :timestamp(6) without time zone</text>
</g>
<!-- Book&#45;&gt;Praise -->
<g id="edge16" class="edge">
<title>Book&#45;&gt;Praise</title>
<path fill="none" stroke="#e8a98e" d="M1820.23,-2313.59C1957.73,-2295.5 2155.18,-2262.11 2215,-2214 2285.13,-2157.6 2319.23,-2055.33 2334.64,-1989.47"/>
<polygon fill="#e8a98e" stroke="#e8a98e" points="1819.94,-2313.63 1809.44,-2310.45 1814.98,-2314.27 1810.02,-2314.92 1810.02,-2314.92 1810.02,-2314.92 1814.98,-2314.27 1810.61,-2319.38 1819.94,-2313.63 1819.94,-2313.63"/>
<polygon fill="#e8a98e" stroke="#e8a98e" points="2334.66,-1989.37 2341.26,-1980.61 2335.77,-1984.5 2336.87,-1979.62 2336.87,-1979.62 2336.87,-1979.62 2335.77,-1984.5 2332.48,-1978.63 2334.66,-1989.37 2334.66,-1989.37"/>
</g>
<!-- Series -->
<g id="node18" class="node">
<title>Series</title>
<path fill="none" stroke="black" d="M605,-1696C605,-1696 841,-1696 841,-1696 847,-1696 853,-1702 853,-1708 853,-1708 853,-1820 853,-1820 853,-1826 847,-1832 841,-1832 841,-1832 605,-1832 605,-1832 599,-1832 593,-1826 593,-1820 593,-1820 593,-1708 593,-1708 593,-1702 599,-1696 605,-1696"/>
<text text-anchor="middle" x="723" y="-1816.8" font-family="Times,serif" font-size="14.00">Series</text>
<polyline fill="none" stroke="black" points="593,-1809 853,-1809 "/>
<text text-anchor="start" x="601" y="-1793.8" font-family="Times,serif" font-size="14.00">id :bigint</text>
<text text-anchor="start" x="601" y="-1778.8" font-family="Times,serif" font-size="14.00">title :character varying</text>
<text text-anchor="start" x="601" y="-1763.8" font-family="Times,serif" font-size="14.00">slug :character varying</text>
<text text-anchor="start" x="601" y="-1748.8" font-family="Times,serif" font-size="14.00">synopsis :text</text>
<text text-anchor="start" x="601" y="-1733.8" font-family="Times,serif" font-size="14.00">created_at :timestamp(6) without time zone</text>
<text text-anchor="start" x="601" y="-1718.8" font-family="Times,serif" font-size="14.00">updated_at :timestamp(6) without time zone</text>
<text text-anchor="start" x="601" y="-1703.8" font-family="Times,serif" font-size="14.00">deleted_at :timestamp(6) without time zone</text>
</g>
<!-- Book&#45;&gt;Series -->
<g id="edge14" class="edge">
<title>Book&#45;&gt;Series</title>
<path fill="none" stroke="#ddc132" d="M1539.37,-2326.82C1319.85,-2319.61 910.24,-2293.03 808,-2195 712.9,-2103.83 707.55,-1939.32 714.06,-1842.35"/>
<polygon fill="#ddc132" stroke="#ddc132" points="1539.68,-2326.83 1549.53,-2331.65 1544.68,-2326.99 1549.68,-2327.15 1549.68,-2327.15 1549.68,-2327.15 1544.68,-2326.99 1549.82,-2322.65 1539.68,-2326.83 1539.68,-2326.83"/>
<polygon fill="#ddc132" stroke="#ddc132" points="714.06,-1842.29 719.28,-1832.65 714.43,-1837.31 714.79,-1832.32 714.79,-1832.32 714.79,-1832.32 714.43,-1837.31 710.3,-1831.99 714.06,-1842.29 714.06,-1842.29"/>
</g>
<!-- WritingEntry -->
<g id="node23" class="node">
<title>WritingEntry</title>
<path fill="none" stroke="black" d="M1562,-2028.5C1562,-2028.5 1798,-2028.5 1798,-2028.5 1804,-2028.5 1810,-2034.5 1810,-2040.5 1810,-2040.5 1810,-2152.5 1810,-2152.5 1810,-2158.5 1804,-2164.5 1798,-2164.5 1798,-2164.5 1562,-2164.5 1562,-2164.5 1556,-2164.5 1550,-2158.5 1550,-2152.5 1550,-2152.5 1550,-2040.5 1550,-2040.5 1550,-2034.5 1556,-2028.5 1562,-2028.5"/>
<text text-anchor="middle" x="1680" y="-2149.3" font-family="Times,serif" font-size="14.00">WritingEntry</text>
<polyline fill="none" stroke="black" points="1550,-2141.5 1810,-2141.5 "/>
<text text-anchor="start" x="1558" y="-2126.3" font-family="Times,serif" font-size="14.00">id :bigint</text>
<text text-anchor="start" x="1558" y="-2111.3" font-family="Times,serif" font-size="14.00">wrote_on :date</text>
<text text-anchor="start" x="1558" y="-2096.3" font-family="Times,serif" font-size="14.00">count :integer</text>
<text text-anchor="start" x="1558" y="-2081.3" font-family="Times,serif" font-size="14.00">comment :character varying</text>
<text text-anchor="start" x="1558" y="-2066.3" font-family="Times,serif" font-size="14.00">created_at :timestamp(6) without time zone</text>
<text text-anchor="start" x="1558" y="-2051.3" font-family="Times,serif" font-size="14.00">updated_at :timestamp(6) without time zone</text>
<text text-anchor="start" x="1558" y="-2036.3" font-family="Times,serif" font-size="14.00">writing_goal_id :bigint</text>
</g>
<!-- Book&#45;&gt;WritingEntry -->
<g id="edge18" class="edge">
<title>Book&#45;&gt;WritingEntry</title>
<path fill="none" stroke="#d16ed0" d="M1680,-2222.23C1680,-2206.27 1680,-2190.09 1680,-2174.9"/>
<polygon fill="#d16ed0" stroke="#d16ed0" points="1680,-2222.46 1675.5,-2232.46 1680,-2227.46 1680,-2232.46 1680,-2232.46 1680,-2232.46 1680,-2227.46 1684.5,-2232.46 1680,-2222.46 1680,-2222.46"/>
<polygon fill="#d16ed0" stroke="#d16ed0" points="1680,-2174.57 1684.5,-2164.57 1680,-2169.57 1680,-2164.57 1680,-2164.57 1680,-2164.57 1680,-2169.57 1675.5,-2164.57 1680,-2174.57 1680,-2174.57"/>
</g>
<!-- WritingGoal -->
<g id="node24" class="node">
<title>WritingGoal</title>
<path fill="none" stroke="black" d="M1720,-1681C1720,-1681 1956,-1681 1956,-1681 1962,-1681 1968,-1687 1968,-1693 1968,-1693 1968,-1835 1968,-1835 1968,-1841 1962,-1847 1956,-1847 1956,-1847 1720,-1847 1720,-1847 1714,-1847 1708,-1841 1708,-1835 1708,-1835 1708,-1693 1708,-1693 1708,-1687 1714,-1681 1720,-1681"/>
<text text-anchor="middle" x="1838" y="-1831.8" font-family="Times,serif" font-size="14.00">WritingGoal</text>
<polyline fill="none" stroke="black" points="1708,-1824 1968,-1824 "/>
<text text-anchor="start" x="1716" y="-1808.8" font-family="Times,serif" font-size="14.00">slug :character varying</text>
<text text-anchor="start" x="1716" y="-1793.8" font-family="Times,serif" font-size="14.00">book_id :bigint</text>
<text text-anchor="start" x="1716" y="-1778.8" font-family="Times,serif" font-size="14.00">start_on :date</text>
<text text-anchor="start" x="1716" y="-1763.8" font-family="Times,serif" font-size="14.00">finish_on :date</text>
<text text-anchor="start" x="1716" y="-1748.8" font-family="Times,serif" font-size="14.00">target :integer</text>
<text text-anchor="start" x="1716" y="-1733.8" font-family="Times,serif" font-size="14.00">summary :text</text>
<text text-anchor="start" x="1716" y="-1718.8" font-family="Times,serif" font-size="14.00">created_at :timestamp(6) without time zone</text>
<text text-anchor="start" x="1716" y="-1703.8" font-family="Times,serif" font-size="14.00">updated_at :timestamp(6) without time zone</text>
<text text-anchor="start" x="1716" y="-1688.8" font-family="Times,serif" font-size="14.00">id :bigint</text>
</g>
<!-- Book&#45;&gt;WritingGoal -->
<g id="edge15" class="edge">
<title>Book&#45;&gt;WritingGoal</title>
<path fill="none" stroke="#038aaf" d="M1802.16,-2224.35C1808.68,-2214.99 1814.42,-2205.18 1819,-2195 1867.71,-2086.8 1863.3,-1947.38 1852.93,-1857.1"/>
<polygon fill="#038aaf" stroke="#038aaf" points="1802.14,-2224.38 1792.61,-2229.8 1799.19,-2228.42 1796.24,-2232.45 1796.24,-2232.45 1796.24,-2232.45 1799.19,-2228.42 1799.88,-2235.11 1802.14,-2224.38 1802.14,-2224.38"/>
<polygon fill="#038aaf" stroke="#038aaf" points="1852.93,-1857.09 1856.21,-1846.63 1852.34,-1852.13 1851.74,-1847.16 1851.74,-1847.16 1851.74,-1847.16 1852.34,-1852.13 1847.27,-1847.7 1852.93,-1857.09 1852.93,-1857.09"/>
</g>
<!-- ActionText::RichText -->
<g id="node26" class="node">
<title>ActionText::RichText</title>
<ellipse fill="none" stroke="black" cx="1975" cy="-915" rx="87.18" ry="18"/>
<text text-anchor="middle" x="1975" y="-911.3" font-family="Times,serif" font-size="14.00">ActionText::RichText</text>
</g>
<!-- Book&#45;&gt;ActionText::RichText -->
<g id="edge7" class="edge">
<title>Book&#45;&gt;ActionText::RichText</title>
<path fill="none" stroke="#cf1f86" d="M1819.83,-2286.8C1904.4,-2251.35 1996,-2191.31 1996,-2097.5 1996,-2097.5 1996,-2097.5 1996,-1545 1996,-1311.86 1981.41,-1030.39 1976.55,-943.12"/>
<polygon fill="#cf1f86" stroke="#cf1f86" points="1819.61,-2286.89 1808.65,-2286.52 1814.98,-2288.79 1810.35,-2290.69 1810.35,-2290.69 1810.35,-2290.69 1814.98,-2288.79 1812.06,-2294.85 1819.61,-2286.89 1819.61,-2286.89"/>
<polygon fill="#cf1f86" stroke="#cf1f86" points="1976.55,-942.99 1980.48,-932.75 1976.27,-938 1975.98,-933.01 1975.98,-933.01 1975.98,-933.01 1976.27,-938 1971.49,-933.26 1976.55,-942.99 1976.55,-942.99"/>
<text text-anchor="middle" x="2047" y="-1643.8" font-family="Times,serif" font-size="14.00">rich_text_synopsis</text>
</g>
<!-- Book&#45;&gt;ActionText::RichText -->
<g id="edge8" class="edge">
<title>Book&#45;&gt;ActionText::RichText</title>
<path fill="none" stroke="#efa663" d="M1819.66,-2297.23C1879.68,-2276.93 1946.18,-2244.81 1991,-2195 2114.66,-2057.56 2257.09,-1600.75 2291,-1419 2311.95,-1306.72 2341.16,-1264.62 2291,-1162 2234.53,-1046.48 2094.72,-969.48 2021.47,-935.63"/>
<polygon fill="#efa663" stroke="#efa663" points="1819.58,-2297.25 1808.67,-2296.11 1814.83,-2298.82 1810.08,-2300.39 1810.08,-2300.39 1810.08,-2300.39 1814.83,-2298.82 1811.49,-2304.66 1819.58,-2297.25 1819.58,-2297.25"/>
<polygon fill="#efa663" stroke="#efa663" points="2021.12,-935.48 2013.88,-927.24 2016.57,-933.41 2012.02,-931.34 2012.02,-931.34 2012.02,-931.34 2016.57,-933.41 2010.15,-935.43 2021.12,-935.48 2021.12,-935.48"/>
<text text-anchor="middle" x="2281.5" y="-1643.8" font-family="Times,serif" font-size="14.00">rich_text_excerpt</text>
</g>
<!-- ActiveStorage::Attachment -->
<g id="node27" class="node">
<title>ActiveStorage::Attachment</title>
<ellipse fill="none" stroke="black" cx="332" cy="-607" rx="107.48" ry="18"/>
<text text-anchor="middle" x="332" y="-603.3" font-family="Times,serif" font-size="14.00">ActiveStorage::Attachment</text>
</g>
<!-- Book&#45;&gt;ActiveStorage::Attachment -->
<g id="edge9" class="edge">
<title>Book&#45;&gt;ActiveStorage::Attachment</title>
<path fill="none" stroke="#74ae3c" d="M1539.66,-2324.17C1190.15,-2310.14 300.09,-2269.37 178,-2214 110.59,-2183.43 59,-2171.51 59,-2097.5 59,-2097.5 59,-2097.5 59,-914 59,-812.11 18.45,-764.84 83,-686 116.9,-644.6 172.53,-624.79 222.62,-615.47"/>
<polygon fill="#74ae3c" stroke="#74ae3c" points="1539.85,-2324.18 1549.66,-2329.08 1544.84,-2324.38 1549.84,-2324.58 1549.84,-2324.58 1549.84,-2324.58 1544.84,-2324.38 1550.02,-2320.09 1539.85,-2324.18 1539.85,-2324.18"/>
<polygon fill="#74ae3c" stroke="#74ae3c" points="222.7,-615.46 233.33,-618.18 227.63,-614.6 232.56,-613.75 232.56,-613.75 232.56,-613.75 227.63,-614.6 231.78,-609.31 222.7,-615.46 222.7,-615.46"/>
<text text-anchor="middle" x="107.5" y="-1542.3" font-family="Times,serif" font-size="14.00">cover_attachment</text>
</g>
<!-- Book&#45;&gt;ActiveStorage::Attachment -->
<g id="edge11" class="edge">
<title>Book&#45;&gt;ActiveStorage::Attachment</title>
<path fill="none" stroke="#b0d16f" d="M1539.65,-2322.26C1168.96,-2301.27 192,-2233.09 192,-2097.5 192,-2097.5 192,-2097.5 192,-1646.5 192,-1566.78 194.36,-1541.94 160,-1470 147.1,-1442.99 126.43,-1447.06 116,-1419 76.2,-1311.94 105.07,-1275.7 116,-1162 135.2,-962.36 100.97,-892.26 202,-719 224.31,-680.73 264.8,-649.35 294.69,-629.84"/>
<polygon fill="#b0d16f" stroke="#b0d16f" points="1539.92,-2322.27 1549.65,-2327.33 1544.91,-2322.55 1549.9,-2322.84 1549.9,-2322.84 1549.9,-2322.84 1544.91,-2322.55 1550.16,-2318.34 1539.92,-2322.27 1539.92,-2322.27"/>
<polygon fill="#b0d16f" stroke="#b0d16f" points="294.77,-629.79 305.62,-628.21 298.98,-627.1 303.2,-624.41 303.2,-624.41 303.2,-624.41 298.98,-627.1 300.78,-620.62 294.77,-629.79 294.77,-629.79"/>
<text text-anchor="middle" x="274" y="-1542.3" font-family="Times,serif" font-size="14.00">hero_background_attachment</text>
</g>
<!-- ActiveStorage::Blob -->
<g id="node28" class="node">
<title>ActiveStorage::Blob</title>
<ellipse fill="none" stroke="black" cx="1968" cy="-607" rx="83.39" ry="18"/>
<text text-anchor="middle" x="1968" y="-603.3" font-family="Times,serif" font-size="14.00">ActiveStorage::Blob</text>
</g>
<!-- Book&#45;&gt;ActiveStorage::Blob -->
<g id="edge10" class="edge">
<title>Book&#45;&gt;ActiveStorage::Blob</title>
<path fill="none" stroke="#e25bc2" d="M1820.52,-2318.3C2052.68,-2295.88 2491,-2235.31 2491,-2097.5 2491,-2097.5 2491,-2097.5 2491,-914 2491,-711.8 2196.17,-640.73 2049.24,-617.87"/>
<polygon fill="#e25bc2" stroke="#e25bc2" points="1820.26,-2318.32 1809.87,-2314.79 1815.28,-2318.8 1810.3,-2319.27 1810.3,-2319.27 1810.3,-2319.27 1815.28,-2318.8 1810.73,-2323.75 1820.26,-2318.32 1820.26,-2318.32"/>
<polygon fill="#e25bc2" stroke="#e25bc2" points="2049.24,-617.87 2040.03,-611.92 2044.29,-617.12 2039.35,-616.37 2039.35,-616.37 2039.35,-616.37 2044.29,-617.12 2038.68,-620.81 2049.24,-617.87 2049.24,-617.87"/>
<text text-anchor="middle" x="2521.5" y="-1542.3" font-family="Times,serif" font-size="14.00">cover_blob</text>
</g>
<!-- Book&#45;&gt;ActiveStorage::Blob -->
<g id="edge12" class="edge">
<title>Book&#45;&gt;ActiveStorage::Blob</title>
<path fill="none" stroke="#4fe36c" d="M1820.17,-2322.65C2074.96,-2306.33 2588,-2254.04 2588,-2097.5 2588,-2097.5 2588,-2097.5 2588,-914 2588,-819.81 2577.88,-778.67 2505,-719 2436.85,-663.2 2186.62,-630.07 2053.17,-615.99"/>
<polygon fill="#4fe36c" stroke="#4fe36c" points="1820.07,-2322.65 1809.81,-2318.79 1815.08,-2322.97 1810.09,-2323.28 1810.09,-2323.28 1810.09,-2323.28 1815.08,-2322.97 1810.38,-2327.77 1820.07,-2322.65 1820.07,-2322.65"/>
<polygon fill="#4fe36c" stroke="#4fe36c" points="2052.93,-615.97 2043.45,-610.46 2047.95,-615.45 2042.98,-614.93 2042.98,-614.93 2042.98,-614.93 2047.95,-615.45 2042.51,-619.41 2052.93,-615.97 2052.93,-615.97"/>
<text text-anchor="middle" x="2651" y="-1542.3" font-family="Times,serif" font-size="14.00">hero_background_blob</text>
</g>
<!-- Click -->
<g id="node9" class="node">
<title>Click</title>
<path fill="none" stroke="black" d="M415,-1162.5C415,-1162.5 651,-1162.5 651,-1162.5 657,-1162.5 663,-1168.5 663,-1174.5 663,-1174.5 663,-1406.5 663,-1406.5 663,-1412.5 657,-1418.5 651,-1418.5 651,-1418.5 415,-1418.5 415,-1418.5 409,-1418.5 403,-1412.5 403,-1406.5 403,-1406.5 403,-1174.5 403,-1174.5 403,-1168.5 409,-1162.5 415,-1162.5"/>
<text text-anchor="middle" x="533" y="-1403.3" font-family="Times,serif" font-size="14.00">Click</text>
<polyline fill="none" stroke="black" points="403,-1395.5 663,-1395.5 "/>
<text text-anchor="start" x="411" y="-1380.3" font-family="Times,serif" font-size="14.00">longitude :double precision</text>
<text text-anchor="start" x="411" y="-1365.3" font-family="Times,serif" font-size="14.00">user_id :bigint</text>
<text text-anchor="start" x="411" y="-1350.3" font-family="Times,serif" font-size="14.00">clickable_id :integer</text>
<text text-anchor="start" x="411" y="-1335.3" font-family="Times,serif" font-size="14.00">clickable_type :character varying</text>
<text text-anchor="start" x="411" y="-1320.3" font-family="Times,serif" font-size="14.00">country_code :character varying</text>
<text text-anchor="start" x="411" y="-1305.3" font-family="Times,serif" font-size="14.00">country :character varying</text>
<text text-anchor="start" x="411" y="-1290.3" font-family="Times,serif" font-size="14.00">state_code :character varying</text>
<text text-anchor="start" x="411" y="-1275.3" font-family="Times,serif" font-size="14.00">state :character varying</text>
<text text-anchor="start" x="411" y="-1260.3" font-family="Times,serif" font-size="14.00">city :character varying</text>
<text text-anchor="start" x="411" y="-1245.3" font-family="Times,serif" font-size="14.00">map :character varying</text>
<text text-anchor="start" x="411" y="-1230.3" font-family="Times,serif" font-size="14.00">ip :character varying</text>
<text text-anchor="start" x="411" y="-1215.3" font-family="Times,serif" font-size="14.00">created_at :timestamp(6) without time zone</text>
<text text-anchor="start" x="411" y="-1200.3" font-family="Times,serif" font-size="14.00">updated_at :timestamp(6) without time zone</text>
<text text-anchor="start" x="411" y="-1185.3" font-family="Times,serif" font-size="14.00">latitude :double precision</text>
<text text-anchor="start" x="411" y="-1170.3" font-family="Times,serif" font-size="14.00">id :bigint</text>
</g>
<!-- Click&#45;&gt;User -->
<g id="edge19" class="edge">
<title>Click&#45;&gt;User</title>
<path fill="none" stroke="#de3cb6" d="M627.69,-1153.99C635.72,-1142.5 643.95,-1130.73 652.23,-1118.87"/>
<polygon fill="#de3cb6" stroke="#de3cb6" points="627.64,-1154.07 618.22,-1159.69 624.77,-1158.17 621.91,-1162.27 621.91,-1162.27 621.91,-1162.27 624.77,-1158.17 625.6,-1164.85 627.64,-1154.07 627.64,-1154.07"/>
<polygon fill="#de3cb6" stroke="#de3cb6" points="652.25,-1118.85 661.67,-1113.23 655.11,-1114.75 657.98,-1110.65 657.98,-1110.65 657.98,-1110.65 655.11,-1114.75 654.29,-1108.08 652.25,-1118.85 652.25,-1118.85"/>
</g>
<!-- Clickable -->
<g id="node29" class="node">
<title>Clickable</title>
<ellipse fill="none" stroke="black" cx="533" cy="-915" rx="44.39" ry="18"/>
<text text-anchor="middle" x="533" y="-911.3" font-family="Times,serif" font-size="14.00">Clickable</text>
</g>
<!-- Click&#45;&gt;Clickable -->
<g id="edge20" class="edge">
<title>Click&#45;&gt;Clickable</title>
<path fill="none" stroke="#091c42" d="M533,-1152.2C533,-1075.57 533,-986.95 533,-943.26"/>
<polygon fill="#091c42" stroke="#091c42" points="533,-1152.27 528.5,-1162.27 533,-1157.27 533,-1162.27 533,-1162.27 533,-1162.27 533,-1157.27 537.5,-1162.27 533,-1152.27 533,-1152.27"/>
<polygon fill="#091c42" stroke="#091c42" points="533,-943.15 537.5,-933.15 533,-938.15 533,-933.15 533,-933.15 533,-933.15 533,-938.15 528.5,-933.15 533,-943.15 533,-943.15"/>
</g>
<!-- Comment -->
<g id="node10" class="node">
<title>Comment</title>
<path fill="none" stroke="black" d="M1549,-1222.5C1549,-1222.5 1785,-1222.5 1785,-1222.5 1791,-1222.5 1797,-1228.5 1797,-1234.5 1797,-1234.5 1797,-1346.5 1797,-1346.5 1797,-1352.5 1791,-1358.5 1785,-1358.5 1785,-1358.5 1549,-1358.5 1549,-1358.5 1543,-1358.5 1537,-1352.5 1537,-1346.5 1537,-1346.5 1537,-1234.5 1537,-1234.5 1537,-1228.5 1543,-1222.5 1549,-1222.5"/>
<text text-anchor="middle" x="1667" y="-1343.3" font-family="Times,serif" font-size="14.00">Comment</text>
<polyline fill="none" stroke="black" points="1537,-1335.5 1797,-1335.5 "/>
<text text-anchor="start" x="1545" y="-1320.3" font-family="Times,serif" font-size="14.00">id :bigint</text>
<text text-anchor="start" x="1545" y="-1305.3" font-family="Times,serif" font-size="14.00">user_id :bigint</text>
<text text-anchor="start" x="1545" y="-1290.3" font-family="Times,serif" font-size="14.00">commentable_type :character varying</text>
<text text-anchor="start" x="1545" y="-1275.3" font-family="Times,serif" font-size="14.00">commentable_id :bigint</text>
<text text-anchor="start" x="1545" y="-1260.3" font-family="Times,serif" font-size="14.00">deleted_at :timestamp(6) without time zone</text>
<text text-anchor="start" x="1545" y="-1245.3" font-family="Times,serif" font-size="14.00">created_at :timestamp(6) without time zone</text>
<text text-anchor="start" x="1545" y="-1230.3" font-family="Times,serif" font-size="14.00">updated_at :timestamp(6) without time zone</text>
</g>
<!-- Comment&#45;&gt;User -->
<g id="edge21" class="edge">
<title>Comment&#45;&gt;User</title>
<path fill="none" stroke="#36f59b" d="M1603.49,-1215.41C1581.72,-1194.7 1555.78,-1174.47 1528,-1162 1323.39,-1070.2 1232.55,-1198.35 1026,-1111 1014.13,-1105.98 1002.4,-1100.13 990.9,-1093.66"/>
<polygon fill="#36f59b" stroke="#36f59b" points="1603.55,-1215.46 1607.57,-1225.66 1607.13,-1218.95 1610.71,-1222.44 1610.71,-1222.44 1610.71,-1222.44 1607.13,-1218.95 1613.85,-1219.22 1603.55,-1215.46 1603.55,-1215.46"/>
<polygon fill="#36f59b" stroke="#36f59b" points="990.81,-1093.61 984.41,-1084.7 986.48,-1091.1 982.15,-1088.6 982.15,-1088.6 982.15,-1088.6 986.48,-1091.1 979.9,-1092.49 990.81,-1093.61 990.81,-1093.61"/>
</g>
<!-- Comment&#45;&gt;ActionText::RichText -->
<g id="edge22" class="edge">
<title>Comment&#45;&gt;ActionText::RichText</title>
<path fill="none" stroke="#b11c1b" d="M1685.35,-1212.43C1694.23,-1184.6 1706.79,-1153.92 1724,-1129 1783.05,-1043.46 1884.89,-971.95 1938.91,-937.72"/>
<polygon fill="#b11c1b" stroke="#b11c1b" points="1685.31,-1212.58 1678.06,-1220.82 1683.83,-1217.36 1682.36,-1222.14 1682.36,-1222.14 1682.36,-1222.14 1683.83,-1217.36 1686.66,-1223.46 1685.31,-1212.58 1685.31,-1212.58"/>
<polygon fill="#b11c1b" stroke="#b11c1b" points="1939,-937.66 1949.86,-936.16 1943.23,-935 1947.47,-932.35 1947.47,-932.35 1947.47,-932.35 1943.23,-935 1945.08,-928.54 1939,-937.66 1939,-937.66"/>
<text text-anchor="middle" x="1771.5" y="-1132.8" font-family="Times,serif" font-size="14.00">rich_text_content</text>
</g>
<!-- Commentable -->
<g id="node30" class="node">
<title>Commentable</title>
<ellipse fill="none" stroke="black" cx="1667" cy="-915" rx="61.19" ry="18"/>
<text text-anchor="middle" x="1667" y="-911.3" font-family="Times,serif" font-size="14.00">Commentable</text>
</g>
<!-- Comment&#45;&gt;Commentable -->
<g id="edge23" class="edge">
<title>Comment&#45;&gt;Commentable</title>
<path fill="none" stroke="#13cc32" d="M1667,-1212.2C1667,-1128.45 1667,-999.32 1667,-943.38"/>
<polygon fill="#13cc32" stroke="#13cc32" points="1667,-1212.29 1662.5,-1222.29 1667,-1217.29 1667,-1222.29 1667,-1222.29 1667,-1222.29 1667,-1217.29 1671.5,-1222.29 1667,-1212.29 1667,-1212.29"/>
<polygon fill="#13cc32" stroke="#13cc32" points="1667,-943.21 1671.5,-933.21 1667,-938.21 1667,-933.21 1667,-933.21 1667,-933.21 1667,-938.21 1662.5,-933.21 1667,-943.21 1667,-943.21"/>
</g>
<!-- Current -->
<g id="node11" class="node">
<title>Current</title>
<polygon fill="none" stroke="black" points="1044,-2519 1044,-2565 1102,-2565 1102,-2519 1044,-2519"/>
<text text-anchor="middle" x="1073" y="-2549.8" font-family="Times,serif" font-size="14.00">Current</text>
<polyline fill="none" stroke="black" points="1044,-2542 1102,-2542 "/>
<text text-anchor="middle" x="1073" y="-2526.8" font-family="Times,serif" font-size="14.00"> </text>
</g>
<!-- Episode&#45;&gt;Series -->
<g id="edge24" class="edge">
<title>Episode&#45;&gt;Series</title>
<path fill="none" stroke="#b45a1a" d="M900.6,-2027.04C863.75,-1972.67 812.27,-1896.71 774.22,-1840.57"/>
<polygon fill="#b45a1a" stroke="#b45a1a" points="900.82,-2027.37 902.71,-2038.17 903.63,-2031.51 906.44,-2035.65 906.44,-2035.65 906.44,-2035.65 903.63,-2031.51 910.16,-2033.12 900.82,-2027.37 900.82,-2027.37"/>
<polygon fill="#b45a1a" stroke="#b45a1a" points="774.08,-1840.36 772.19,-1829.56 771.27,-1836.22 768.47,-1832.08 768.47,-1832.08 768.47,-1832.08 771.27,-1836.22 764.74,-1834.61 774.08,-1840.36 774.08,-1840.36"/>
</g>
<!-- Linkable -->
<g id="node31" class="node">
<title>Linkable</title>
<ellipse fill="none" stroke="black" cx="1370" cy="-1764" rx="42.49" ry="18"/>
<text text-anchor="middle" x="1370" y="-1760.3" font-family="Times,serif" font-size="14.00">Linkable</text>
</g>
<!-- Link&#45;&gt;Linkable -->
<g id="edge25" class="edge">
<title>Link&#45;&gt;Linkable</title>
<path fill="none" stroke="#102799" d="M1321.05,-1989.11C1322.44,-1986.07 1323.76,-1983.03 1325,-1980 1351.29,-1915.68 1362.96,-1834 1367.49,-1792.25"/>
<polygon fill="#102799" stroke="#102799" points="1321.02,-1989.18 1312.64,-1996.26 1318.86,-1993.69 1316.7,-1998.2 1316.7,-1998.2 1316.7,-1998.2 1318.86,-1993.69 1320.76,-2000.14 1321.02,-1989.18 1321.02,-1989.18"/>
<polygon fill="#102799" stroke="#102799" points="1367.52,-1792.01 1373.02,-1782.52 1368.03,-1787.04 1368.54,-1782.06 1368.54,-1782.06 1368.54,-1782.06 1368.03,-1787.04 1364.07,-1781.6 1367.52,-1792.01 1367.52,-1792.01"/>
</g>
<!-- ActsAsTaggableOn::Tagging -->
<g id="node32" class="node">
<title>ActsAsTaggableOn::Tagging</title>
<ellipse fill="none" stroke="black" cx="1197" cy="-1764" rx="113.18" ry="18"/>
<text text-anchor="middle" x="1197" y="-1760.3" font-family="Times,serif" font-size="14.00">ActsAsTaggableOn::Tagging</text>
</g>
<!-- Link&#45;&gt;ActsAsTaggableOn::Tagging -->
<g id="edge26" class="edge">
<title>Link&#45;&gt;ActsAsTaggableOn::Tagging</title>
<path fill="none" stroke="#838d25" d="M1195.28,-1988.62C1194.44,-1985.74 1193.68,-1982.87 1193,-1980 1177.35,-1913.97 1185.94,-1833.32 1192.24,-1792.1"/>
<polygon fill="#838d25" stroke="#838d25" points="1195.35,-1988.86 1194.09,-1999.75 1196.86,-1993.62 1198.38,-1998.39 1198.38,-1998.39 1198.38,-1998.39 1196.86,-1993.62 1202.67,-1997.03 1195.35,-1988.86 1195.35,-1988.86"/>
<polygon fill="#838d25" stroke="#838d25" points="1192.27,-1791.91 1198.3,-1782.74 1193.06,-1786.97 1193.85,-1782.03 1193.85,-1782.03 1193.85,-1782.03 1193.06,-1786.97 1189.41,-1781.32 1192.27,-1791.91 1192.27,-1791.91"/>
<text text-anchor="middle" x="1216" y="-1922.8" font-family="Times,serif" font-size="14.00">taggings</text>
</g>
<!-- Link&#45;&gt;ActsAsTaggableOn::Tagging -->
<g id="edge28" class="edge">
<title>Link&#45;&gt;ActsAsTaggableOn::Tagging</title>
<path fill="none" stroke="#500039" d="M1252.05,-1987.98C1250.61,-1951.19 1246.98,-1909.99 1239,-1873 1232.75,-1844.01 1219.77,-1812.59 1209.88,-1791.16"/>
<polygon fill="#500039" stroke="#500039" points="1252.06,-1988.24 1247.91,-1998.39 1252.23,-1993.24 1252.4,-1998.24 1252.4,-1998.24 1252.4,-1998.24 1252.23,-1993.24 1256.9,-1998.08 1252.06,-1988.24 1252.06,-1988.24"/>
<polygon fill="#500039" stroke="#500039" points="1209.86,-1791.1 1209.66,-1780.14 1207.73,-1786.58 1205.59,-1782.06 1205.59,-1782.06 1205.59,-1782.06 1207.73,-1786.58 1201.52,-1783.98 1209.86,-1791.1 1209.86,-1791.1"/>
<text text-anchor="middle" x="1286" y="-1922.8" font-family="Times,serif" font-size="14.00">tag_taggings</text>
</g>
<!-- ActsAsTaggableOn::Tag -->
<g id="node33" class="node">
<title>ActsAsTaggableOn::Tag</title>
<ellipse fill="none" stroke="black" cx="968" cy="-1764" rx="97.48" ry="18"/>
<text text-anchor="middle" x="968" y="-1760.3" font-family="Times,serif" font-size="14.00">ActsAsTaggableOn::Tag</text>
</g>
<!-- Link&#45;&gt;ActsAsTaggableOn::Tag -->
<g id="edge27" class="edge">
<title>Link&#45;&gt;ActsAsTaggableOn::Tag</title>
<path fill="none" stroke="#16dc5b" d="M1137.05,-1990.97C1133.61,-1987.31 1130.26,-1983.65 1127,-1980 1069.68,-1915.8 1011.99,-1831.82 984.53,-1790.39"/>
<polygon fill="#16dc5b" stroke="#16dc5b" points="1137.29,-1991.22 1140.92,-2001.57 1140.73,-1994.84 1144.18,-1998.47 1144.18,-1998.47 1144.18,-1998.47 1140.73,-1994.84 1147.44,-1995.36 1137.29,-1991.22 1137.29,-1991.22"/>
<polygon fill="#16dc5b" stroke="#16dc5b" points="984.49,-1790.33 982.74,-1779.5 981.74,-1786.15 978.99,-1781.98 978.99,-1781.98 978.99,-1781.98 981.74,-1786.15 975.23,-1784.46 984.49,-1790.33 984.49,-1790.33"/>
<text text-anchor="middle" x="1153.5" y="-1922.8" font-family="Times,serif" font-size="14.00">base_tags</text>
</g>
<!-- Link&#45;&gt;ActsAsTaggableOn::Tag -->
<g id="edge29" class="edge">
<title>Link&#45;&gt;ActsAsTaggableOn::Tag</title>
<path fill="none" stroke="#85f76f" d="M1111.77,-2009.76C1103.17,-2005.55 1094.54,-2001.59 1086,-1998 1057.58,-1986.05 1040.48,-2002.12 1019,-1980 969.13,-1928.64 964.87,-1837.91 966.22,-1792.5"/>
<polygon fill="#85f76f" stroke="#85f76f" points="1111.78,-2009.76 1118.71,-2018.26 1116.25,-2012 1120.72,-2014.23 1120.72,-2014.23 1120.72,-2014.23 1116.25,-2012 1122.73,-2010.21 1111.78,-2009.76 1111.78,-2009.76"/>
<polygon fill="#85f76f" stroke="#85f76f" points="966.23,-1792.23 971.14,-1782.43 966.44,-1787.24 966.65,-1782.24 966.65,-1782.24 966.65,-1782.24 966.44,-1787.24 962.15,-1782.05 966.23,-1792.23 966.23,-1792.23"/>
<text text-anchor="middle" x="1030" y="-1922.8" font-family="Times,serif" font-size="14.00">tags</text>
</g>
<!-- Page -->
<g id="node14" class="node">
<title>Page</title>
<path fill="none" stroke="black" d="M2034,-1230C2034,-1230 2270,-1230 2270,-1230 2276,-1230 2282,-1236 2282,-1242 2282,-1242 2282,-1339 2282,-1339 2282,-1345 2276,-1351 2270,-1351 2270,-1351 2034,-1351 2034,-1351 2028,-1351 2022,-1345 2022,-1339 2022,-1339 2022,-1242 2022,-1242 2022,-1236 2028,-1230 2034,-1230"/>
<text text-anchor="middle" x="2152" y="-1335.8" font-family="Times,serif" font-size="14.00">Page</text>
<polyline fill="none" stroke="black" points="2022,-1328 2282,-1328 "/>
<text text-anchor="start" x="2030" y="-1312.8" font-family="Times,serif" font-size="14.00">id :bigint</text>
<text text-anchor="start" x="2030" y="-1297.8" font-family="Times,serif" font-size="14.00">title :character varying</text>
<text text-anchor="start" x="2030" y="-1282.8" font-family="Times,serif" font-size="14.00">slug :character varying</text>
<text text-anchor="start" x="2030" y="-1267.8" font-family="Times,serif" font-size="14.00">created_at :timestamp(6) without time zone</text>
<text text-anchor="start" x="2030" y="-1252.8" font-family="Times,serif" font-size="14.00">updated_at :timestamp(6) without time zone</text>
<text text-anchor="start" x="2030" y="-1237.8" font-family="Times,serif" font-size="14.00">deleted_at :timestamp(6) without time zone</text>
</g>
<!-- Page&#45;&gt;ActionText::RichText -->
<g id="edge30" class="edge">
<title>Page&#45;&gt;ActionText::RichText</title>
<path fill="none" stroke="#29083a" d="M2119.41,-1220.73C2079.73,-1136.99 2014.64,-999.65 1987.5,-942.37"/>
<polygon fill="#29083a" stroke="#29083a" points="2119.48,-1220.87 2119.69,-1231.83 2121.62,-1225.39 2123.76,-1229.9 2123.76,-1229.9 2123.76,-1229.9 2121.62,-1225.39 2127.82,-1227.98 2119.48,-1220.87 2119.48,-1220.87"/>
<polygon fill="#29083a" stroke="#29083a" points="1987.46,-942.3 1987.25,-931.33 1985.32,-937.78 1983.18,-933.26 1983.18,-933.26 1983.18,-933.26 1985.32,-937.78 1979.11,-935.19 1987.46,-942.3 1987.46,-942.3"/>
<text text-anchor="middle" x="2126.5" y="-1132.8" font-family="Times,serif" font-size="14.00">rich_text_content</text>
</g>
<!-- Post -->
<g id="node15" class="node">
<title>Post</title>
<path fill="none" stroke="black" d="M1249.5,-1207.5C1249.5,-1207.5 1506.5,-1207.5 1506.5,-1207.5 1512.5,-1207.5 1518.5,-1213.5 1518.5,-1219.5 1518.5,-1219.5 1518.5,-1361.5 1518.5,-1361.5 1518.5,-1367.5 1512.5,-1373.5 1506.5,-1373.5 1506.5,-1373.5 1249.5,-1373.5 1249.5,-1373.5 1243.5,-1373.5 1237.5,-1367.5 1237.5,-1361.5 1237.5,-1361.5 1237.5,-1219.5 1237.5,-1219.5 1237.5,-1213.5 1243.5,-1207.5 1249.5,-1207.5"/>
<text text-anchor="middle" x="1378" y="-1358.3" font-family="Times,serif" font-size="14.00">Post</text>
<polyline fill="none" stroke="black" points="1237.5,-1350.5 1518.5,-1350.5 "/>
<text text-anchor="start" x="1245.5" y="-1335.3" font-family="Times,serif" font-size="14.00">deleted_at :timestamp(6) without time zone</text>
<text text-anchor="start" x="1245.5" y="-1320.3" font-family="Times,serif" font-size="14.00">slug :character varying</text>
<text text-anchor="start" x="1245.5" y="-1305.3" font-family="Times,serif" font-size="14.00">title :character varying</text>
<text text-anchor="start" x="1245.5" y="-1290.3" font-family="Times,serif" font-size="14.00">user_id :bigint</text>
<text text-anchor="start" x="1245.5" y="-1275.3" font-family="Times,serif" font-size="14.00">published_at :timestamp(6) without time zone</text>
<text text-anchor="start" x="1245.5" y="-1260.3" font-family="Times,serif" font-size="14.00">created_at :timestamp(6) without time zone</text>
<text text-anchor="start" x="1245.5" y="-1245.3" font-family="Times,serif" font-size="14.00">updated_at :timestamp(6) without time zone</text>
<text text-anchor="start" x="1245.5" y="-1230.3" font-family="Times,serif" font-size="14.00">broadcasted_at :timestamp(6) without time zone</text>
<text text-anchor="start" x="1245.5" y="-1215.3" font-family="Times,serif" font-size="14.00">id :bigint</text>
</g>
<!-- Post&#45;&gt;User -->
<g id="edge31" class="edge">
<title>Post&#45;&gt;User</title>
<path fill="none" stroke="#3d05eb" d="M1291.84,-1200.98C1272.31,-1185.51 1250.61,-1171.39 1228,-1162 1139.04,-1125.04 1098.93,-1185.51 1012,-1144 996.05,-1136.38 980.66,-1127.06 965.93,-1116.59"/>
<polygon fill="#3d05eb" stroke="#3d05eb" points="1292.02,-1201.13 1296.95,-1210.93 1295.9,-1204.28 1299.78,-1207.44 1299.78,-1207.44 1299.78,-1207.44 1295.9,-1204.28 1302.62,-1203.95 1292.02,-1201.13 1292.02,-1201.13"/>
<polygon fill="#3d05eb" stroke="#3d05eb" points="965.9,-1116.56 960.48,-1107.03 961.86,-1113.61 957.82,-1110.66 957.82,-1110.66 957.82,-1110.66 961.86,-1113.61 955.17,-1114.29 965.9,-1116.56 965.9,-1116.56"/>
</g>
<!-- Post&#45;&gt;ActionText::RichText -->
<g id="edge32" class="edge">
<title>Post&#45;&gt;ActionText::RichText</title>
<path fill="none" stroke="#f0c6fd" d="M1472.57,-1200.69C1490.21,-1186.62 1509.07,-1173.08 1528,-1162 1564.4,-1140.68 1576.15,-1139.52 1617,-1129 1669.23,-1115.55 1687.71,-1132.87 1737,-1111 1829.43,-1069.98 1915.3,-983 1953.77,-940.46"/>
<polygon fill="#f0c6fd" stroke="#f0c6fd" points="1472.32,-1200.89 1461.72,-1203.68 1468.44,-1204.03 1464.55,-1207.18 1464.55,-1207.18 1464.55,-1207.18 1468.44,-1204.03 1467.38,-1210.68 1472.32,-1200.89 1472.32,-1200.89"/>
<polygon fill="#f0c6fd" stroke="#f0c6fd" points="1953.94,-940.27 1963.96,-935.81 1957.28,-936.54 1960.61,-932.81 1960.61,-932.81 1960.61,-932.81 1957.28,-936.54 1957.25,-929.82 1953.94,-940.27 1953.94,-940.27"/>
<text text-anchor="middle" x="1664.5" y="-1132.8" font-family="Times,serif" font-size="14.00">rich_text_content</text>
</g>
<!-- Post&#45;&gt;ActiveStorage::Attachment -->
<g id="edge33" class="edge">
<title>Post&#45;&gt;ActiveStorage::Attachment</title>
<path fill="none" stroke="#6fe2ab" d="M1317.96,-1198.56C1214.62,-1042.37 1012.12,-737.98 991,-719 967.78,-698.14 958.93,-694.88 929,-686 841.74,-660.1 815.37,-678.87 725,-668 617.06,-655.01 493.17,-635.29 413.82,-622.04"/>
<polygon fill="#6fe2ab" stroke="#6fe2ab" points="1318.2,-1198.91 1319.96,-1209.74 1320.96,-1203.08 1323.72,-1207.25 1323.72,-1207.25 1323.72,-1207.25 1320.96,-1203.08 1327.47,-1204.77 1318.2,-1198.91 1318.2,-1198.91"/>
<polygon fill="#6fe2ab" stroke="#6fe2ab" points="413.75,-622.03 404.63,-615.94 408.82,-621.2 403.89,-620.38 403.89,-620.38 403.89,-620.38 408.82,-621.2 403.14,-624.82 413.75,-622.03 413.75,-622.03"/>
<text text-anchor="middle" x="1311" y="-911.3" font-family="Times,serif" font-size="14.00">images_attachments</text>
</g>
<!-- Post&#45;&gt;ActiveStorage::Blob -->
<g id="edge34" class="edge">
<title>Post&#45;&gt;ActiveStorage::Blob</title>
<path fill="none" stroke="#f83044" d="M1373.9,-1197.46C1373.58,-1071.64 1392.74,-846.98 1521,-719 1572.03,-668.08 1772.92,-633.83 1887.26,-618.02"/>
<polygon fill="#f83044" stroke="#f83044" points="1373.9,-1197.46 1369.47,-1207.49 1373.93,-1202.46 1373.97,-1207.46 1373.97,-1207.46 1373.97,-1207.46 1373.93,-1202.46 1378.47,-1207.43 1373.9,-1197.46 1373.9,-1197.46"/>
<polygon fill="#f83044" stroke="#f83044" points="1887.46,-617.99 1897.98,-621.1 1892.41,-617.32 1897.37,-616.64 1897.37,-616.64 1897.37,-616.64 1892.41,-617.32 1896.76,-612.18 1887.46,-617.99 1887.46,-617.99"/>
<text text-anchor="middle" x="1559" y="-911.3" font-family="Times,serif" font-size="14.00">images_blobs</text>
</g>
<!-- Praise&#45;&gt;ActionText::RichText -->
<g id="edge35" class="edge">
<title>Praise&#45;&gt;ActionText::RichText</title>
<path fill="none" stroke="#330a23" d="M2346.71,-1863.29C2347.28,-1807.15 2348,-1722.3 2348,-1648.5 2348,-1648.5 2348,-1648.5 2348,-1289.5 2348,-1217.37 2363.87,-1189.11 2324,-1129 2253.83,-1023.2 2111.36,-961.27 2031.87,-933.55"/>
<polygon fill="#330a23" stroke="#330a23" points="2346.7,-1863.43 2342.1,-1873.38 2346.65,-1868.43 2346.6,-1873.43 2346.6,-1873.43 2346.6,-1873.43 2346.65,-1868.43 2351.1,-1873.47 2346.7,-1863.43 2346.7,-1863.43"/>
<polygon fill="#330a23" stroke="#330a23" points="2031.48,-933.42 2023.48,-925.92 2026.75,-931.8 2022.02,-930.18 2022.02,-930.18 2022.02,-930.18 2026.75,-931.8 2020.56,-934.44 2031.48,-933.42 2031.48,-933.42"/>
<text text-anchor="middle" x="2401.5" y="-1542.3" font-family="Times,serif" font-size="14.00">rich_text_comment</text>
</g>
<!-- Role -->
<g id="node17" class="node">
<title>Role</title>
<path fill="none" stroke="black" d="M137,-1230C137,-1230 373,-1230 373,-1230 379,-1230 385,-1236 385,-1242 385,-1242 385,-1339 385,-1339 385,-1345 379,-1351 373,-1351 373,-1351 137,-1351 137,-1351 131,-1351 125,-1345 125,-1339 125,-1339 125,-1242 125,-1242 125,-1236 131,-1230 137,-1230"/>
<text text-anchor="middle" x="255" y="-1335.8" font-family="Times,serif" font-size="14.00">Role</text>
<polyline fill="none" stroke="black" points="125,-1328 385,-1328 "/>
<text text-anchor="start" x="133" y="-1312.8" font-family="Times,serif" font-size="14.00">id :bigint</text>
<text text-anchor="start" x="133" y="-1297.8" font-family="Times,serif" font-size="14.00">name :character varying</text>
<text text-anchor="start" x="133" y="-1282.8" font-family="Times,serif" font-size="14.00">resource_type :character varying</text>
<text text-anchor="start" x="133" y="-1267.8" font-family="Times,serif" font-size="14.00">resource_id :bigint</text>
<text text-anchor="start" x="133" y="-1252.8" font-family="Times,serif" font-size="14.00">created_at :timestamp(6) without time zone</text>
<text text-anchor="start" x="133" y="-1237.8" font-family="Times,serif" font-size="14.00">updated_at :timestamp(6) without time zone</text>
</g>
<!-- Role&#45;&gt;User -->
<g id="edge36" class="edge">
<title>Role&#45;&gt;User</title>
<path fill="none" stroke="#53943e" d="M314.83,-1222.79C337.7,-1200.7 365.23,-1177.75 394,-1162 471.44,-1119.6 508.79,-1153.82 586,-1111 589.77,-1108.91 593.53,-1106.73 597.27,-1104.48"/>
<polygon fill="#53943e" stroke="#53943e" points="314.71,-1222.91 304.42,-1226.72 311.14,-1226.42 307.58,-1229.93 307.58,-1229.93 307.58,-1229.93 311.14,-1226.42 310.73,-1233.13 314.71,-1222.91 314.71,-1222.91"/>
<polygon fill="#53943e" stroke="#53943e" points="597.46,-1104.36 608.33,-1102.91 601.71,-1101.72 605.96,-1099.09 605.96,-1099.09 605.96,-1099.09 601.71,-1101.72 603.59,-1095.26 597.46,-1104.36 597.46,-1104.36"/>
</g>
<!-- Resource -->
<g id="node34" class="node">
<title>Resource</title>
<ellipse fill="none" stroke="black" cx="255" cy="-915" rx="43.59" ry="18"/>
<text text-anchor="middle" x="255" y="-911.3" font-family="Times,serif" font-size="14.00">Resource</text>
</g>
<!-- Role&#45;&gt;Resource -->
<g id="edge37" class="edge">
<title>Role&#45;&gt;Resource</title>
<path fill="none" stroke="#48b672" d="M255,-1219.65C255,-1136.32 255,-1001.03 255,-943.4"/>
<polygon fill="#48b672" stroke="#48b672" points="255,-1219.9 250.5,-1229.9 255,-1224.9 255,-1229.9 255,-1229.9 255,-1229.9 255,-1224.9 259.5,-1229.9 255,-1219.9 255,-1219.9"/>
<polygon fill="#48b672" stroke="#48b672" points="255,-943.26 259.5,-933.26 255,-938.26 255,-933.26 255,-933.26 255,-933.26 255,-938.26 250.5,-933.26 255,-943.26 255,-943.26"/>
</g>
<!-- Subscription -->
<g id="node19" class="node">
<title>Subscription</title>
<path fill="none" stroke="black" d="M971,-1207.5C971,-1207.5 1207,-1207.5 1207,-1207.5 1213,-1207.5 1219,-1213.5 1219,-1219.5 1219,-1219.5 1219,-1361.5 1219,-1361.5 1219,-1367.5 1213,-1373.5 1207,-1373.5 1207,-1373.5 971,-1373.5 971,-1373.5 965,-1373.5 959,-1367.5 959,-1361.5 959,-1361.5 959,-1219.5 959,-1219.5 959,-1213.5 965,-1207.5 971,-1207.5"/>
<text text-anchor="middle" x="1089" y="-1358.3" font-family="Times,serif" font-size="14.00">Subscription</text>
<polyline fill="none" stroke="black" points="959,-1350.5 1219,-1350.5 "/>
<text text-anchor="start" x="967" y="-1335.3" font-family="Times,serif" font-size="14.00">deleted_at :timestamp(6) without time zone</text>
<text text-anchor="start" x="967" y="-1320.3" font-family="Times,serif" font-size="14.00">user_id :bigint</text>
<text text-anchor="start" x="967" y="-1305.3" font-family="Times,serif" font-size="14.00">source_type :character varying</text>
<text text-anchor="start" x="967" y="-1290.3" font-family="Times,serif" font-size="14.00">created_at :timestamp(6) without time zone</text>
<text text-anchor="start" x="967" y="-1275.3" font-family="Times,serif" font-size="14.00">updated_at :timestamp(6) without time zone</text>
<text text-anchor="start" x="967" y="-1260.3" font-family="Times,serif" font-size="14.00">posts :character varying</text>
<text text-anchor="start" x="967" y="-1245.3" font-family="Times,serif" font-size="14.00">books :character varying</text>
<text text-anchor="start" x="967" y="-1230.3" font-family="Times,serif" font-size="14.00">slug :character varying</text>
<text text-anchor="start" x="967" y="-1215.3" font-family="Times,serif" font-size="14.00">id :bigint</text>
</g>
<!-- Subscription&#45;&gt;User -->
<g id="edge38" class="edge">
<title>Subscription&#45;&gt;User</title>
<path fill="none" stroke="#ab65bb" d="M1017.68,-1199.2C998.21,-1174.55 976.3,-1146.82 954.01,-1118.59"/>
<polygon fill="#ab65bb" stroke="#ab65bb" points="1017.7,-1199.22 1020.36,-1209.86 1020.8,-1203.15 1023.9,-1207.07 1023.9,-1207.07 1023.9,-1207.07 1020.8,-1203.15 1027.43,-1204.28 1017.7,-1199.22 1017.7,-1199.22"/>
<polygon fill="#ab65bb" stroke="#ab65bb" points="953.92,-1118.47 951.25,-1107.83 950.82,-1114.55 947.72,-1110.62 947.72,-1110.62 947.72,-1110.62 950.82,-1114.55 944.19,-1113.41 953.92,-1118.47 953.92,-1118.47"/>
</g>
<!-- Todo -->
<g id="node20" class="node">
<title>Todo</title>
<path fill="none" stroke="black" d="M1442,-1673.5C1442,-1673.5 1678,-1673.5 1678,-1673.5 1684,-1673.5 1690,-1679.5 1690,-1685.5 1690,-1685.5 1690,-1842.5 1690,-1842.5 1690,-1848.5 1684,-1854.5 1678,-1854.5 1678,-1854.5 1442,-1854.5 1442,-1854.5 1436,-1854.5 1430,-1848.5 1430,-1842.5 1430,-1842.5 1430,-1685.5 1430,-1685.5 1430,-1679.5 1436,-1673.5 1442,-1673.5"/>
<text text-anchor="middle" x="1560" y="-1839.3" font-family="Times,serif" font-size="14.00">Todo</text>
<polyline fill="none" stroke="black" points="1430,-1831.5 1690,-1831.5 "/>
<text text-anchor="start" x="1438" y="-1816.3" font-family="Times,serif" font-size="14.00">deleted_at :timestamp(6) without time zone</text>
<text text-anchor="start" x="1438" y="-1801.3" font-family="Times,serif" font-size="14.00">created_by_id :integer</text>
<text text-anchor="start" x="1438" y="-1786.3" font-family="Times,serif" font-size="14.00">assigned_to_id :integer</text>
<text text-anchor="start" x="1438" y="-1771.3" font-family="Times,serif" font-size="14.00">todolist_id :bigint</text>
<text text-anchor="start" x="1438" y="-1756.3" font-family="Times,serif" font-size="14.00">summary :text</text>
<text text-anchor="start" x="1438" y="-1741.3" font-family="Times,serif" font-size="14.00">created_at :timestamp(6) without time zone</text>
<text text-anchor="start" x="1438" y="-1726.3" font-family="Times,serif" font-size="14.00">updated_at :timestamp(6) without time zone</text>
<text text-anchor="start" x="1438" y="-1711.3" font-family="Times,serif" font-size="14.00">due_on :date</text>
<text text-anchor="start" x="1438" y="-1696.3" font-family="Times,serif" font-size="14.00">done_at :timestamp(6) without time zone</text>
<text text-anchor="start" x="1438" y="-1681.3" font-family="Times,serif" font-size="14.00">id :bigint</text>
</g>
<!-- Todolist -->
<g id="node21" class="node">
<title>Todolist</title>
<path fill="none" stroke="black" d="M1469,-1470.5C1469,-1470.5 1705,-1470.5 1705,-1470.5 1711,-1470.5 1717,-1476.5 1717,-1482.5 1717,-1482.5 1717,-1609.5 1717,-1609.5 1717,-1615.5 1711,-1621.5 1705,-1621.5 1705,-1621.5 1469,-1621.5 1469,-1621.5 1463,-1621.5 1457,-1615.5 1457,-1609.5 1457,-1609.5 1457,-1482.5 1457,-1482.5 1457,-1476.5 1463,-1470.5 1469,-1470.5"/>
<text text-anchor="middle" x="1587" y="-1606.3" font-family="Times,serif" font-size="14.00">Todolist</text>
<polyline fill="none" stroke="black" points="1457,-1598.5 1717,-1598.5 "/>
<text text-anchor="start" x="1465" y="-1583.3" font-family="Times,serif" font-size="14.00">deleted_at :timestamp(6) without time zone</text>
<text text-anchor="start" x="1465" y="-1568.3" font-family="Times,serif" font-size="14.00">name :character varying</text>
<text text-anchor="start" x="1465" y="-1553.3" font-family="Times,serif" font-size="14.00">todolistable_id :integer</text>
<text text-anchor="start" x="1465" y="-1538.3" font-family="Times,serif" font-size="14.00">todolistable_type :character varying</text>
<text text-anchor="start" x="1465" y="-1523.3" font-family="Times,serif" font-size="14.00">user_id :bigint</text>
<text text-anchor="start" x="1465" y="-1508.3" font-family="Times,serif" font-size="14.00">created_at :timestamp(6) without time zone</text>
<text text-anchor="start" x="1465" y="-1493.3" font-family="Times,serif" font-size="14.00">updated_at :timestamp(6) without time zone</text>
<text text-anchor="start" x="1465" y="-1478.3" font-family="Times,serif" font-size="14.00">id :bigint</text>
</g>
<!-- Todo&#45;&gt;Todolist -->
<g id="edge41" class="edge">
<title>Todo&#45;&gt;Todolist</title>
<path fill="none" stroke="#7135d4" d="M1572.48,-1663.16C1573.79,-1652.7 1575.11,-1642.14 1576.39,-1631.87"/>
<polygon fill="#7135d4" stroke="#7135d4" points="1572.46,-1663.35 1566.75,-1672.71 1571.84,-1668.31 1571.22,-1673.27 1571.22,-1673.27 1571.22,-1673.27 1571.84,-1668.31 1575.68,-1673.83 1572.46,-1663.35 1572.46,-1663.35"/>
<polygon fill="#7135d4" stroke="#7135d4" points="1576.42,-1631.63 1582.13,-1622.27 1577.04,-1626.67 1577.66,-1621.71 1577.66,-1621.71 1577.66,-1621.71 1577.04,-1626.67 1573.2,-1621.15 1576.42,-1631.63 1576.42,-1631.63"/>
</g>
<!-- Todo&#45;&gt;User -->
<g id="edge39" class="edge">
<title>Todo&#45;&gt;User</title>
<path fill="none" stroke="#0d5d45" d="M1419.59,-1674.1C1329.17,-1663.36 781.41,-1676.03 753,-1655 676.53,-1598.39 700.31,-1545.91 685,-1452 683.93,-1445.42 682.29,-1443.09 685,-1437 689.87,-1426.08 699.26,-1429.49 705,-1419 767.75,-1304.41 729.98,-1257.6 753,-1129 753.49,-1126.27 753.98,-1123.52 754.48,-1120.76"/>
<polygon fill="#0d5d45" stroke="#0d5d45" points="1419.79,-1674.14 1428.84,-1680.34 1424.72,-1675.02 1429.64,-1675.91 1429.64,-1675.91 1429.64,-1675.91 1424.72,-1675.02 1430.43,-1671.48 1419.79,-1674.14 1419.79,-1674.14"/>
<polygon fill="#0d5d45" stroke="#0d5d45" points="754.52,-1120.52 760.74,-1111.49 755.42,-1115.6 756.31,-1110.68 756.31,-1110.68 756.31,-1110.68 755.42,-1115.6 751.88,-1109.88 754.52,-1120.52 754.52,-1120.52"/>
<text text-anchor="middle" x="715" y="-1440.8" font-family="Times,serif" font-size="14.00">created_by</text>
</g>
<!-- Todo&#45;&gt;User -->
<g id="edge40" class="edge">
<title>Todo&#45;&gt;User</title>
<path fill="none" stroke="#7fba0a" d="M1421.28,-1673.14C1421.19,-1673.09 1421.09,-1673.05 1421,-1673 1150.09,-1541.03 954.94,-1697.37 780,-1452 742.84,-1399.88 749.65,-1249.04 763.91,-1120.61"/>
<polygon fill="#7fba0a" stroke="#7fba0a" points="1421.01,-1673 1427.93,-1681.51 1425.48,-1675.25 1429.95,-1677.49 1429.95,-1677.49 1429.95,-1677.49 1425.48,-1675.25 1431.97,-1673.47 1421.01,-1673 1421.01,-1673"/>
<polygon fill="#7fba0a" stroke="#7fba0a" points="763.91,-1120.55 769.51,-1111.12 764.48,-1115.58 765.04,-1110.62 765.04,-1110.62 765.04,-1110.62 764.48,-1115.58 760.57,-1110.11 763.91,-1120.55 763.91,-1120.55"/>
<text text-anchor="middle" x="812" y="-1440.8" font-family="Times,serif" font-size="14.00">assigned_to</text>
</g>
<!-- Todo&#45;&gt;ActionText::RichText -->
<g id="edge42" class="edge">
<title>Todo&#45;&gt;ActionText::RichText</title>
<path fill="none" stroke="#328163" d="M1680.21,-1666.3C1696.11,-1651.97 1711.8,-1636.97 1726,-1622 1797.14,-1546.99 1780.39,-1493.44 1867,-1437 1895.72,-1418.28 1919.91,-1445.21 1942,-1419 1972.75,-1382.52 1975.06,-1043.19 1975.07,-943.45"/>
<polygon fill="#328163" stroke="#328163" points="1679.86,-1666.61 1669.4,-1669.92 1676.13,-1669.94 1672.4,-1673.27 1672.4,-1673.27 1672.4,-1673.27 1676.13,-1669.94 1675.39,-1676.63 1679.86,-1666.61 1679.86,-1666.61"/>
<polygon fill="#328163" stroke="#328163" points="1975.07,-943.27 1979.56,-933.26 1975.06,-938.27 1975.06,-933.27 1975.06,-933.27 1975.06,-933.27 1975.06,-938.27 1970.56,-933.27 1975.07,-943.27 1975.07,-943.27"/>
<text text-anchor="middle" x="1924.5" y="-1440.8" font-family="Times,serif" font-size="14.00">rich_text_description</text>
</g>
<!-- Todolist&#45;&gt;Comment -->
<g id="edge44" class="edge">
<title>Todolist&#45;&gt;Comment</title>
<path fill="none" stroke="#52fa71" d="M1613.62,-1460.64C1623.02,-1430.87 1633.52,-1397.58 1642.72,-1368.45"/>
<polygon fill="#52fa71" stroke="#52fa71" points="1613.58,-1460.78 1606.28,-1468.96 1612.07,-1465.54 1610.57,-1470.31 1610.57,-1470.31 1610.57,-1470.31 1612.07,-1465.54 1614.86,-1471.67 1613.58,-1460.78 1613.58,-1460.78"/>
<polygon fill="#52fa71" stroke="#52fa71" points="1642.77,-1368.28 1650.07,-1360.1 1644.27,-1363.52 1645.78,-1358.75 1645.78,-1358.75 1645.78,-1358.75 1644.27,-1363.52 1641.49,-1357.39 1642.77,-1368.28 1642.77,-1368.28"/>
</g>
<!-- Todolist&#45;&gt;User -->
<g id="edge43" class="edge">
<title>Todolist&#45;&gt;User</title>
<path fill="none" stroke="#919516" d="M1446.43,-1542.5C1248.49,-1535.69 902.9,-1510.62 824,-1419 785.86,-1374.71 779.36,-1239.63 781.86,-1120.59"/>
<polygon fill="#919516" stroke="#919516" points="1446.62,-1542.51 1456.46,-1547.34 1451.62,-1542.67 1456.61,-1542.84 1456.61,-1542.84 1456.61,-1542.84 1451.62,-1542.67 1456.76,-1538.34 1446.62,-1542.51 1446.62,-1542.51"/>
<polygon fill="#919516" stroke="#919516" points="781.86,-1120.59 786.6,-1110.69 781.98,-1115.59 782.1,-1110.59 782.1,-1110.59 782.1,-1110.59 781.98,-1115.59 777.6,-1110.48 781.86,-1120.59 781.86,-1120.59"/>
</g>
<!-- Todolist&#45;&gt;ActionText::RichText -->
<g id="edge45" class="edge">
<title>Todolist&#45;&gt;ActionText::RichText</title>
<path fill="none" stroke="#39f024" d="M1725.95,-1489.8C1756.58,-1471.55 1785.86,-1448.22 1806,-1419 1871.64,-1323.76 1810.73,-1271.83 1847,-1162 1875.19,-1076.64 1930.35,-984.93 1958.14,-941.54"/>
<polygon fill="#39f024" stroke="#39f024" points="1725.94,-1489.81 1715.03,-1490.92 1721.61,-1492.31 1717.28,-1494.82 1717.28,-1494.82 1717.28,-1494.82 1721.61,-1492.31 1719.54,-1498.71 1725.94,-1489.81 1725.94,-1489.81"/>
<polygon fill="#39f024" stroke="#39f024" points="1958.21,-941.44 1967.42,-935.48 1960.93,-937.24 1963.64,-933.04 1963.64,-933.04 1963.64,-933.04 1960.93,-937.24 1959.86,-930.6 1958.21,-941.44 1958.21,-941.44"/>
<text text-anchor="middle" x="1894.5" y="-1286.8" font-family="Times,serif" font-size="14.00">rich_text_content</text>
</g>
<!-- Todolistable -->
<g id="node35" class="node">
<title>Todolistable</title>
<ellipse fill="none" stroke="black" cx="887" cy="-1290.5" rx="53.89" ry="18"/>
<text text-anchor="middle" x="887" y="-1286.8" font-family="Times,serif" font-size="14.00">Todolistable</text>
</g>
<!-- Todolist&#45;&gt;Todolistable -->
<g id="edge46" class="edge">
<title>Todolist&#45;&gt;Todolistable</title>
<path fill="none" stroke="#3deaa2" d="M1446.63,-1531.76C1283.32,-1513.89 1026.27,-1477.41 950,-1419 917.53,-1394.13 900.7,-1348.06 892.87,-1318.64"/>
<polygon fill="#3deaa2" stroke="#3deaa2" points="1446.83,-1531.78 1456.28,-1537.33 1451.8,-1532.32 1456.77,-1532.85 1456.77,-1532.85 1456.77,-1532.85 1451.8,-1532.32 1457.25,-1528.38 1446.83,-1531.78 1446.83,-1531.78"/>
<polygon fill="#3deaa2" stroke="#3deaa2" points="892.79,-1318.33 894.74,-1307.54 891.58,-1313.47 890.38,-1308.62 890.38,-1308.62 890.38,-1308.62 891.58,-1313.47 886.01,-1309.71 892.79,-1318.33 892.79,-1318.33"/>
</g>
<!-- User&#45;&gt;Ahoy::Event -->
<g id="edge51" class="edge">
<title>User&#45;&gt;Ahoy::Event</title>
<path fill="none" stroke="#3ac682" d="M880.72,-709.88C885.61,-698.36 890.32,-687.28 894.71,-676.94"/>
<polygon fill="#3ac682" stroke="#3ac682" points="880.61,-710.13 872.56,-717.58 878.65,-714.74 876.7,-719.34 876.7,-719.34 876.7,-719.34 878.65,-714.74 880.84,-721.1 880.61,-710.13 880.61,-710.13"/>
<polygon fill="#3ac682" stroke="#3ac682" points="894.74,-676.87 902.79,-669.42 896.7,-672.26 898.65,-667.66 898.65,-667.66 898.65,-667.66 896.7,-672.26 894.51,-665.9 894.74,-676.87 894.74,-676.87"/>
<text text-anchor="middle" x="907.5" y="-689.8" font-family="Times,serif" font-size="14.00">events</text>
</g>
<!-- User&#45;&gt;Ahoy::Visit -->
<g id="edge50" class="edge">
<title>User&#45;&gt;Ahoy::Visit</title>
<path fill="none" stroke="#2f6f26" d="M988.85,-758.22C1012.06,-730.74 1032.33,-700.45 1046,-668 1075.84,-597.16 1052.84,-519 1015.79,-451.86"/>
<polygon fill="#2f6f26" stroke="#2f6f26" points="988.76,-758.32 978.82,-762.95 985.49,-762.1 982.23,-765.89 982.23,-765.89 982.23,-765.89 985.49,-762.1 985.63,-768.83 988.76,-758.32 988.76,-758.32"/>
<polygon fill="#2f6f26" stroke="#2f6f26" points="1015.64,-451.59 1014.64,-440.67 1013.18,-447.23 1010.72,-442.88 1010.72,-442.88 1010.72,-442.88 1013.18,-447.23 1006.8,-445.1 1015.64,-451.59 1015.64,-451.59"/>
<text text-anchor="middle" x="1073.5" y="-603.3" font-family="Times,serif" font-size="14.00">visits</text>
</g>
<!-- User&#45;&gt;ActiveStorage::Attachment -->
<g id="edge47" class="edge">
<title>User&#45;&gt;ActiveStorage::Attachment</title>
<path fill="none" stroke="#65de78" d="M597.45,-726.77C593.64,-724.11 589.82,-721.52 586,-719 523.2,-677.62 442.42,-645.4 389.01,-626.57"/>
<polygon fill="#65de78" stroke="#65de78" points="597.62,-726.89 603.17,-736.35 601.7,-729.78 605.77,-732.68 605.77,-732.68 605.77,-732.68 601.7,-729.78 608.38,-729.01 597.62,-726.89 597.62,-726.89"/>
<polygon fill="#65de78" stroke="#65de78" points="388.82,-626.5 380.85,-618.96 384.09,-624.86 379.37,-623.21 379.37,-623.21 379.37,-623.21 384.09,-624.86 377.89,-627.46 388.82,-626.5 388.82,-626.5"/>
<text text-anchor="middle" x="604" y="-689.8" font-family="Times,serif" font-size="14.00">avatar_attachment</text>
</g>
<!-- User&#45;&gt;ActiveStorage::Blob -->
<g id="edge48" class="edge">
<title>User&#45;&gt;ActiveStorage::Blob</title>
<path fill="none" stroke="#3be085" d="M991,-736.57C1002.47,-730.04 1014.17,-724.12 1026,-719 1103.69,-685.4 1664.25,-634.17 1881.91,-615.3"/>
<polygon fill="#3be085" stroke="#3be085" points="990.9,-736.63 980,-737.8 986.59,-739.15 982.27,-741.68 982.27,-741.68 982.27,-741.68 986.59,-739.15 984.54,-745.56 990.9,-736.63 990.9,-736.63"/>
<polygon fill="#3be085" stroke="#3be085" points="1882.05,-615.29 1892.4,-618.91 1887.03,-614.86 1892.01,-614.43 1892.01,-614.43 1892.01,-614.43 1887.03,-614.86 1891.63,-609.95 1882.05,-615.29 1882.05,-615.29"/>
<text text-anchor="middle" x="1213" y="-689.8" font-family="Times,serif" font-size="14.00">avatar_blob</text>
</g>
<!-- todos -->
<g id="node36" class="node">
<title>todos</title>
<ellipse fill="none" stroke="black" cx="764" cy="-607" rx="29.8" ry="18"/>
<text text-anchor="middle" x="764" y="-603.3" font-family="Times,serif" font-size="14.00">todos</text>
</g>
<!-- User&#45;&gt;todos -->
<g id="edge49" class="edge">
<title>User&#45;&gt;todos</title>
<path fill="none" stroke="#f387ee" d="M773.94,-709.34C771.07,-680.16 768.49,-653.82 766.68,-635.31"/>
<polygon fill="#f387ee" stroke="#f387ee" points="773.94,-709.39 770.44,-719.78 774.43,-714.36 774.92,-719.34 774.92,-719.34 774.92,-719.34 774.43,-714.36 779.39,-718.9 773.94,-709.39 773.94,-709.39"/>
<polygon fill="#f387ee" stroke="#f387ee" points="766.65,-635.05 770.15,-624.66 766.16,-630.07 765.68,-625.1 765.68,-625.1 765.68,-625.1 766.16,-630.07 761.2,-625.54 766.65,-635.05 766.65,-635.05"/>
<text text-anchor="middle" x="808.5" y="-689.8" font-family="Times,serif" font-size="14.00">assigntments</text>
</g>
<!-- WritingEntry&#45;&gt;WritingGoal -->
<g id="edge52" class="edge">
<title>WritingEntry&#45;&gt;WritingGoal</title>
<path fill="none" stroke="#5994e7" d="M1716.51,-2019.13C1739.73,-1970.56 1769.92,-1907.4 1794.4,-1856.2"/>
<polygon fill="#5994e7" stroke="#5994e7" points="1716.48,-2019.2 1708.1,-2026.28 1714.32,-2023.71 1712.16,-2028.22 1712.16,-2028.22 1712.16,-2028.22 1714.32,-2023.71 1716.22,-2030.16 1716.48,-2019.2 1716.48,-2019.2"/>
<polygon fill="#5994e7" stroke="#5994e7" points="1794.43,-1856.13 1802.81,-1849.05 1796.59,-1851.62 1798.75,-1847.11 1798.75,-1847.11 1798.75,-1847.11 1796.59,-1851.62 1794.69,-1845.17 1794.43,-1856.13 1794.43,-1856.13"/>
</g>
<!-- WritingGoal&#45;&gt;Todolist -->
<g id="edge53" class="edge">
<title>WritingGoal&#45;&gt;Todolist</title>
<path fill="none" stroke="#44ed2d" d="M1734.67,-1674.08C1717.1,-1658.96 1698.93,-1643.32 1681.59,-1628.4"/>
<polygon fill="#44ed2d" stroke="#44ed2d" points="1734.81,-1674.2 1739.46,-1684.13 1738.6,-1677.46 1742.39,-1680.72 1742.39,-1680.72 1742.39,-1680.72 1738.6,-1677.46 1745.33,-1677.31 1734.81,-1674.2 1734.81,-1674.2"/>
<polygon fill="#44ed2d" stroke="#44ed2d" points="1681.27,-1628.13 1676.63,-1618.19 1677.48,-1624.87 1673.69,-1621.61 1673.69,-1621.61 1673.69,-1621.61 1677.48,-1624.87 1670.76,-1625.02 1681.27,-1628.13 1681.27,-1628.13"/>
</g>
</g>
</svg>
