<?xml version="1.0" encoding="UTF-8" standalone="no"?>
<!DOCTYPE svg PUBLIC "-//W3C//DTD SVG 1.1//EN"
 "http://www.w3.org/Graphics/SVG/1.1/DTD/svg11.dtd">
<!-- Generated by graphviz version 3.0.0 (20220226.1711)
 -->
<!-- Title: models_diagram Pages: 1 -->
<svg width="2923pt" height="761pt"
 viewBox="0.00 0.00 2922.55 761.00" xmlns="http://www.w3.org/2000/svg" xmlns:xlink="http://www.w3.org/1999/xlink">
<g id="graph0" class="graph" transform="scale(1 1) rotate(0) translate(4 757)">
<title>models_diagram</title>
<polygon fill="transparent" stroke="transparent" points="-4,4 -4,-757 2918.55,-757 2918.55,4 -4,4"/>
<!-- _diagram_info -->
<g id="node1" class="node">
<title>_diagram_info</title>
<text text-anchor="start" x="300.55" y="-738.6" font-family="Times,serif" font-size="13.00">Models diagram</text>
<text text-anchor="start" x="300.55" y="-724.6" font-family="Times,serif" font-size="13.00">Date: Jul 13 2022 &#45; 06:59</text>
<text text-anchor="start" x="300.55" y="-710.6" font-family="Times,serif" font-size="13.00">Migration version: 20220710213414</text>
<text text-anchor="start" x="300.55" y="-696.6" font-family="Times,serif" font-size="13.00">Generated by RailRoady 1.6.0</text>
<text text-anchor="start" x="300.55" y="-682.6" font-family="Times,serif" font-size="13.00">http://railroady.prestonlee.com</text>
</g>
<!-- Ability -->
<g id="node2" class="node">
<title>Ability</title>
<polygon fill="none" stroke="black" points="580.05,-732 525.05,-732 525.05,-696 580.05,-696 580.05,-732"/>
<text text-anchor="middle" x="552.55" y="-710.3" font-family="Times,serif" font-size="14.00">Ability</text>
</g>
<!-- Ahoy::Event -->
<g id="node3" class="node">
<title>Ahoy::Event</title>
<ellipse fill="none" stroke="black" cx="881.55" cy="-178" rx="55.79" ry="18"/>
<text text-anchor="middle" x="881.55" y="-174.3" font-family="Times,serif" font-size="14.00">Ahoy::Event</text>
</g>
<!-- Ahoy::Visit -->
<g id="node4" class="node">
<title>Ahoy::Visit</title>
<ellipse fill="none" stroke="black" cx="827.55" cy="-91" rx="51.99" ry="18"/>
<text text-anchor="middle" x="827.55" y="-87.3" font-family="Times,serif" font-size="14.00">Ahoy::Visit</text>
</g>
<!-- Ahoy::Event&#45;&gt;Ahoy::Visit -->
<g id="edge1" class="edge">
<title>Ahoy::Event&#45;&gt;Ahoy::Visit</title>
<path fill="none" stroke="#83b3fa" d="M849.84,-154.57C845.95,-150.74 842.35,-146.52 839.55,-142 835.29,-135.15 832.54,-126.9 830.77,-119.1"/>
<polygon fill="#83b3fa" stroke="#83b3fa" points="850.11,-154.81 854.61,-164.81 853.85,-158.13 857.59,-161.44 857.59,-161.44 857.59,-161.44 853.85,-158.13 860.58,-158.08 850.11,-154.81 850.11,-154.81"/>
<polygon fill="#83b3fa" stroke="#83b3fa" points="830.77,-119.08 833.38,-108.43 829.86,-114.17 828.96,-109.25 828.96,-109.25 828.96,-109.25 829.86,-114.17 824.53,-110.06 830.77,-119.08 830.77,-119.08"/>
</g>
<!-- Ahoy::User -->
<g id="node32" class="node">
<title>Ahoy::User</title>
<ellipse fill="none" stroke="black" cx="880.55" cy="-18" rx="51.99" ry="18"/>
<text text-anchor="middle" x="880.55" y="-14.3" font-family="Times,serif" font-size="14.00">Ahoy::User</text>
</g>
<!-- Ahoy::Event&#45;&gt;Ahoy::User -->
<g id="edge2" class="edge">
<title>Ahoy::Event&#45;&gt;Ahoy::User</title>
<path fill="none" stroke="#4cca2d" d="M892.57,-150.25C893.37,-147.5 894.06,-144.72 894.55,-142 900.43,-109.24 894.07,-71.1 888.13,-46.08"/>
<polygon fill="#4cca2d" stroke="#4cca2d" points="892.51,-150.43 885.02,-158.44 890.89,-155.16 889.28,-159.9 889.28,-159.9 889.28,-159.9 890.89,-155.16 893.54,-161.35 892.51,-150.43 892.51,-150.43"/>
<polygon fill="#4cca2d" stroke="#4cca2d" points="888.09,-45.91 890.01,-35.11 886.87,-41.06 885.65,-36.21 885.65,-36.21 885.65,-36.21 886.87,-41.06 881.28,-37.31 888.09,-45.91 888.09,-45.91"/>
</g>
<!-- Ahoy::Visit&#45;&gt;Ahoy::Event -->
<g id="edge3" class="edge">
<title>Ahoy::Visit&#45;&gt;Ahoy::Event</title>
<path fill="none" stroke="#a516d0" d="M843.65,-117.35C850.52,-128.17 858.53,-140.77 865.41,-151.6"/>
<polygon fill="#a516d0" stroke="#a516d0" points="843.56,-117.2 841.99,-106.35 840.87,-112.98 838.19,-108.76 838.19,-108.76 838.19,-108.76 840.87,-112.98 834.39,-111.17 843.56,-117.2 843.56,-117.2"/>
<polygon fill="#a516d0" stroke="#a516d0" points="865.52,-151.77 867.08,-162.62 868.2,-155.99 870.88,-160.21 870.88,-160.21 870.88,-160.21 868.2,-155.99 874.68,-157.79 865.52,-151.77 865.52,-151.77"/>
<text text-anchor="middle" x="875.05" y="-130.8" font-family="Times,serif" font-size="14.00">events</text>
</g>
<!-- Ahoy::Visit&#45;&gt;Ahoy::User -->
<g id="edge4" class="edge">
<title>Ahoy::Visit&#45;&gt;Ahoy::User</title>
<path fill="none" stroke="#b2669a" d="M846.19,-65.02C851.29,-58.19 856.82,-50.79 861.91,-43.96"/>
<polygon fill="#b2669a" stroke="#b2669a" points="846.09,-65.16 836.5,-70.48 843.1,-69.17 840.11,-73.17 840.11,-73.17 840.11,-73.17 843.1,-69.17 843.71,-75.87 846.09,-65.16 846.09,-65.16"/>
<polygon fill="#b2669a" stroke="#b2669a" points="862.09,-43.72 871.68,-38.4 865.09,-39.71 868.08,-35.71 868.08,-35.71 868.08,-35.71 865.09,-39.71 864.47,-33.01 862.09,-43.72 862.09,-43.72"/>
</g>
<!-- Announcement -->
<g id="node5" class="node">
<title>Announcement</title>
<ellipse fill="none" stroke="black" cx="2601.55" cy="-714" rx="64.99" ry="18"/>
<text text-anchor="middle" x="2601.55" y="-710.3" font-family="Times,serif" font-size="14.00">Announcement</text>
</g>
<!-- Answer -->
<g id="node6" class="node">
<title>Answer</title>
<ellipse fill="none" stroke="black" cx="1202.55" cy="-547" rx="38.19" ry="18"/>
<text text-anchor="middle" x="1202.55" y="-543.3" font-family="Times,serif" font-size="14.00">Answer</text>
</g>
<!-- Question -->
<g id="node22" class="node">
<title>Question</title>
<ellipse fill="none" stroke="black" cx="1024.55" cy="-439" rx="42.49" ry="18"/>
<text text-anchor="middle" x="1024.55" y="-435.3" font-family="Times,serif" font-size="14.00">Question</text>
</g>
<!-- Answer&#45;&gt;Question -->
<g id="edge6" class="edge">
<title>Answer&#45;&gt;Question</title>
<path fill="none" stroke="#4373aa" d="M1170.74,-527.06C1138.59,-507.91 1089.17,-478.49 1056.85,-459.24"/>
<polygon fill="#4373aa" stroke="#4373aa" points="1171.05,-527.24 1177.34,-536.23 1175.34,-529.8 1179.64,-532.36 1179.64,-532.36 1179.64,-532.36 1175.34,-529.8 1181.94,-528.49 1171.05,-527.24 1171.05,-527.24"/>
<polygon fill="#4373aa" stroke="#4373aa" points="1056.81,-459.21 1050.52,-450.23 1052.51,-456.65 1048.21,-454.09 1048.21,-454.09 1048.21,-454.09 1052.51,-456.65 1045.91,-457.96 1056.81,-459.21 1056.81,-459.21"/>
</g>
<!-- User -->
<g id="node30" class="node">
<title>User</title>
<ellipse fill="none" stroke="black" cx="812.55" cy="-265" rx="27.1" ry="18"/>
<text text-anchor="middle" x="812.55" y="-261.3" font-family="Times,serif" font-size="14.00">User</text>
</g>
<!-- Answer&#45;&gt;User -->
<g id="edge5" class="edge">
<title>Answer&#45;&gt;User</title>
<path fill="none" stroke="#20795f" d="M1209.27,-519.26C1218.72,-474.71 1229.98,-385.18 1183.55,-334 1161.09,-309.25 938.48,-280.73 849.25,-270.19"/>
<polygon fill="#20795f" stroke="#20795f" points="1209.26,-519.3 1202.67,-528.07 1208.16,-524.18 1207.06,-529.06 1207.06,-529.06 1207.06,-529.06 1208.16,-524.18 1211.45,-530.05 1209.26,-519.3 1209.26,-519.3"/>
<polygon fill="#20795f" stroke="#20795f" points="849.24,-270.19 839.83,-264.56 844.27,-269.61 839.3,-269.02 839.3,-269.02 839.3,-269.02 844.27,-269.61 838.78,-273.49 849.24,-270.19 849.24,-270.19"/>
</g>
<!-- ActionText::RichText -->
<g id="node33" class="node">
<title>ActionText::RichText</title>
<ellipse fill="none" stroke="black" cx="1630.55" cy="-265" rx="87.18" ry="18"/>
<text text-anchor="middle" x="1630.55" y="-261.3" font-family="Times,serif" font-size="14.00">ActionText::RichText</text>
</g>
<!-- Answer&#45;&gt;ActionText::RichText -->
<g id="edge7" class="edge">
<title>Answer&#45;&gt;ActionText::RichText</title>
<path fill="none" stroke="#46a670" d="M1238.84,-529.6C1307.6,-498.94 1462.04,-432.06 1596.55,-388 1627.07,-378 1643.05,-391.91 1666.55,-370 1689.73,-348.39 1699.68,-328.85 1684.55,-301 1681.85,-296.03 1678.1,-291.66 1673.83,-287.84"/>
<polygon fill="#46a670" stroke="#46a670" points="1238.45,-529.77 1227.49,-529.74 1233.89,-531.81 1229.33,-533.85 1229.33,-533.85 1229.33,-533.85 1233.89,-531.81 1231.16,-537.96 1238.45,-529.77 1238.45,-529.77"/>
<polygon fill="#46a670" stroke="#46a670" points="1673.61,-287.67 1668.44,-278 1669.65,-284.61 1665.69,-281.56 1665.69,-281.56 1665.69,-281.56 1669.65,-284.61 1662.94,-285.12 1673.61,-287.67 1673.61,-287.67"/>
<text text-anchor="middle" x="1644.05" y="-391.8" font-family="Times,serif" font-size="14.00">rich_text_content</text>
</g>
<!-- ApplicationRecord -->
<g id="node7" class="node">
<title>ApplicationRecord</title>
<ellipse fill="none" stroke="black" cx="2761.55" cy="-714" rx="77.19" ry="18"/>
<text text-anchor="middle" x="2761.55" y="-710.3" font-family="Times,serif" font-size="14.00">ApplicationRecord</text>
</g>
<!-- Author -->
<g id="node8" class="node">
<title>Author</title>
<ellipse fill="none" stroke="black" cx="633.55" cy="-714" rx="36" ry="18"/>
<text text-anchor="middle" x="633.55" y="-710.3" font-family="Times,serif" font-size="14.00">Author</text>
</g>
<!-- Book -->
<g id="node9" class="node">
<title>Book</title>
<ellipse fill="none" stroke="black" cx="1906.55" cy="-620" rx="29.8" ry="18"/>
<text text-anchor="middle" x="1906.55" y="-616.3" font-family="Times,serif" font-size="14.00">Book</text>
</g>
<!-- Author&#45;&gt;Book -->
<g id="edge8" class="edge">
<title>Author&#45;&gt;Book</title>
<path fill="none" stroke="#70fe50" d="M678.98,-709.72C878.9,-695.27 1678.82,-637.46 1866.84,-623.87"/>
<polygon fill="#70fe50" stroke="#70fe50" points="678.9,-709.72 668.6,-705.96 673.91,-710.08 668.92,-710.44 668.92,-710.44 668.92,-710.44 673.91,-710.08 669.25,-714.93 678.9,-709.72 678.9,-709.72"/>
<polygon fill="#70fe50" stroke="#70fe50" points="1866.86,-623.87 1877.16,-627.64 1871.85,-623.51 1876.84,-623.15 1876.84,-623.15 1876.84,-623.15 1871.85,-623.51 1876.51,-618.66 1866.86,-623.87 1866.86,-623.87"/>
</g>
<!-- Author&#45;&gt;User -->
<g id="edge9" class="edge">
<title>Author&#45;&gt;User</title>
<path fill="none" stroke="#8404bd" d="M612.28,-690.34C605.56,-684.44 597.74,-678.71 589.55,-675 510.04,-639 200.55,-708.27 200.55,-621 200.55,-621 200.55,-621 200.55,-351 200.55,-312.17 209.93,-322.77 323.55,-301 489.72,-269.15 692.67,-265.66 775.09,-265.69"/>
<polygon fill="#8404bd" stroke="#8404bd" points="612.32,-690.38 616.53,-700.51 615.97,-693.8 619.61,-697.23 619.61,-697.23 619.61,-697.23 615.97,-693.8 622.69,-693.95 612.32,-690.38 612.32,-690.38"/>
<polygon fill="#8404bd" stroke="#8404bd" points="775.22,-265.69 785.21,-270.21 780.22,-265.7 785.22,-265.71 785.22,-265.71 785.22,-265.71 780.22,-265.7 785.23,-261.21 775.22,-265.69 775.22,-265.69"/>
</g>
<!-- Link -->
<g id="node15" class="node">
<title>Link</title>
<ellipse fill="none" stroke="black" cx="2182.55" cy="-547" rx="27.1" ry="18"/>
<text text-anchor="middle" x="2182.55" y="-543.3" font-family="Times,serif" font-size="14.00">Link</text>
</g>
<!-- Book&#45;&gt;Link -->
<g id="edge20" class="edge">
<title>Book&#45;&gt;Link</title>
<path fill="none" stroke="#c9f557" d="M1943.2,-609.57C1996.62,-595.83 2095.21,-570.47 2147.63,-556.98"/>
<polygon fill="#c9f557" stroke="#c9f557" points="1943.2,-609.57 1932.39,-607.7 1938.36,-610.82 1933.51,-612.06 1933.51,-612.06 1933.51,-612.06 1938.36,-610.82 1934.63,-616.42 1943.2,-609.57 1943.2,-609.57"/>
<polygon fill="#c9f557" stroke="#c9f557" points="2147.79,-556.94 2158.6,-558.81 2152.63,-555.69 2157.48,-554.45 2157.48,-554.45 2157.48,-554.45 2152.63,-555.69 2156.36,-550.09 2147.79,-556.94 2147.79,-556.94"/>
</g>
<!-- Praise -->
<g id="node20" class="node">
<title>Praise</title>
<ellipse fill="none" stroke="black" cx="1882.55" cy="-493" rx="32.49" ry="18"/>
<text text-anchor="middle" x="1882.55" y="-489.3" font-family="Times,serif" font-size="14.00">Praise</text>
</g>
<!-- Book&#45;&gt;Praise -->
<g id="edge18" class="edge">
<title>Book&#45;&gt;Praise</title>
<path fill="none" stroke="#7c8011" d="M1901.31,-591.75C1897.27,-570.69 1891.7,-541.69 1887.68,-520.76"/>
<polygon fill="#7c8011" stroke="#7c8011" points="1901.37,-592.06 1898.84,-602.73 1902.32,-596.97 1903.26,-601.88 1903.26,-601.88 1903.26,-601.88 1902.32,-596.97 1907.68,-601.03 1901.37,-592.06 1901.37,-592.06"/>
<polygon fill="#7c8011" stroke="#7c8011" points="1887.68,-520.73 1890.21,-510.06 1886.74,-515.82 1885.79,-510.91 1885.79,-510.91 1885.79,-510.91 1886.74,-515.82 1881.37,-511.76 1887.68,-520.73 1887.68,-520.73"/>
</g>
<!-- Project -->
<g id="node21" class="node">
<title>Project</title>
<ellipse fill="none" stroke="black" cx="573.55" cy="-547" rx="36" ry="18"/>
<text text-anchor="middle" x="573.55" y="-543.3" font-family="Times,serif" font-size="14.00">Project</text>
</g>
<!-- Book&#45;&gt;Project -->
<g id="edge17" class="edge">
<title>Book&#45;&gt;Project</title>
<path fill="none" stroke="#a54864" d="M1866.36,-618.63C1689.77,-616.89 981.57,-608.49 760.55,-584 710.09,-578.41 652.88,-566.57 615.17,-557.99"/>
<polygon fill="#a54864" stroke="#a54864" points="1866.51,-618.64 1876.47,-623.23 1871.51,-618.68 1876.51,-618.73 1876.51,-618.73 1876.51,-618.73 1871.51,-618.68 1876.55,-614.23 1866.51,-618.64 1866.51,-618.64"/>
<polygon fill="#a54864" stroke="#a54864" points="614.82,-557.91 606.08,-551.28 609.95,-556.79 605.07,-555.67 605.07,-555.67 605.07,-555.67 609.95,-556.79 604.06,-560.05 614.82,-557.91 614.82,-557.91"/>
</g>
<!-- Series -->
<g id="node25" class="node">
<title>Series</title>
<ellipse fill="none" stroke="black" cx="2663.55" cy="-547" rx="32.49" ry="18"/>
<text text-anchor="middle" x="2663.55" y="-543.3" font-family="Times,serif" font-size="14.00">Series</text>
</g>
<!-- Book&#45;&gt;Series -->
<g id="edge16" class="edge">
<title>Book&#45;&gt;Series</title>
<path fill="none" stroke="#4935d9" d="M1946.94,-618.44C2088.18,-616.27 2554.76,-607.39 2617.55,-584 2626.02,-580.84 2634.16,-575.52 2641.19,-569.93"/>
<polygon fill="#4935d9" stroke="#4935d9" points="1946.57,-618.44 1936.51,-614.09 1941.58,-618.52 1936.58,-618.59 1936.58,-618.59 1936.58,-618.59 1941.58,-618.52 1936.64,-623.09 1946.57,-618.44 1946.57,-618.44"/>
<polygon fill="#4935d9" stroke="#4935d9" points="2641.27,-569.85 2651.8,-566.76 2645.07,-566.6 2648.87,-563.34 2648.87,-563.34 2648.87,-563.34 2645.07,-566.6 2645.94,-559.93 2641.27,-569.85 2641.27,-569.85"/>
</g>
<!-- Book&#45;&gt;User -->
<g id="edge19" class="edge">
<title>Book&#45;&gt;User</title>
<path fill="none" stroke="#3a565e" d="M1866.28,-618.14C1678.84,-614.01 899.14,-595.05 857.55,-565 771.92,-503.13 799.95,-439.63 801.55,-334 801.77,-319.33 800.29,-315.5 802.55,-301 802.97,-298.28 803.54,-295.48 804.19,-292.7"/>
<polygon fill="#3a565e" stroke="#3a565e" points="1866.52,-618.15 1876.42,-622.87 1871.52,-618.26 1876.51,-618.37 1876.51,-618.37 1876.51,-618.37 1871.52,-618.26 1876.61,-613.87 1866.52,-618.15 1866.52,-618.15"/>
<polygon fill="#3a565e" stroke="#3a565e" points="804.22,-292.56 811.15,-284.06 805.51,-287.73 806.8,-282.9 806.8,-282.9 806.8,-282.9 805.51,-287.73 802.46,-281.74 804.22,-292.56 804.22,-292.56"/>
</g>
<!-- WritingEntry -->
<g id="node31" class="node">
<title>WritingEntry</title>
<ellipse fill="none" stroke="black" cx="688.55" cy="-439" rx="57.69" ry="18"/>
<text text-anchor="middle" x="688.55" y="-435.3" font-family="Times,serif" font-size="14.00">WritingEntry</text>
</g>
<!-- Book&#45;&gt;WritingEntry -->
<g id="edge21" class="edge">
<title>Book&#45;&gt;WritingEntry</title>
<path fill="none" stroke="#a65e58" d="M1866.36,-618.3C1685.76,-614.98 953.75,-599.48 857.55,-565 797.69,-543.55 741.03,-493.39 710.94,-463.54"/>
<polygon fill="#a65e58" stroke="#a65e58" points="1866.49,-618.3 1876.41,-622.99 1871.49,-618.4 1876.49,-618.49 1876.49,-618.49 1876.49,-618.49 1871.49,-618.4 1876.57,-613.99 1866.49,-618.3 1866.49,-618.3"/>
<polygon fill="#a65e58" stroke="#a65e58" points="710.91,-463.52 707.07,-453.25 707.39,-459.97 703.87,-456.42 703.87,-456.42 703.87,-456.42 707.39,-459.97 700.68,-459.59 710.91,-463.52 710.91,-463.52"/>
</g>
<!-- Book&#45;&gt;ActionText::RichText -->
<g id="edge10" class="edge">
<title>Book&#45;&gt;ActionText::RichText</title>
<path fill="none" stroke="#eb3abe" d="M1866.65,-616.86C1833.75,-613.55 1786.89,-605.17 1751.55,-584 1687.48,-545.64 1667.63,-526.97 1641.55,-457 1635.96,-442.01 1632.35,-434.09 1641.55,-421 1655.13,-401.68 1676.99,-421.6 1691.55,-403 1719.6,-367.16 1724.47,-339.71 1700.55,-301 1696.85,-295.02 1691.79,-290.03 1686.07,-285.87"/>
<polygon fill="#eb3abe" stroke="#eb3abe" points="1866.85,-616.88 1876.42,-622.25 1871.84,-617.32 1876.82,-617.76 1876.82,-617.76 1876.82,-617.76 1871.84,-617.32 1877.22,-613.28 1866.85,-616.88 1866.85,-616.88"/>
<polygon fill="#eb3abe" stroke="#eb3abe" points="1685.76,-285.67 1679.68,-276.54 1681.52,-283.01 1677.29,-280.35 1677.29,-280.35 1677.29,-280.35 1681.52,-283.01 1674.9,-284.16 1685.76,-285.67 1685.76,-285.67"/>
<text text-anchor="middle" x="1692.55" y="-435.3" font-family="Times,serif" font-size="14.00">rich_text_synopsis</text>
</g>
<!-- Book&#45;&gt;ActionText::RichText -->
<g id="edge11" class="edge">
<title>Book&#45;&gt;ActionText::RichText</title>
<path fill="none" stroke="#2d7f17" d="M1882.74,-597.81C1851.59,-568.89 1797.28,-514.08 1765.55,-457 1730.3,-393.6 1766.64,-354.4 1717.55,-301 1711,-293.88 1702.82,-288.19 1694.1,-283.63"/>
<polygon fill="#2d7f17" stroke="#2d7f17" points="1882.76,-597.83 1887.08,-607.91 1886.44,-601.22 1890.13,-604.6 1890.13,-604.6 1890.13,-604.6 1886.44,-601.22 1893.17,-601.28 1882.76,-597.83 1882.76,-597.83"/>
<polygon fill="#2d7f17" stroke="#2d7f17" points="1693.92,-283.55 1686.79,-275.21 1689.39,-281.42 1684.87,-279.29 1684.87,-279.29 1684.87,-279.29 1689.39,-281.42 1682.95,-283.36 1693.92,-283.55 1693.92,-283.55"/>
<text text-anchor="middle" x="1813.05" y="-435.3" font-family="Times,serif" font-size="14.00">rich_text_excerpt</text>
</g>
<!-- ActiveStorage::Attachment -->
<g id="node34" class="node">
<title>ActiveStorage::Attachment</title>
<ellipse fill="none" stroke="black" cx="2187.55" cy="-178" rx="107.48" ry="18"/>
<text text-anchor="middle" x="2187.55" y="-174.3" font-family="Times,serif" font-size="14.00">ActiveStorage::Attachment</text>
</g>
<!-- Book&#45;&gt;ActiveStorage::Attachment -->
<g id="edge12" class="edge">
<title>Book&#45;&gt;ActiveStorage::Attachment</title>
<path fill="none" stroke="#50b50b" d="M1946.46,-618.99C2082.78,-618.69 2524.61,-615.27 2579.55,-584 2596.26,-574.49 2603.55,-567.23 2603.55,-548 2603.55,-548 2603.55,-548 2603.55,-264 2603.55,-202.61 2427.43,-185.12 2304.38,-180.4"/>
<polygon fill="#50b50b" stroke="#50b50b" points="1946.43,-618.99 1936.43,-614.51 1941.43,-619 1936.43,-619.01 1936.43,-619.01 1936.43,-619.01 1941.43,-619 1936.44,-623.51 1946.43,-618.99 1946.43,-618.99"/>
<polygon fill="#50b50b" stroke="#50b50b" points="2304.13,-180.39 2294.3,-175.53 2299.13,-180.21 2294.14,-180.03 2294.14,-180.03 2294.14,-180.03 2299.13,-180.21 2293.97,-184.52 2304.13,-180.39 2304.13,-180.39"/>
<text text-anchor="middle" x="2652.05" y="-391.8" font-family="Times,serif" font-size="14.00">cover_attachment</text>
</g>
<!-- Book&#45;&gt;ActiveStorage::Attachment -->
<g id="edge14" class="edge">
<title>Book&#45;&gt;ActiveStorage::Attachment</title>
<path fill="none" stroke="#b8c49a" d="M1946.43,-616.34C2077.75,-606.54 2491.46,-567.17 2546.55,-457 2553.7,-442.69 2557.04,-433.08 2546.55,-421 2527.86,-399.48 2445.16,-415.51 2419.55,-403 2322.46,-355.58 2239.9,-252.36 2205.15,-204.41"/>
<polygon fill="#b8c49a" stroke="#b8c49a" points="1946.36,-616.34 1936.06,-612.58 1941.38,-616.7 1936.39,-617.07 1936.39,-617.07 1936.39,-617.07 1941.38,-616.7 1936.72,-621.56 1946.36,-616.34 1946.36,-616.34"/>
<polygon fill="#b8c49a" stroke="#b8c49a" points="2205.04,-204.26 2202.88,-193.51 2202.13,-200.2 2199.22,-196.13 2199.22,-196.13 2199.22,-196.13 2202.13,-200.2 2195.56,-198.75 2205.04,-204.26 2205.04,-204.26"/>
<text text-anchor="middle" x="2500.55" y="-391.8" font-family="Times,serif" font-size="14.00">hero_background_attachment</text>
</g>
<!-- ActiveStorage::Blob -->
<g id="node35" class="node">
<title>ActiveStorage::Blob</title>
<ellipse fill="none" stroke="black" cx="1909.55" cy="-178" rx="83.39" ry="18"/>
<text text-anchor="middle" x="1909.55" y="-174.3" font-family="Times,serif" font-size="14.00">ActiveStorage::Blob</text>
</g>
<!-- Book&#45;&gt;ActiveStorage::Blob -->
<g id="edge13" class="edge">
<title>Book&#45;&gt;ActiveStorage::Blob</title>
<path fill="none" stroke="#dc1516" d="M1932.15,-598.44C1936.44,-594.05 1940.48,-589.16 1943.55,-584 1981.78,-519.57 1933.4,-473.81 1986.55,-421 2009.33,-398.36 2036.86,-428.39 2056.55,-403 2060.63,-397.73 2058.56,-394.36 2056.55,-388 2032.37,-311.6 1969.11,-238.95 1933.97,-202.8"/>
<polygon fill="#dc1516" stroke="#dc1516" points="1932.12,-598.48 1921.76,-602.06 1928.48,-601.91 1924.84,-605.33 1924.84,-605.33 1924.84,-605.33 1928.48,-601.91 1927.93,-608.61 1932.12,-598.48 1932.12,-598.48"/>
<polygon fill="#dc1516" stroke="#dc1516" points="1933.94,-202.78 1930.13,-192.5 1930.43,-199.22 1926.92,-195.66 1926.92,-195.66 1926.92,-195.66 1930.43,-199.22 1923.72,-198.82 1933.94,-202.78 1933.94,-202.78"/>
<text text-anchor="middle" x="2089.05" y="-391.8" font-family="Times,serif" font-size="14.00">cover_blob</text>
</g>
<!-- Book&#45;&gt;ActiveStorage::Blob -->
<g id="edge15" class="edge">
<title>Book&#45;&gt;ActiveStorage::Blob</title>
<path fill="none" stroke="#1e3249" d="M1912.38,-591.93C1912.83,-589.26 1913.23,-586.58 1913.55,-584 1929.84,-451.07 1924.43,-416.89 1927.55,-283 1927.92,-267 1929.61,-262.87 1927.55,-247 1925.75,-233.19 1921.98,-218.18 1918.35,-205.79"/>
<polygon fill="#1e3249" stroke="#1e3249" points="1912.34,-592.17 1906.06,-601.16 1911.41,-597.08 1910.48,-601.99 1910.48,-601.99 1910.48,-601.99 1911.41,-597.08 1914.91,-602.83 1912.34,-592.17 1912.34,-592.17"/>
<polygon fill="#1e3249" stroke="#1e3249" points="1918.31,-205.65 1919.69,-194.77 1916.85,-200.86 1915.39,-196.08 1915.39,-196.08 1915.39,-196.08 1916.85,-200.86 1911.08,-197.4 1918.31,-205.65 1918.31,-205.65"/>
<text text-anchor="middle" x="1988.55" y="-391.8" font-family="Times,serif" font-size="14.00">hero_background_blob</text>
</g>
<!-- Click -->
<g id="node10" class="node">
<title>Click</title>
<ellipse fill="none" stroke="black" cx="1034.55" cy="-352" rx="29.8" ry="18"/>
<text text-anchor="middle" x="1034.55" y="-348.3" font-family="Times,serif" font-size="14.00">Click</text>
</g>
<!-- Click&#45;&gt;User -->
<g id="edge22" class="edge">
<title>Click&#45;&gt;User</title>
<path fill="none" stroke="#a8b225" d="M1004.61,-333.69C981.23,-320.25 951.71,-303.49 945.55,-301 913.66,-288.09 875.53,-278.63 848.29,-272.82"/>
<polygon fill="#a8b225" stroke="#a8b225" points="1004.86,-333.83 1011.28,-342.72 1009.19,-336.32 1013.53,-338.82 1013.53,-338.82 1013.53,-338.82 1009.19,-336.32 1015.77,-334.92 1004.86,-333.83 1004.86,-333.83"/>
<polygon fill="#a8b225" stroke="#a8b225" points="848.21,-272.8 839.33,-266.36 843.31,-271.79 838.42,-270.77 838.42,-270.77 838.42,-270.77 843.31,-271.79 837.5,-275.18 848.21,-272.8 848.21,-272.8"/>
</g>
<!-- Clickable -->
<g id="node36" class="node">
<title>Clickable</title>
<ellipse fill="none" stroke="black" cx="1005.55" cy="-265" rx="44.39" ry="18"/>
<text text-anchor="middle" x="1005.55" y="-261.3" font-family="Times,serif" font-size="14.00">Clickable</text>
</g>
<!-- Click&#45;&gt;Clickable -->
<g id="edge23" class="edge">
<title>Click&#45;&gt;Clickable</title>
<path fill="none" stroke="#c838e0" d="M1025.5,-324.47C1022.04,-314.33 1018.09,-302.77 1014.63,-292.62"/>
<polygon fill="#c838e0" stroke="#c838e0" points="1025.59,-324.74 1024.56,-335.66 1027.2,-329.47 1028.82,-334.21 1028.82,-334.21 1028.82,-334.21 1027.2,-329.47 1033.08,-332.75 1025.59,-324.74 1025.59,-324.74"/>
<polygon fill="#c838e0" stroke="#c838e0" points="1014.59,-292.51 1015.62,-281.6 1012.98,-287.78 1011.36,-283.05 1011.36,-283.05 1011.36,-283.05 1012.98,-287.78 1007.1,-284.5 1014.59,-292.51 1014.59,-292.51"/>
</g>
<!-- Comment -->
<g id="node11" class="node">
<title>Comment</title>
<ellipse fill="none" stroke="black" cx="1128.55" cy="-352" rx="46.29" ry="18"/>
<text text-anchor="middle" x="1128.55" y="-348.3" font-family="Times,serif" font-size="14.00">Comment</text>
</g>
<!-- Comment&#45;&gt;User -->
<g id="edge24" class="edge">
<title>Comment&#45;&gt;User</title>
<path fill="none" stroke="#2ceb98" d="M1085.41,-336.21C1053.81,-325.66 1009.79,-311.53 970.55,-301 928.92,-289.83 880.45,-279.48 848.28,-272.98"/>
<polygon fill="#2ceb98" stroke="#2ceb98" points="1085.72,-336.32 1093.77,-343.77 1090.46,-337.91 1095.2,-339.5 1095.2,-339.5 1095.2,-339.5 1090.46,-337.91 1096.64,-335.24 1085.72,-336.32 1085.72,-336.32"/>
<polygon fill="#2ceb98" stroke="#2ceb98" points="848.25,-272.97 839.33,-266.59 843.34,-271.99 838.44,-271 838.44,-271 838.44,-271 843.34,-271.99 837.56,-275.42 848.25,-272.97 848.25,-272.97"/>
</g>
<!-- Comment&#45;&gt;ActionText::RichText -->
<g id="edge25" class="edge">
<title>Comment&#45;&gt;ActionText::RichText</title>
<path fill="none" stroke="#81800f" d="M1167.86,-334.26C1195.95,-323.03 1234.93,-308.88 1270.55,-301 1358.82,-281.47 1461.67,-272.84 1534.78,-269.02"/>
<polygon fill="#81800f" stroke="#81800f" points="1167.66,-334.34 1156.71,-333.93 1163.03,-336.22 1158.4,-338.1 1158.4,-338.1 1158.4,-338.1 1163.03,-336.22 1160.09,-342.27 1167.66,-334.34 1167.66,-334.34"/>
<polygon fill="#81800f" stroke="#81800f" points="1534.91,-269.01 1545.12,-273.01 1539.9,-268.76 1544.9,-268.51 1544.9,-268.51 1544.9,-268.51 1539.9,-268.76 1544.67,-264.02 1534.91,-269.01 1534.91,-269.01"/>
<text text-anchor="middle" x="1318.05" y="-304.8" font-family="Times,serif" font-size="14.00">rich_text_content</text>
</g>
<!-- Commentable -->
<g id="node37" class="node">
<title>Commentable</title>
<ellipse fill="none" stroke="black" cx="1128.55" cy="-265" rx="61.19" ry="18"/>
<text text-anchor="middle" x="1128.55" y="-261.3" font-family="Times,serif" font-size="14.00">Commentable</text>
</g>
<!-- Comment&#45;&gt;Commentable -->
<g id="edge26" class="edge">
<title>Comment&#45;&gt;Commentable</title>
<path fill="none" stroke="#1b05a3" d="M1128.55,-323.73C1128.55,-314.06 1128.55,-303.17 1128.55,-293.48"/>
<polygon fill="#1b05a3" stroke="#1b05a3" points="1128.55,-323.8 1124.05,-333.8 1128.55,-328.8 1128.55,-333.8 1128.55,-333.8 1128.55,-333.8 1128.55,-328.8 1133.05,-333.8 1128.55,-323.8 1128.55,-323.8"/>
<polygon fill="#1b05a3" stroke="#1b05a3" points="1128.55,-293.18 1133.05,-283.18 1128.55,-288.18 1128.55,-283.18 1128.55,-283.18 1128.55,-283.18 1128.55,-288.18 1124.05,-283.18 1128.55,-293.18 1128.55,-293.18"/>
</g>
<!-- Current -->
<g id="node12" class="node">
<title>Current</title>
<polygon fill="none" stroke="black" points="2914.55,-732 2856.55,-732 2856.55,-696 2914.55,-696 2914.55,-732"/>
<text text-anchor="middle" x="2885.55" y="-710.3" font-family="Times,serif" font-size="14.00">Current</text>
</g>
<!-- Episode -->
<g id="node13" class="node">
<title>Episode</title>
<ellipse fill="none" stroke="black" cx="2479.55" cy="-714" rx="38.99" ry="18"/>
<text text-anchor="middle" x="2479.55" y="-710.3" font-family="Times,serif" font-size="14.00">Episode</text>
</g>
<!-- Episode&#45;&gt;Book -->
<g id="edge27" class="edge">
<title>Episode&#45;&gt;Book</title>
<path fill="none" stroke="#3b2cd7" d="M2433.12,-705.55C2323.01,-687.87 2047.62,-643.65 1945.48,-627.25"/>
<polygon fill="#3b2cd7" stroke="#3b2cd7" points="2433.39,-705.59 2442.55,-711.62 2438.33,-706.38 2443.27,-707.18 2443.27,-707.18 2443.27,-707.18 2438.33,-706.38 2443.98,-702.73 2433.39,-705.59 2433.39,-705.59"/>
<polygon fill="#3b2cd7" stroke="#3b2cd7" points="1945.17,-627.2 1936.01,-621.17 1940.23,-626.41 1935.3,-625.62 1935.3,-625.62 1935.3,-625.62 1940.23,-626.41 1934.58,-630.06 1945.17,-627.2 1945.17,-627.2"/>
</g>
<!-- Episode&#45;&gt;Series -->
<g id="edge28" class="edge">
<title>Episode&#45;&gt;Series</title>
<path fill="none" stroke="#024a97" d="M2505.96,-691.35C2543.25,-660.64 2609.28,-605.76 2631.55,-584 2635.58,-580.05 2639.72,-575.69 2643.61,-571.39"/>
<polygon fill="#024a97" stroke="#024a97" points="2505.74,-691.52 2495.16,-694.4 2501.88,-694.7 2498.02,-697.87 2498.02,-697.87 2498.02,-697.87 2501.88,-694.7 2500.88,-701.35 2505.74,-691.52 2505.74,-691.52"/>
<polygon fill="#024a97" stroke="#024a97" points="2643.67,-571.33 2653.67,-566.84 2646.98,-567.59 2650.3,-563.86 2650.3,-563.86 2650.3,-563.86 2646.98,-567.59 2646.94,-560.87 2643.67,-571.33 2643.67,-571.33"/>
</g>
<!-- Feature -->
<g id="node14" class="node">
<title>Feature</title>
<ellipse fill="none" stroke="black" cx="1546.55" cy="-352" rx="37.09" ry="18"/>
<text text-anchor="middle" x="1546.55" y="-348.3" font-family="Times,serif" font-size="14.00">Feature</text>
</g>
<!-- Feature&#45;&gt;ActionText::RichText -->
<g id="edge29" class="edge">
<title>Feature&#45;&gt;ActionText::RichText</title>
<path fill="none" stroke="#5a1ecc" d="M1509.23,-335.81C1492.3,-326.68 1478.14,-314.28 1488.55,-301 1496.74,-290.54 1521.96,-282.79 1548.92,-277.27"/>
<polygon fill="#5a1ecc" stroke="#5a1ecc" points="1509.26,-335.82 1516.21,-344.3 1513.74,-338.05 1518.22,-340.27 1518.22,-340.27 1518.22,-340.27 1513.74,-338.05 1520.22,-336.24 1509.26,-335.82 1509.26,-335.82"/>
<polygon fill="#5a1ecc" stroke="#5a1ecc" points="1549.09,-277.24 1559.76,-279.76 1554,-276.29 1558.91,-275.34 1558.91,-275.34 1558.91,-275.34 1554,-276.29 1558.05,-270.92 1549.09,-277.24 1549.09,-277.24"/>
<text text-anchor="middle" x="1536.05" y="-304.8" font-family="Times,serif" font-size="14.00">rich_text_content</text>
</g>
<!-- Linkable -->
<g id="node38" class="node">
<title>Linkable</title>
<ellipse fill="none" stroke="black" cx="2037.55" cy="-439" rx="42.49" ry="18"/>
<text text-anchor="middle" x="2037.55" y="-435.3" font-family="Times,serif" font-size="14.00">Linkable</text>
</g>
<!-- Link&#45;&gt;Linkable -->
<g id="edge30" class="edge">
<title>Link&#45;&gt;Linkable</title>
<path fill="none" stroke="#083f8a" d="M2156.55,-527C2131.13,-508.41 2092.51,-480.18 2066.21,-460.96"/>
<polygon fill="#083f8a" stroke="#083f8a" points="2156.69,-527.1 2162.11,-536.64 2160.73,-530.05 2164.77,-533 2164.77,-533 2164.77,-533 2160.73,-530.05 2167.42,-529.37 2156.69,-527.1 2156.69,-527.1"/>
<polygon fill="#083f8a" stroke="#083f8a" points="2065.88,-460.71 2060.46,-451.18 2061.84,-457.76 2057.8,-454.81 2057.8,-454.81 2057.8,-454.81 2061.84,-457.76 2055.15,-458.44 2065.88,-460.71 2065.88,-460.71"/>
</g>
<!-- ActsAsTaggableOn::Tagging -->
<g id="node39" class="node">
<title>ActsAsTaggableOn::Tagging</title>
<ellipse fill="none" stroke="black" cx="2424.55" cy="-439" rx="113.18" ry="18"/>
<text text-anchor="middle" x="2424.55" y="-435.3" font-family="Times,serif" font-size="14.00">ActsAsTaggableOn::Tagging</text>
</g>
<!-- Link&#45;&gt;ActsAsTaggableOn::Tagging -->
<g id="edge31" class="edge">
<title>Link&#45;&gt;ActsAsTaggableOn::Tagging</title>
<path fill="none" stroke="#a277c3" d="M2212.31,-529.97C2251.04,-509.11 2313.88,-475.28 2314.55,-475 2329.3,-468.75 2345.58,-462.98 2360.98,-458.02"/>
<polygon fill="#a277c3" stroke="#a277c3" points="2211.84,-530.22 2200.9,-531 2207.44,-532.59 2203.04,-534.96 2203.04,-534.96 2203.04,-534.96 2207.44,-532.59 2205.17,-538.93 2211.84,-530.22 2211.84,-530.22"/>
<polygon fill="#a277c3" stroke="#a277c3" points="2361.41,-457.88 2372.3,-459.16 2366.18,-456.38 2370.95,-454.87 2370.95,-454.87 2370.95,-454.87 2366.18,-456.38 2369.6,-450.58 2361.41,-457.88 2361.41,-457.88"/>
<text text-anchor="middle" x="2337.55" y="-489.3" font-family="Times,serif" font-size="14.00">taggings</text>
</g>
<!-- Link&#45;&gt;ActsAsTaggableOn::Tagging -->
<g id="edge33" class="edge">
<title>Link&#45;&gt;ActsAsTaggableOn::Tagging</title>
<path fill="none" stroke="#9bba94" d="M2220.08,-545.43C2257.83,-543.35 2316.59,-535.91 2360.55,-511 2380.04,-499.95 2396.77,-480.81 2408.23,-465.19"/>
<polygon fill="#9bba94" stroke="#9bba94" points="2220,-545.43 2209.81,-541.38 2215.01,-545.65 2210.02,-545.88 2210.02,-545.88 2210.02,-545.88 2215.01,-545.65 2210.22,-550.37 2220,-545.43 2220,-545.43"/>
<polygon fill="#9bba94" stroke="#9bba94" points="2408.28,-465.12 2417.72,-459.53 2411.16,-461.03 2414.04,-456.94 2414.04,-456.94 2414.04,-456.94 2411.16,-461.03 2410.36,-454.35 2408.28,-465.12 2408.28,-465.12"/>
<text text-anchor="middle" x="2435.55" y="-489.3" font-family="Times,serif" font-size="14.00">tag_taggings</text>
</g>
<!-- ActsAsTaggableOn::Tag -->
<g id="node40" class="node">
<title>ActsAsTaggableOn::Tag</title>
<ellipse fill="none" stroke="black" cx="2195.55" cy="-439" rx="97.48" ry="18"/>
<text text-anchor="middle" x="2195.55" y="-435.3" font-family="Times,serif" font-size="14.00">ActsAsTaggableOn::Tag</text>
</g>
<!-- Link&#45;&gt;ActsAsTaggableOn::Tag -->
<g id="edge32" class="edge">
<title>Link&#45;&gt;ActsAsTaggableOn::Tag</title>
<path fill="none" stroke="#6e24d3" d="M2185.87,-518.93C2187.8,-503.19 2190.22,-483.39 2192.17,-467.57"/>
<polygon fill="#6e24d3" stroke="#6e24d3" points="2185.85,-519.04 2180.17,-528.42 2185.24,-524.01 2184.63,-528.97 2184.63,-528.97 2184.63,-528.97 2185.24,-524.01 2189.1,-529.52 2185.85,-519.04 2185.85,-519.04"/>
<polygon fill="#6e24d3" stroke="#6e24d3" points="2192.2,-467.27 2197.89,-457.89 2192.81,-462.3 2193.42,-457.34 2193.42,-457.34 2193.42,-457.34 2192.81,-462.3 2188.95,-456.79 2192.2,-467.27 2192.2,-467.27"/>
<text text-anchor="middle" x="2217.05" y="-489.3" font-family="Times,serif" font-size="14.00">base_tags</text>
</g>
<!-- Link&#45;&gt;ActsAsTaggableOn::Tag -->
<g id="edge34" class="edge">
<title>Link&#45;&gt;ActsAsTaggableOn::Tag</title>
<path fill="none" stroke="#b63706" d="M2164.98,-521.8C2163.17,-518.31 2161.6,-514.66 2160.55,-511 2156.12,-495.63 2154.42,-489.78 2160.55,-475 2162.09,-471.27 2164.25,-467.72 2166.75,-464.43"/>
<polygon fill="#b63706" stroke="#b63706" points="2165.07,-521.95 2166.35,-532.84 2167.64,-526.24 2170.21,-530.53 2170.21,-530.53 2170.21,-530.53 2167.64,-526.24 2174.07,-528.22 2165.07,-521.95 2165.07,-521.95"/>
<polygon fill="#b63706" stroke="#b63706" points="2166.88,-464.28 2176.86,-459.74 2170.18,-460.53 2173.48,-456.77 2173.48,-456.77 2173.48,-456.77 2170.18,-460.53 2170.11,-453.8 2166.88,-464.28 2166.88,-464.28"/>
<text text-anchor="middle" x="2171.55" y="-489.3" font-family="Times,serif" font-size="14.00">tags</text>
</g>
<!-- Membership -->
<g id="node16" class="node">
<title>Membership</title>
<ellipse fill="none" stroke="black" cx="284.55" cy="-352" rx="55.79" ry="18"/>
<text text-anchor="middle" x="284.55" y="-348.3" font-family="Times,serif" font-size="14.00">Membership</text>
</g>
<!-- Membership&#45;&gt;User -->
<g id="edge35" class="edge">
<title>Membership&#45;&gt;User</title>
<path fill="none" stroke="#1928c3" d="M309.42,-328.14C322.01,-317.98 338.08,-306.98 354.55,-301 431.58,-273.03 680.17,-267.41 775.16,-266.28"/>
<polygon fill="#1928c3" stroke="#1928c3" points="309.35,-328.2 298.79,-331.19 305.52,-331.42 301.69,-334.63 301.69,-334.63 301.69,-334.63 305.52,-331.42 304.58,-338.08 309.35,-328.2 309.35,-328.2"/>
<polygon fill="#1928c3" stroke="#1928c3" points="775.18,-266.28 785.23,-270.67 780.18,-266.23 785.18,-266.17 785.18,-266.17 785.18,-266.17 780.18,-266.23 785.13,-261.67 775.18,-266.28 775.18,-266.28"/>
</g>
<!-- Membershipable -->
<g id="node41" class="node">
<title>Membershipable</title>
<ellipse fill="none" stroke="black" cx="175.55" cy="-265" rx="70.69" ry="18"/>
<text text-anchor="middle" x="175.55" y="-261.3" font-family="Times,serif" font-size="14.00">Membershipable</text>
</g>
<!-- Membership&#45;&gt;Membershipable -->
<g id="edge36" class="edge">
<title>Membership&#45;&gt;Membershipable</title>
<path fill="none" stroke="#1f8f7c" d="M256.38,-329.04C240.43,-316.6 220.51,-301.06 204.44,-288.53"/>
<polygon fill="#1f8f7c" stroke="#1f8f7c" points="256.41,-329.06 261.53,-338.76 260.36,-332.14 264.3,-335.21 264.3,-335.21 264.3,-335.21 260.36,-332.14 267.07,-331.66 256.41,-329.06 256.41,-329.06"/>
<polygon fill="#1f8f7c" stroke="#1f8f7c" points="204.31,-288.43 199.19,-278.73 200.37,-285.36 196.43,-282.28 196.43,-282.28 196.43,-282.28 200.37,-285.36 193.66,-285.83 204.31,-288.43 204.31,-288.43"/>
</g>
<!-- Notification -->
<g id="node17" class="node">
<title>Notification</title>
<ellipse fill="none" stroke="black" cx="1008.55" cy="-178" rx="53.09" ry="18"/>
<text text-anchor="middle" x="1008.55" y="-174.3" font-family="Times,serif" font-size="14.00">Notification</text>
</g>
<!-- Recipient -->
<g id="node42" class="node">
<title>Recipient</title>
<ellipse fill="none" stroke="black" cx="1008.55" cy="-91" rx="44.39" ry="18"/>
<text text-anchor="middle" x="1008.55" y="-87.3" font-family="Times,serif" font-size="14.00">Recipient</text>
</g>
<!-- Notification&#45;&gt;Recipient -->
<g id="edge37" class="edge">
<title>Notification&#45;&gt;Recipient</title>
<path fill="none" stroke="#e7e30c" d="M1008.55,-149.73C1008.55,-140.06 1008.55,-129.17 1008.55,-119.48"/>
<polygon fill="#e7e30c" stroke="#e7e30c" points="1008.55,-149.8 1004.05,-159.8 1008.55,-154.8 1008.55,-159.8 1008.55,-159.8 1008.55,-159.8 1008.55,-154.8 1013.05,-159.8 1008.55,-149.8 1008.55,-149.8"/>
<polygon fill="#e7e30c" stroke="#e7e30c" points="1008.55,-119.18 1013.05,-109.18 1008.55,-114.18 1008.55,-109.18 1008.55,-109.18 1008.55,-109.18 1008.55,-114.18 1004.05,-109.18 1008.55,-119.18 1008.55,-119.18"/>
</g>
<!-- Page -->
<g id="node18" class="node">
<title>Page</title>
<ellipse fill="none" stroke="black" cx="1629.55" cy="-352" rx="27.9" ry="18"/>
<text text-anchor="middle" x="1629.55" y="-348.3" font-family="Times,serif" font-size="14.00">Page</text>
</g>
<!-- Page&#45;&gt;ActionText::RichText -->
<g id="edge38" class="edge">
<title>Page&#45;&gt;ActionText::RichText</title>
<path fill="none" stroke="#d97c49" d="M1601.78,-332.9C1591.79,-323.99 1584.17,-312.66 1589.55,-301 1591.45,-296.87 1594.11,-293.05 1597.16,-289.57"/>
<polygon fill="#d97c49" stroke="#d97c49" points="1601.88,-332.98 1606.9,-342.73 1605.79,-336.09 1609.7,-339.21 1609.7,-339.21 1609.7,-339.21 1605.79,-336.09 1612.5,-335.69 1601.88,-332.98 1601.88,-332.98"/>
<polygon fill="#d97c49" stroke="#d97c49" points="1597.22,-289.51 1607.51,-285.71 1600.79,-286.01 1604.35,-282.5 1604.35,-282.5 1604.35,-282.5 1600.79,-286.01 1601.2,-279.29 1597.22,-289.51 1597.22,-289.51"/>
<text text-anchor="middle" x="1637.05" y="-304.8" font-family="Times,serif" font-size="14.00">rich_text_content</text>
</g>
<!-- Post -->
<g id="node19" class="node">
<title>Post</title>
<ellipse fill="none" stroke="black" cx="1864.55" cy="-352" rx="27" ry="18"/>
<text text-anchor="middle" x="1864.55" y="-348.3" font-family="Times,serif" font-size="14.00">Post</text>
</g>
<!-- Post&#45;&gt;User -->
<g id="edge39" class="edge">
<title>Post&#45;&gt;User</title>
<path fill="none" stroke="#7e893b" d="M1830.99,-340.47C1790.73,-328.38 1720.98,-309.18 1659.55,-301 1347.97,-259.52 1266.03,-305.97 952.55,-283 917.36,-280.42 877.43,-275.36 849.24,-271.43"/>
<polygon fill="#7e893b" stroke="#7e893b" points="1831,-340.47 1839.26,-347.68 1835.78,-341.92 1840.57,-343.38 1840.57,-343.38 1840.57,-343.38 1835.78,-341.92 1841.87,-339.07 1831,-340.47 1831,-340.47"/>
<polygon fill="#7e893b" stroke="#7e893b" points="848.95,-271.39 839.68,-265.53 844,-270.68 839.05,-269.98 839.05,-269.98 839.05,-269.98 844,-270.68 838.42,-274.44 848.95,-271.39 848.95,-271.39"/>
</g>
<!-- Post&#45;&gt;ActionText::RichText -->
<g id="edge40" class="edge">
<title>Post&#45;&gt;ActionText::RichText</title>
<path fill="none" stroke="#77d9a8" d="M1836.4,-333.93C1827.17,-328.27 1816.89,-321.92 1807.55,-316 1797.23,-309.47 1795.78,-305.76 1784.55,-301 1760.91,-290.99 1733.98,-283.62 1709.31,-278.3"/>
<polygon fill="#77d9a8" stroke="#77d9a8" points="1836.67,-334.09 1842.86,-343.14 1840.94,-336.7 1845.2,-339.3 1845.2,-339.3 1845.2,-339.3 1840.94,-336.7 1847.55,-335.46 1836.67,-334.09 1836.67,-334.09"/>
<polygon fill="#77d9a8" stroke="#77d9a8" points="1709.05,-278.25 1700.17,-271.81 1704.15,-277.23 1699.26,-276.21 1699.26,-276.21 1699.26,-276.21 1704.15,-277.23 1698.34,-280.62 1709.05,-278.25 1709.05,-278.25"/>
<text text-anchor="middle" x="1855.05" y="-304.8" font-family="Times,serif" font-size="14.00">rich_text_content</text>
</g>
<!-- Post&#45;&gt;ActiveStorage::Attachment -->
<g id="edge41" class="edge">
<title>Post&#45;&gt;ActiveStorage::Attachment</title>
<path fill="none" stroke="#cee15a" d="M1894.38,-335.11C1952.79,-304.01 2082.23,-235.08 2147.81,-200.16"/>
<polygon fill="#cee15a" stroke="#cee15a" points="1894.07,-335.28 1883.13,-336.01 1889.66,-337.63 1885.24,-339.98 1885.24,-339.98 1885.24,-339.98 1889.66,-337.63 1887.36,-343.95 1894.07,-335.28 1894.07,-335.28"/>
<polygon fill="#cee15a" stroke="#cee15a" points="2148.18,-199.96 2159.13,-199.23 2152.6,-197.61 2157.01,-195.26 2157.01,-195.26 2157.01,-195.26 2152.6,-197.61 2154.9,-191.29 2148.18,-199.96 2148.18,-199.96"/>
<text text-anchor="middle" x="2113.55" y="-261.3" font-family="Times,serif" font-size="14.00">images_attachments</text>
</g>
<!-- Post&#45;&gt;ActiveStorage::Blob -->
<g id="edge42" class="edge">
<title>Post&#45;&gt;ActiveStorage::Blob</title>
<path fill="none" stroke="#c76fb7" d="M1891.75,-332.68C1902.24,-323.31 1910.1,-311.67 1902.55,-301 1888.66,-281.38 1865.43,-302.62 1851.55,-283 1842.3,-269.94 1846.01,-262.01 1851.55,-247 1857.77,-230.12 1870.25,-214.58 1882.05,-202.63"/>
<polygon fill="#c76fb7" stroke="#c76fb7" points="1891.62,-332.78 1881.01,-335.54 1887.73,-335.91 1883.83,-339.05 1883.83,-339.05 1883.83,-339.05 1887.73,-335.91 1886.65,-342.55 1891.62,-332.78 1891.62,-332.78"/>
<polygon fill="#c76fb7" stroke="#c76fb7" points="1882.05,-202.63 1892.37,-198.91 1885.65,-199.15 1889.24,-195.68 1889.24,-195.68 1889.24,-195.68 1885.65,-199.15 1886.11,-192.44 1882.05,-202.63 1882.05,-202.63"/>
<text text-anchor="middle" x="1889.55" y="-261.3" font-family="Times,serif" font-size="14.00">images_blobs</text>
</g>
<!-- Praise&#45;&gt;ActionText::RichText -->
<g id="edge43" class="edge">
<title>Praise&#45;&gt;ActionText::RichText</title>
<path fill="none" stroke="#39125c" d="M1882,-464.66C1880.29,-449.95 1875.76,-432.51 1864.55,-421 1843.92,-399.84 1822.19,-423.11 1800.55,-403 1764.75,-369.74 1797.16,-332.18 1759.55,-301 1746.48,-290.17 1730.35,-282.67 1713.97,-277.48"/>
<polygon fill="#39125c" stroke="#39125c" points="1882.01,-464.8 1878.32,-475.13 1882.41,-469.79 1882.8,-474.77 1882.8,-474.77 1882.8,-474.77 1882.41,-469.79 1887.29,-474.42 1882.01,-464.8 1882.01,-464.8"/>
<polygon fill="#39125c" stroke="#39125c" points="1713.93,-277.47 1705.57,-270.36 1709.12,-276.08 1704.32,-274.69 1704.32,-274.69 1704.32,-274.69 1709.12,-276.08 1703.07,-279.01 1713.93,-277.47 1713.93,-277.47"/>
<text text-anchor="middle" x="1854.05" y="-391.8" font-family="Times,serif" font-size="14.00">rich_text_comment</text>
</g>
<!-- Project&#45;&gt;Membership -->
<g id="edge46" class="edge">
<title>Project&#45;&gt;Membership</title>
<path fill="none" stroke="#5ab879" d="M531.28,-536.17C511.19,-530.48 487.31,-522.2 467.55,-511 402.3,-474.02 338.98,-411.7 306.69,-377.42"/>
<polygon fill="#5ab879" stroke="#5ab879" points="531.45,-536.21 539.92,-543.17 536.27,-537.52 541.1,-538.83 541.1,-538.83 541.1,-538.83 536.27,-537.52 542.28,-534.49 531.45,-536.21 531.45,-536.21"/>
<polygon fill="#5ab879" stroke="#5ab879" points="306.35,-377.06 302.83,-366.67 302.94,-373.4 299.53,-369.74 299.53,-369.74 299.53,-369.74 302.94,-373.4 296.24,-372.81 306.35,-377.06 306.35,-377.06"/>
</g>
<!-- Todolist -->
<g id="node29" class="node">
<title>Todolist</title>
<ellipse fill="none" stroke="black" cx="573.55" cy="-439" rx="39.79" ry="18"/>
<text text-anchor="middle" x="573.55" y="-435.3" font-family="Times,serif" font-size="14.00">Todolist</text>
</g>
<!-- Project&#45;&gt;Todolist -->
<g id="edge45" class="edge">
<title>Project&#45;&gt;Todolist</title>
<path fill="none" stroke="#0c8bd9" d="M573.55,-518.93C573.55,-503.19 573.55,-483.39 573.55,-467.57"/>
<polygon fill="#0c8bd9" stroke="#0c8bd9" points="573.55,-518.97 569.05,-528.97 573.55,-523.97 573.55,-528.97 573.55,-528.97 573.55,-528.97 573.55,-523.97 578.05,-528.97 573.55,-518.97 573.55,-518.97"/>
<polygon fill="#0c8bd9" stroke="#0c8bd9" points="573.55,-467.34 578.05,-457.34 573.55,-462.34 573.55,-457.34 573.55,-457.34 573.55,-457.34 573.55,-462.34 569.05,-457.34 573.55,-467.34 573.55,-467.34"/>
</g>
<!-- Project&#45;&gt;User -->
<g id="edge47" class="edge">
<title>Project&#45;&gt;User</title>
<path fill="none" stroke="#dbf229" d="M560.1,-520.52C541.28,-486.77 504.32,-426.98 459.55,-388 446.65,-376.77 434.37,-384.65 425.55,-370 417.29,-356.29 416.13,-346.94 425.55,-334 466.28,-278.01 685.75,-268.06 774.89,-266.34"/>
<polygon fill="#dbf229" stroke="#dbf229" points="560.11,-520.54 560.97,-531.47 562.51,-524.92 564.92,-529.31 564.92,-529.31 564.92,-529.31 562.51,-524.92 568.86,-527.15 560.11,-520.54 560.11,-520.54"/>
<polygon fill="#dbf229" stroke="#dbf229" points="775.09,-266.33 785.17,-270.67 780.09,-266.25 785.09,-266.17 785.09,-266.17 785.09,-266.17 780.09,-266.25 785.01,-261.67 775.09,-266.33 775.09,-266.33"/>
<text text-anchor="middle" x="500.55" y="-391.8" font-family="Times,serif" font-size="14.00">members</text>
</g>
<!-- Project&#45;&gt;WritingEntry -->
<g id="edge44" class="edge">
<title>Project&#45;&gt;WritingEntry</title>
<path fill="none" stroke="#90a15f" d="M597.61,-523.82C616.95,-505.99 644.03,-481.03 663.61,-462.99"/>
<polygon fill="#90a15f" stroke="#90a15f" points="597.38,-524.04 586.97,-527.5 593.7,-527.42 590.02,-530.81 590.02,-530.81 590.02,-530.81 593.7,-527.42 593.07,-534.12 597.38,-524.04 597.38,-524.04"/>
<polygon fill="#90a15f" stroke="#90a15f" points="663.62,-462.98 674.02,-459.51 667.29,-459.59 670.97,-456.2 670.97,-456.2 670.97,-456.2 667.29,-459.59 667.92,-452.89 663.62,-462.98 663.62,-462.98"/>
</g>
<!-- Question&#45;&gt;Membership -->
<g id="edge50" class="edge">
<title>Question&#45;&gt;Membership</title>
<path fill="none" stroke="#840ffc" d="M974.1,-432.39C871.02,-420.91 628.81,-393.79 425.55,-370 399.39,-366.94 370.53,-363.47 345.76,-360.47"/>
<polygon fill="#840ffc" stroke="#840ffc" points="974.28,-432.41 983.72,-437.99 979.25,-432.97 984.22,-433.52 984.22,-433.52 984.22,-433.52 979.25,-432.97 984.72,-429.05 974.28,-432.41 974.28,-432.41"/>
<polygon fill="#840ffc" stroke="#840ffc" points="345.7,-360.47 336.31,-354.8 340.74,-359.86 335.77,-359.26 335.77,-359.26 335.77,-359.26 340.74,-359.86 335.23,-363.73 345.7,-360.47 345.7,-360.47"/>
</g>
<!-- Reminder -->
<g id="node23" class="node">
<title>Reminder</title>
<ellipse fill="none" stroke="black" cx="1276.55" cy="-352" rx="46.29" ry="18"/>
<text text-anchor="middle" x="1276.55" y="-348.3" font-family="Times,serif" font-size="14.00">Reminder</text>
</g>
<!-- Question&#45;&gt;Reminder -->
<g id="edge48" class="edge">
<title>Question&#45;&gt;Reminder</title>
<path fill="none" stroke="#c47b73" d="M1066.45,-423.87C1112.55,-408.32 1186.28,-383.45 1233.01,-367.68"/>
<polygon fill="#c47b73" stroke="#c47b73" points="1066.19,-423.95 1055.28,-422.88 1061.46,-425.55 1056.72,-427.15 1056.72,-427.15 1056.72,-427.15 1061.46,-425.55 1058.16,-431.41 1066.19,-423.95 1066.19,-423.95"/>
<polygon fill="#c47b73" stroke="#c47b73" points="1233.08,-367.66 1243.99,-368.73 1237.82,-366.06 1242.56,-364.46 1242.56,-364.46 1242.56,-364.46 1237.82,-366.06 1241.12,-360.2 1233.08,-367.66 1233.08,-367.66"/>
</g>
<!-- Question&#45;&gt;User -->
<g id="edge49" class="edge">
<title>Question&#45;&gt;User</title>
<path fill="none" stroke="#da25ad" d="M1000.91,-415.37C990.15,-405.96 976.86,-395.5 963.55,-388 942.6,-376.2 931.66,-384.57 912.55,-370 882.83,-347.36 891.16,-327.21 864.55,-301 857.66,-294.22 849.28,-287.92 841.29,-282.6"/>
<polygon fill="#da25ad" stroke="#da25ad" points="1001.18,-415.61 1005.6,-425.64 1004.9,-418.95 1008.61,-422.3 1008.61,-422.3 1008.61,-422.3 1004.9,-418.95 1011.62,-418.96 1001.18,-415.61 1001.18,-415.61"/>
<polygon fill="#da25ad" stroke="#da25ad" points="841.28,-282.6 835.27,-273.43 837.07,-279.91 832.85,-277.23 832.85,-277.23 832.85,-277.23 837.07,-279.91 830.43,-281.02 841.28,-282.6 841.28,-282.6"/>
</g>
<!-- Question&#45;&gt;User -->
<g id="edge51" class="edge">
<title>Question&#45;&gt;User</title>
<path fill="none" stroke="#04d534" d="M1009.93,-412.83C1003.88,-404.07 996.24,-394.76 987.55,-388 970.87,-375.03 960.69,-382.35 943.55,-370 926.41,-357.66 926.4,-349.93 912.55,-334 899.73,-319.27 899.04,-312.88 883.55,-301 871.99,-292.14 857.83,-284.62 845.21,-278.84"/>
<polygon fill="#04d534" stroke="#04d534" points="1009.97,-412.9 1011.65,-423.74 1012.7,-417.09 1015.42,-421.28 1015.42,-421.28 1015.42,-421.28 1012.7,-417.09 1019.19,-418.83 1009.97,-412.9 1009.97,-412.9"/>
<polygon fill="#04d534" stroke="#04d534" points="845.08,-278.79 837.73,-270.65 840.5,-276.78 835.92,-274.78 835.92,-274.78 835.92,-274.78 840.5,-276.78 834.11,-278.9 845.08,-278.79 845.08,-278.79"/>
<text text-anchor="middle" x="969.55" y="-348.3" font-family="Times,serif" font-size="14.00">members</text>
</g>
<!-- Remindable -->
<g id="node43" class="node">
<title>Remindable</title>
<ellipse fill="none" stroke="black" cx="1261.55" cy="-265" rx="53.89" ry="18"/>
<text text-anchor="middle" x="1261.55" y="-261.3" font-family="Times,serif" font-size="14.00">Remindable</text>
</g>
<!-- Reminder&#45;&gt;Remindable -->
<g id="edge52" class="edge">
<title>Reminder&#45;&gt;Remindable</title>
<path fill="none" stroke="#8ad0fc" d="M1255.44,-326.45C1253.45,-323.11 1251.73,-319.59 1250.55,-316 1248.06,-308.49 1248.63,-300.16 1250.44,-292.48"/>
<polygon fill="#8ad0fc" stroke="#8ad0fc" points="1255.51,-326.56 1257.46,-337.35 1258.34,-330.69 1261.17,-334.81 1261.17,-334.81 1261.17,-334.81 1258.34,-330.69 1264.88,-332.26 1255.51,-326.56 1255.51,-326.56"/>
<polygon fill="#8ad0fc" stroke="#8ad0fc" points="1250.45,-292.46 1257.67,-284.21 1251.91,-287.68 1253.37,-282.9 1253.37,-282.9 1253.37,-282.9 1251.91,-287.68 1249.06,-281.58 1250.45,-292.46 1250.45,-292.46"/>
</g>
<!-- Role -->
<g id="node24" class="node">
<title>Role</title>
<ellipse fill="none" stroke="black" cx="97.55" cy="-352" rx="27.1" ry="18"/>
<text text-anchor="middle" x="97.55" y="-348.3" font-family="Times,serif" font-size="14.00">Role</text>
</g>
<!-- Role&#45;&gt;User -->
<g id="edge53" class="edge">
<title>Role&#45;&gt;User</title>
<path fill="none" stroke="#efc432" d="M123.18,-332.43C140.24,-321.15 163.65,-307.68 186.55,-301 297.76,-268.56 656.81,-265.87 774.67,-265.88"/>
<polygon fill="#efc432" stroke="#efc432" points="123.14,-332.45 112.34,-334.35 119,-335.26 114.87,-338.08 114.87,-338.08 114.87,-338.08 119,-335.26 117.4,-341.8 123.14,-332.45 123.14,-332.45"/>
<polygon fill="#efc432" stroke="#efc432" points="774.99,-265.88 784.99,-270.39 779.99,-265.89 784.99,-265.89 784.99,-265.89 784.99,-265.89 779.99,-265.89 785,-261.39 774.99,-265.88 774.99,-265.88"/>
</g>
<!-- Resource -->
<g id="node44" class="node">
<title>Resource</title>
<ellipse fill="none" stroke="black" cx="43.55" cy="-265" rx="43.59" ry="18"/>
<text text-anchor="middle" x="43.55" y="-261.3" font-family="Times,serif" font-size="14.00">Resource</text>
</g>
<!-- Role&#45;&gt;Resource -->
<g id="edge54" class="edge">
<title>Role&#45;&gt;Resource</title>
<path fill="none" stroke="#d5518c" d="M81.85,-326.3C74.79,-315.18 66.47,-302.08 59.39,-290.94"/>
<polygon fill="#d5518c" stroke="#d5518c" points="82.03,-326.57 83.59,-337.43 84.71,-330.79 87.39,-335.01 87.39,-335.01 87.39,-335.01 84.71,-330.79 91.19,-332.6 82.03,-326.57 82.03,-326.57"/>
<polygon fill="#d5518c" stroke="#d5518c" points="59.39,-290.94 57.82,-280.08 56.71,-286.72 54.03,-282.5 54.03,-282.5 54.03,-282.5 56.71,-286.72 50.23,-284.91 59.39,-290.94 59.39,-290.94"/>
</g>
<!-- Subscription -->
<g id="node26" class="node">
<title>Subscription</title>
<ellipse fill="none" stroke="black" cx="489.55" cy="-352" rx="55.49" ry="18"/>
<text text-anchor="middle" x="489.55" y="-348.3" font-family="Times,serif" font-size="14.00">Subscription</text>
</g>
<!-- Subscription&#45;&gt;User -->
<g id="edge55" class="edge">
<title>Subscription&#45;&gt;User</title>
<path fill="none" stroke="#5f31f9" d="M514.8,-328.07C527.13,-318.15 542.71,-307.36 558.55,-301 631.24,-271.8 724.02,-266.2 774.92,-265.56"/>
<polygon fill="#5f31f9" stroke="#5f31f9" points="514.49,-328.33 503.93,-331.29 510.65,-331.54 506.81,-334.74 506.81,-334.74 506.81,-334.74 510.65,-331.54 509.7,-338.2 514.49,-328.33 514.49,-328.33"/>
<polygon fill="#5f31f9" stroke="#5f31f9" points="775.12,-265.56 785.15,-269.99 780.12,-265.53 785.12,-265.49 785.12,-265.49 785.12,-265.49 780.12,-265.53 785.09,-260.99 775.12,-265.56 775.12,-265.56"/>
</g>
<!-- Team -->
<g id="node27" class="node">
<title>Team</title>
<ellipse fill="none" stroke="black" cx="383.55" cy="-547" rx="30.59" ry="18"/>
<text text-anchor="middle" x="383.55" y="-543.3" font-family="Times,serif" font-size="14.00">Team</text>
</g>
<!-- Team&#45;&gt;Membership -->
<g id="edge58" class="edge">
<title>Team&#45;&gt;Membership</title>
<path fill="none" stroke="#87fe11" d="M363.9,-522.81C360.72,-518.91 357.51,-514.87 354.55,-511 336.73,-487.68 329.47,-483.35 316.55,-457 304.33,-432.07 295.59,-401.5 290.37,-379.97"/>
<polygon fill="#87fe11" stroke="#87fe11" points="363.91,-522.83 366.82,-533.4 367.1,-526.68 370.29,-530.53 370.29,-530.53 370.29,-530.53 367.1,-526.68 373.75,-527.66 363.91,-522.83 363.91,-522.83"/>
<polygon fill="#87fe11" stroke="#87fe11" points="290.36,-379.93 292.47,-369.17 289.22,-375.06 288.08,-370.19 288.08,-370.19 288.08,-370.19 289.22,-375.06 283.7,-371.21 290.36,-379.93 290.36,-379.93"/>
</g>
<!-- Team&#45;&gt;Todolist -->
<g id="edge57" class="edge">
<title>Team&#45;&gt;Todolist</title>
<path fill="none" stroke="#8f2c88" d="M413.96,-529.03C448.55,-509.73 504.83,-478.33 540.49,-458.44"/>
<polygon fill="#8f2c88" stroke="#8f2c88" points="413.71,-529.17 402.78,-530.12 409.34,-531.61 404.97,-534.05 404.97,-534.05 404.97,-534.05 409.34,-531.61 407.16,-537.98 413.71,-529.17 413.71,-529.17"/>
<polygon fill="#8f2c88" stroke="#8f2c88" points="540.79,-458.28 551.71,-457.33 545.15,-455.84 549.52,-453.4 549.52,-453.4 549.52,-453.4 545.15,-455.84 547.33,-449.48 540.79,-458.28 540.79,-458.28"/>
</g>
<!-- Team&#45;&gt;User -->
<g id="edge56" class="edge">
<title>Team&#45;&gt;User</title>
<path fill="none" stroke="#080c8d" d="M379.53,-518.62C373.17,-463.17 368.48,-339.57 445.55,-301 502.58,-272.45 693.25,-267.14 774.91,-266.19"/>
<polygon fill="#080c8d" stroke="#080c8d" points="379.56,-518.84 376.34,-529.32 380.18,-523.8 380.8,-528.76 380.8,-528.76 380.8,-528.76 380.18,-523.8 385.27,-528.2 379.56,-518.84 379.56,-518.84"/>
<polygon fill="#080c8d" stroke="#080c8d" points="775.23,-266.19 785.27,-270.59 780.23,-266.14 785.22,-266.09 785.22,-266.09 785.22,-266.09 780.23,-266.14 785.18,-261.59 775.23,-266.19 775.23,-266.19"/>
</g>
<!-- Team&#45;&gt;User -->
<g id="edge59" class="edge">
<title>Team&#45;&gt;User</title>
<path fill="none" stroke="#7defad" d="M386.12,-518.8C390.4,-474.83 398.96,-392.56 403.55,-388 427.36,-364.34 522.66,-383.15 553.55,-370 576.79,-360.1 576.94,-348.62 597.55,-334 620.48,-317.72 625.44,-311.47 651.55,-301 692.39,-284.62 742.29,-275.29 775.61,-270.45"/>
<polygon fill="#7defad" stroke="#7defad" points="386.11,-518.87 380.67,-528.4 385.63,-523.85 385.15,-528.83 385.15,-528.83 385.15,-528.83 385.63,-523.85 389.63,-529.26 386.11,-518.87 386.11,-518.87"/>
<polygon fill="#7defad" stroke="#7defad" points="775.91,-270.41 786.43,-273.49 780.86,-269.72 785.81,-269.03 785.81,-269.03 785.81,-269.03 780.86,-269.72 785.19,-264.57 775.91,-270.41 775.91,-270.41"/>
<text text-anchor="middle" x="429.55" y="-391.8" font-family="Times,serif" font-size="14.00">members</text>
</g>
<!-- Todo -->
<g id="node28" class="node">
<title>Todo</title>
<ellipse fill="none" stroke="black" cx="895.55" cy="-547" rx="28.7" ry="18"/>
<text text-anchor="middle" x="895.55" y="-543.3" font-family="Times,serif" font-size="14.00">Todo</text>
</g>
<!-- Todo&#45;&gt;Comment -->
<g id="edge64" class="edge">
<title>Todo&#45;&gt;Comment</title>
<path fill="none" stroke="#356e78" d="M931.02,-535.93C970.53,-523.17 1034.25,-497.8 1075.55,-457 1097.52,-435.29 1112.12,-402.56 1120.33,-379.63"/>
<polygon fill="#356e78" stroke="#356e78" points="930.83,-535.99 919.94,-534.68 926.06,-537.48 921.28,-538.98 921.28,-538.98 921.28,-538.98 926.06,-537.48 922.63,-543.27 930.83,-535.99 930.83,-535.99"/>
<polygon fill="#356e78" stroke="#356e78" points="1120.33,-379.63 1127.82,-371.61 1121.95,-374.89 1123.56,-370.16 1123.56,-370.16 1123.56,-370.16 1121.95,-374.89 1119.3,-368.71 1120.33,-379.63 1120.33,-379.63"/>
</g>
<!-- Todo&#45;&gt;Todolist -->
<g id="edge62" class="edge">
<title>Todo&#45;&gt;Todolist</title>
<path fill="none" stroke="#532aed" d="M860.79,-535.03C808.68,-518.52 707.24,-486.09 621.55,-457 618.84,-456.08 616.05,-455.12 613.24,-454.15"/>
<polygon fill="#532aed" stroke="#532aed" points="861.01,-535.1 869.18,-542.41 865.77,-536.61 870.54,-538.12 870.54,-538.12 870.54,-538.12 865.77,-536.61 871.9,-533.83 861.01,-535.1 861.01,-535.1"/>
<polygon fill="#532aed" stroke="#532aed" points="613.16,-454.12 605.2,-446.57 608.44,-452.47 603.72,-450.82 603.72,-450.82 603.72,-450.82 608.44,-452.47 602.23,-455.07 613.16,-454.12 613.16,-454.12"/>
</g>
<!-- Todo&#45;&gt;User -->
<g id="edge60" class="edge">
<title>Todo&#45;&gt;User</title>
<path fill="none" stroke="#68d6e8" d="M876.88,-522.42C856.75,-495.39 825.94,-448.87 813.55,-403 803.57,-366.11 805.73,-321.56 808.71,-293.5"/>
<polygon fill="#68d6e8" stroke="#68d6e8" points="876.95,-522.53 879.41,-533.21 879.97,-526.51 883,-530.49 883,-530.49 883,-530.49 879.97,-526.51 886.58,-527.77 876.95,-522.53 876.95,-522.53"/>
<polygon fill="#68d6e8" stroke="#68d6e8" points="808.75,-293.18 814.39,-283.77 809.33,-288.21 809.92,-283.25 809.92,-283.25 809.92,-283.25 809.33,-288.21 805.45,-282.72 808.75,-293.18 808.75,-293.18"/>
<text text-anchor="middle" x="843.55" y="-391.8" font-family="Times,serif" font-size="14.00">created_by</text>
</g>
<!-- Todo&#45;&gt;User -->
<g id="edge61" class="edge">
<title>Todo&#45;&gt;User</title>
<path fill="none" stroke="#99452a" d="M894.4,-518.16C892.46,-486.13 887.28,-432.24 873.55,-388 862.51,-352.46 842.04,-314.58 827.87,-290.63"/>
<polygon fill="#99452a" stroke="#99452a" points="894.42,-518.55 890.47,-528.78 894.69,-523.54 894.96,-528.53 894.96,-528.53 894.96,-528.53 894.69,-523.54 899.45,-528.29 894.42,-518.55 894.42,-518.55"/>
<polygon fill="#99452a" stroke="#99452a" points="827.76,-290.43 826.46,-279.55 825.18,-286.15 822.6,-281.86 822.6,-281.86 822.6,-281.86 825.18,-286.15 818.75,-284.18 827.76,-290.43 827.76,-290.43"/>
<text text-anchor="middle" x="909.55" y="-391.8" font-family="Times,serif" font-size="14.00">assigned_to</text>
</g>
<!-- Todo&#45;&gt;ActionText::RichText -->
<g id="edge63" class="edge">
<title>Todo&#45;&gt;ActionText::RichText</title>
<path fill="none" stroke="#604778" d="M932.16,-537.8C960.96,-531.14 1002.02,-521.23 1037.55,-511 1085.56,-497.18 1430.86,-406.9 1464.55,-370 1485.77,-346.75 1458.3,-323.28 1480.55,-301 1490.82,-290.71 1519.41,-282.85 1548.92,-277.21"/>
<polygon fill="#604778" stroke="#604778" points="931.89,-537.86 921.14,-535.71 927.01,-538.97 922.14,-540.09 922.14,-540.09 922.14,-540.09 927.01,-538.97 923.15,-544.48 931.89,-537.86 931.89,-537.86"/>
<polygon fill="#604778" stroke="#604778" points="1549.1,-277.18 1559.75,-279.81 1554.02,-276.28 1558.94,-275.38 1558.94,-275.38 1558.94,-275.38 1554.02,-276.28 1558.13,-270.96 1549.1,-277.18 1549.1,-277.18"/>
<text text-anchor="middle" x="1491.05" y="-391.8" font-family="Times,serif" font-size="14.00">rich_text_description</text>
</g>
<!-- Todolist&#45;&gt;Comment -->
<g id="edge66" class="edge">
<title>Todolist&#45;&gt;Comment</title>
<path fill="none" stroke="#05daf1" d="M612.58,-423.63C615.6,-422.69 618.61,-421.8 621.55,-421 696.67,-400.62 716.33,-397.85 793.55,-388 917.25,-372.22 950.9,-392.57 1073.55,-370 1077.47,-369.28 1081.51,-368.37 1085.53,-367.35"/>
<polygon fill="#05daf1" stroke="#05daf1" points="612.53,-423.65 601.62,-422.5 607.78,-425.21 603.03,-426.77 603.03,-426.77 603.03,-426.77 607.78,-425.21 604.43,-431.05 612.53,-423.65 612.53,-423.65"/>
<polygon fill="#05daf1" stroke="#05daf1" points="1085.77,-367.28 1096.61,-368.95 1090.59,-365.95 1095.41,-364.62 1095.41,-364.62 1095.41,-364.62 1090.59,-365.95 1094.21,-360.28 1085.77,-367.28 1085.77,-367.28"/>
</g>
<!-- Todolist&#45;&gt;User -->
<g id="edge65" class="edge">
<title>Todolist&#45;&gt;User</title>
<path fill="none" stroke="#1319d3" d="M581.9,-411.19C590.44,-387.86 605.83,-354.64 629.55,-334 671.99,-297.05 736.37,-279.42 776.36,-271.6"/>
<polygon fill="#1319d3" stroke="#1319d3" points="581.84,-411.37 574.31,-419.35 580.2,-416.1 578.56,-420.82 578.56,-420.82 578.56,-420.82 580.2,-416.1 582.81,-422.3 581.84,-411.37 581.84,-411.37"/>
<polygon fill="#1319d3" stroke="#1319d3" points="776.39,-271.59 787.04,-274.2 781.31,-270.68 786.22,-269.77 786.22,-269.77 786.22,-269.77 781.31,-270.68 785.4,-265.35 776.39,-271.59 776.39,-271.59"/>
</g>
<!-- Todolist&#45;&gt;ActionText::RichText -->
<g id="edge67" class="edge">
<title>Todolist&#45;&gt;ActionText::RichText</title>
<path fill="none" stroke="#17bd2a" d="M611.79,-423.37C615.05,-422.45 618.34,-421.64 621.55,-421 769.52,-391.51 810.05,-413.69 960.55,-403 1125.67,-391.28 1182.09,-441.17 1331.55,-370 1370.14,-351.62 1360.53,-320.55 1398.55,-301 1423.1,-288.38 1486.71,-279.31 1541.12,-273.57"/>
<polygon fill="#17bd2a" stroke="#17bd2a" points="611.65,-423.41 600.77,-422.08 606.88,-424.89 602.1,-426.38 602.1,-426.38 602.1,-426.38 606.88,-424.89 603.44,-430.68 611.65,-423.41 611.65,-423.41"/>
<polygon fill="#17bd2a" stroke="#17bd2a" points="1541.21,-273.56 1551.62,-277.01 1546.19,-273.05 1551.16,-272.54 1551.16,-272.54 1551.16,-272.54 1546.19,-273.05 1550.7,-268.06 1541.21,-273.56 1541.21,-273.56"/>
<text text-anchor="middle" x="1413.05" y="-348.3" font-family="Times,serif" font-size="14.00">rich_text_content</text>
</g>
<!-- Todolistable -->
<g id="node45" class="node">
<title>Todolistable</title>
<ellipse fill="none" stroke="black" cx="692.55" cy="-352" rx="53.89" ry="18"/>
<text text-anchor="middle" x="692.55" y="-348.3" font-family="Times,serif" font-size="14.00">Todolistable</text>
</g>
<!-- Todolist&#45;&gt;Todolistable -->
<g id="edge68" class="edge">
<title>Todolist&#45;&gt;Todolistable</title>
<path fill="none" stroke="#0b32d8" d="M603.31,-417.81C610.31,-413 617.71,-407.85 624.55,-403 637.33,-393.92 651.31,-383.69 663.25,-374.86"/>
<polygon fill="#0b32d8" stroke="#0b32d8" points="603,-418.03 592.2,-419.97 598.87,-420.85 594.74,-423.68 594.74,-423.68 594.74,-423.68 598.87,-420.85 597.29,-427.39 603,-418.03 603,-418.03"/>
<polygon fill="#0b32d8" stroke="#0b32d8" points="663.51,-374.67 674.22,-372.33 667.52,-371.7 671.54,-368.72 671.54,-368.72 671.54,-368.72 667.52,-371.7 668.86,-365.1 663.51,-374.67 663.51,-374.67"/>
</g>
<!-- User&#45;&gt;Ahoy::Event -->
<g id="edge76" class="edge">
<title>User&#45;&gt;Ahoy::Event</title>
<path fill="none" stroke="#46c93a" d="M831.33,-240.86C840.71,-229.31 852.04,-215.34 861.57,-203.6"/>
<polygon fill="#46c93a" stroke="#46c93a" points="831.18,-241.04 821.39,-245.97 828.03,-244.92 824.88,-248.8 824.88,-248.8 824.88,-248.8 828.03,-244.92 828.38,-251.64 831.18,-241.04 831.18,-241.04"/>
<polygon fill="#46c93a" stroke="#46c93a" points="861.84,-203.28 871.63,-198.35 864.99,-199.4 868.14,-195.52 868.14,-195.52 868.14,-195.52 864.99,-199.4 864.64,-192.68 861.84,-203.28 861.84,-203.28"/>
<text text-anchor="middle" x="868.05" y="-217.8" font-family="Times,serif" font-size="14.00">events</text>
</g>
<!-- User&#45;&gt;Ahoy::Visit -->
<g id="edge75" class="edge">
<title>User&#45;&gt;Ahoy::Visit</title>
<path fill="none" stroke="#94fc4d" d="M799.19,-238.45C789.87,-217.33 780.3,-186.6 787.55,-160 791.75,-144.58 800.43,-129.09 808.63,-116.8"/>
<polygon fill="#94fc4d" stroke="#94fc4d" points="799.28,-238.66 799.45,-249.62 801.4,-243.18 803.53,-247.71 803.53,-247.71 803.53,-247.71 801.4,-243.18 807.6,-245.8 799.28,-238.66 799.28,-238.66"/>
<polygon fill="#94fc4d" stroke="#94fc4d" points="808.73,-116.66 818.14,-111.03 811.59,-112.56 814.45,-108.46 814.45,-108.46 814.45,-108.46 811.59,-112.56 810.76,-105.88 808.73,-116.66 808.73,-116.66"/>
<text text-anchor="middle" x="802.05" y="-174.3" font-family="Times,serif" font-size="14.00">visits</text>
</g>
<!-- User&#45;&gt;Notification -->
<g id="edge74" class="edge">
<title>User&#45;&gt;Notification</title>
<path fill="none" stroke="#6e62e2" d="M843.85,-250.42C877.43,-235.86 930.87,-212.69 967.72,-196.71"/>
<polygon fill="#6e62e2" stroke="#6e62e2" points="843.82,-250.44 832.86,-250.29 839.24,-252.43 834.65,-254.41 834.65,-254.41 834.65,-254.41 839.24,-252.43 836.44,-258.54 843.82,-250.44 843.82,-250.44"/>
<polygon fill="#6e62e2" stroke="#6e62e2" points="968,-196.58 978.96,-196.73 972.59,-194.59 977.17,-192.61 977.17,-192.61 977.17,-192.61 972.59,-194.59 975.38,-188.48 968,-196.58 968,-196.58"/>
</g>
<!-- User&#45;&gt;ActiveStorage::Attachment -->
<g id="edge70" class="edge">
<title>User&#45;&gt;ActiveStorage::Attachment</title>
<path fill="none" stroke="#26798d" d="M849.25,-258.71C877.45,-254.85 917.38,-249.82 952.55,-247 1156.94,-230.63 1208.73,-238.75 1413.55,-229 1674.99,-216.56 1740.51,-215.25 2001.55,-196 2029.48,-193.94 2059.75,-191.33 2087.59,-188.79"/>
<polygon fill="#26798d" stroke="#26798d" points="848.96,-258.75 838.44,-255.67 844.01,-259.44 839.06,-260.12 839.06,-260.12 839.06,-260.12 844.01,-259.44 839.68,-264.58 848.96,-258.75 848.96,-258.75"/>
<polygon fill="#26798d" stroke="#26798d" points="2087.77,-188.77 2098.14,-192.33 2092.74,-188.31 2097.72,-187.85 2097.72,-187.85 2097.72,-187.85 2092.74,-188.31 2097.31,-183.37 2087.77,-188.77 2087.77,-188.77"/>
<text text-anchor="middle" x="1776.55" y="-217.8" font-family="Times,serif" font-size="14.00">avatar_attachment</text>
</g>
<!-- User&#45;&gt;ActiveStorage::Blob -->
<g id="edge71" class="edge">
<title>User&#45;&gt;ActiveStorage::Blob</title>
<path fill="none" stroke="#963a96" d="M849.28,-259.03C877.49,-255.34 917.43,-250.38 952.55,-247 1271.01,-216.37 1650.33,-193.42 1819.9,-183.87"/>
<polygon fill="#963a96" stroke="#963a96" points="849,-259.07 838.49,-255.92 844.04,-259.72 839.08,-260.38 839.08,-260.38 839.08,-260.38 844.04,-259.72 839.67,-264.84 849,-259.07 849,-259.07"/>
<polygon fill="#963a96" stroke="#963a96" points="1820.05,-183.86 1830.28,-187.8 1825.04,-183.58 1830.03,-183.3 1830.03,-183.3 1830.03,-183.3 1825.04,-183.58 1829.78,-178.81 1820.05,-183.86 1820.05,-183.86"/>
<text text-anchor="middle" x="1377.55" y="-217.8" font-family="Times,serif" font-size="14.00">avatar_blob</text>
</g>
<!-- PaperTrail::Version -->
<g id="node46" class="node">
<title>PaperTrail::Version</title>
<ellipse fill="none" stroke="black" cx="1159.55" cy="-178" rx="79.09" ry="18"/>
<text text-anchor="middle" x="1159.55" y="-174.3" font-family="Times,serif" font-size="14.00">PaperTrail::Version</text>
</g>
<!-- User&#45;&gt;PaperTrail::Version -->
<g id="edge69" class="edge">
<title>User&#45;&gt;PaperTrail::Version</title>
<path fill="none" stroke="#253935" d="M847.76,-255.37C906.44,-241 1024.95,-211.97 1097.77,-194.13"/>
<polygon fill="#253935" stroke="#253935" points="847.49,-255.44 836.71,-253.45 842.64,-256.63 837.78,-257.82 837.78,-257.82 837.78,-257.82 842.64,-256.63 838.85,-262.19 847.49,-255.44 847.49,-255.44"/>
<polygon fill="#253935" stroke="#253935" points="1098.01,-194.07 1108.8,-196.06 1102.87,-192.88 1107.73,-191.69 1107.73,-191.69 1107.73,-191.69 1102.87,-192.88 1106.66,-187.32 1098.01,-194.07 1098.01,-194.07"/>
<text text-anchor="middle" x="1029.55" y="-217.8" font-family="Times,serif" font-size="14.00">versions</text>
</g>
<!-- todos -->
<g id="node47" class="node">
<title>todos</title>
<ellipse fill="none" stroke="black" cx="614.55" cy="-178" rx="29.8" ry="18"/>
<text text-anchor="middle" x="614.55" y="-174.3" font-family="Times,serif" font-size="14.00">todos</text>
</g>
<!-- User&#45;&gt;todos -->
<g id="edge72" class="edge">
<title>User&#45;&gt;todos</title>
<path fill="none" stroke="#08d0d6" d="M775.85,-259.25C747.09,-254.48 706.71,-245.4 674.55,-229 660.68,-221.93 647.19,-211.15 636.53,-201.41"/>
<polygon fill="#08d0d6" stroke="#08d0d6" points="776,-259.28 785.18,-265.27 780.94,-260.05 785.88,-260.82 785.88,-260.82 785.88,-260.82 780.94,-260.05 786.58,-256.38 776,-259.28 776,-259.28"/>
<polygon fill="#08d0d6" stroke="#08d0d6" points="636.22,-201.12 632.06,-190.98 632.59,-197.68 628.96,-194.24 628.96,-194.24 628.96,-194.24 632.59,-197.68 625.87,-197.51 636.22,-201.12 636.22,-201.12"/>
<text text-anchor="middle" x="708.05" y="-217.8" font-family="Times,serif" font-size="14.00">assignments</text>
</g>
<!-- Activity -->
<g id="node48" class="node">
<title>Activity</title>
<ellipse fill="none" stroke="black" cx="702.55" cy="-178" rx="39.79" ry="18"/>
<text text-anchor="middle" x="702.55" y="-174.3" font-family="Times,serif" font-size="14.00">Activity</text>
</g>
<!-- User&#45;&gt;Activity -->
<g id="edge73" class="edge">
<title>User&#45;&gt;Activity</title>
<path fill="none" stroke="#ce585b" d="M786.06,-245.04C779.02,-239.9 771.45,-234.3 764.55,-229 752.66,-219.88 739.72,-209.52 728.76,-200.61"/>
<polygon fill="#ce585b" stroke="#ce585b" points="786.52,-245.37 791.97,-254.88 790.56,-248.31 794.61,-251.24 794.61,-251.24 794.61,-251.24 790.56,-248.31 797.25,-247.6 786.52,-245.37 786.52,-245.37"/>
<polygon fill="#ce585b" stroke="#ce585b" points="728.55,-200.44 723.65,-190.63 724.68,-197.28 720.81,-194.11 720.81,-194.11 720.81,-194.11 724.68,-197.28 717.96,-197.6 728.55,-200.44 728.55,-200.44"/>
</g>
</g>
</svg>
